<svg width="32" height="32" viewBox="0 0 32 32" fill="none" xmlns="http://www.w3.org/2000/svg">
<g clip-path="url(#clip0_293_271)">
<path d="M32 16C32 7.16344 24.8366 0 16 0C7.16344 0 0 7.16344 0 16C0 24.8366 7.16344 32 16 32C24.8366 32 32 24.8366 32 16Z" fill="#C4C4C4"/>
<path d="M4.11445 18.3326H2.30627V12.7471H4.17173C4.719 12.7471 5.189 12.8589 5.58173 13.0825C5.97445 13.3044 6.27537 13.6235 6.48448 14.0399C6.69536 14.4544 6.80083 14.9517 6.80083 15.5316C6.80083 16.1135 6.69446 16.6135 6.48172 17.0317C6.27082 17.4498 5.96537 17.7716 5.56537 17.9971C5.16537 18.2207 4.68173 18.3326 4.11445 18.3326ZM3.149 17.5962H4.06809C4.49354 17.5962 4.84718 17.5162 5.129 17.3562C5.41082 17.1943 5.62173 16.9607 5.76173 16.6553C5.90173 16.348 5.97173 15.9735 5.97173 15.5316C5.97173 15.0935 5.90173 14.7216 5.76173 14.4162C5.62355 14.1108 5.41719 13.8789 5.14264 13.7207C4.86809 13.5625 4.52718 13.4834 4.11991 13.4834H3.149V17.5962ZM9.2048 18.4171C8.79206 18.4171 8.4366 18.3289 8.13843 18.1526C7.84204 17.9744 7.61299 17.7244 7.45113 17.4025C7.29113 17.0789 7.21113 16.6998 7.21113 16.2653C7.21113 15.8362 7.29113 15.458 7.45113 15.1307C7.61299 14.8034 7.8384 14.548 8.12748 14.3644C8.41843 14.1807 8.7584 14.0889 9.14752 14.0889C9.38387 14.0889 9.61299 14.128 9.83475 14.2062C10.0566 14.2844 10.2557 14.4071 10.4321 14.5744C10.6084 14.7417 10.7475 14.9589 10.8493 15.2262C10.9512 15.4916 11.002 15.8144 11.002 16.1943V16.4834H7.67206V15.8726H10.2029C10.2029 15.658 10.1593 15.468 10.0721 15.3026C9.98476 15.1353 9.86208 15.0034 9.70387 14.9071C9.54752 14.8107 9.36384 14.7625 9.15296 14.7625C8.92384 14.7625 8.72384 14.8189 8.55296 14.9316C8.38387 15.0425 8.25299 15.188 8.16025 15.368C8.06931 15.5462 8.02387 15.7398 8.02387 15.9489V16.4262C8.02387 16.7062 8.07296 16.9444 8.17113 17.1407C8.27116 17.3371 8.41024 17.4871 8.58841 17.5908C8.76659 17.6926 8.97478 17.7435 9.21299 17.7435C9.36748 17.7435 9.50841 17.7216 9.63571 17.678C9.76294 17.6326 9.87296 17.5653 9.96569 17.4762C10.0584 17.3871 10.1293 17.2771 10.1784 17.1462L10.9502 17.2853C10.8884 17.5126 10.7775 17.7117 10.6175 17.8825C10.4593 18.0516 10.2602 18.1835 10.0202 18.278C9.78208 18.3707 9.5102 18.4171 9.2048 18.4171ZM14.9864 14.1435L13.4674 18.3326H12.5946L11.0728 14.1435H11.9483L13.0092 17.3671H13.0528L14.111 14.1435H14.9864ZM15.4343 18.3326V12.7471H17.4797C17.8761 12.7471 18.2043 12.8126 18.4643 12.9435C18.7243 13.0726 18.9188 13.248 19.0479 13.4698C19.177 13.6898 19.2415 13.938 19.2415 14.2144C19.2415 14.4471 19.1988 14.6434 19.1133 14.8034C19.0279 14.9616 18.9133 15.0889 18.7697 15.1853C18.6279 15.2799 18.4715 15.3489 18.3007 15.3926V15.4471C18.4861 15.4562 18.667 15.5162 18.8434 15.6271C19.0216 15.7362 19.1688 15.8916 19.2852 16.0935C19.4015 16.2953 19.4597 16.5407 19.4597 16.8298C19.4597 17.1153 19.3924 17.3716 19.2579 17.5989C19.1252 17.8244 18.9197 18.0034 18.6415 18.1362C18.3634 18.2671 18.0079 18.3326 17.5752 18.3326H15.4343ZM16.277 17.6098H17.4934C17.897 17.6098 18.1861 17.5316 18.3606 17.3753C18.5352 17.2189 18.6225 17.0235 18.6225 16.7889C18.6225 16.6126 18.5779 16.4507 18.4888 16.3035C18.3997 16.1562 18.2724 16.0389 18.107 15.9517C17.9434 15.8644 17.7488 15.8207 17.5234 15.8207H16.277V17.6098ZM16.277 15.1634H17.4061C17.5952 15.1634 17.7652 15.1271 17.9161 15.0544C18.0688 14.9817 18.1898 14.8799 18.2788 14.7489C18.3697 14.6162 18.4152 14.4598 18.4152 14.2799C18.4152 14.0489 18.3343 13.8553 18.1725 13.6989C18.0106 13.5426 17.7624 13.4644 17.4279 13.4644H16.277V15.1634ZM20.0099 18.3326V14.1435H20.798V14.8089H20.8417C20.918 14.5835 21.0525 14.4062 21.2452 14.2771C21.4398 14.1462 21.6598 14.0807 21.9053 14.0807C21.9562 14.0807 22.0162 14.0825 22.0852 14.0862C22.1562 14.0898 22.2116 14.0944 22.2516 14.0998V14.8799C22.2189 14.8708 22.1607 14.8607 22.0771 14.8498C21.9935 14.8371 21.9098 14.8308 21.8262 14.8308C21.6335 14.8308 21.4616 14.8717 21.3107 14.9535C21.1617 15.0335 21.0435 15.1453 20.9562 15.2889C20.8689 15.4308 20.8253 15.5926 20.8253 15.7744V18.3326H20.0099ZM22.5733 18.3326V14.1435H23.3888V18.3326H22.5733ZM22.9851 13.4971C22.8433 13.4971 22.7215 13.4498 22.6197 13.3553C22.5197 13.2589 22.4697 13.1444 22.4697 13.0116C22.4697 12.8771 22.5197 12.7625 22.6197 12.668C22.7215 12.5716 22.8433 12.5234 22.9851 12.5234C23.127 12.5234 23.2479 12.5716 23.3478 12.668C23.4497 12.7625 23.5006 12.8771 23.5006 13.0116C23.5006 13.1444 23.4497 13.2589 23.3478 13.3553C23.2479 13.4498 23.127 13.4971 22.9851 13.4971ZM26.0573 14.1435V14.798H23.7691V14.1435H26.0573ZM24.3827 13.1398H25.1982V17.1026C25.1982 17.2607 25.2218 17.3798 25.2691 17.4598C25.3163 17.538 25.3773 17.5917 25.4518 17.6207C25.5282 17.648 25.6109 17.6617 25.7 17.6617C25.7654 17.6617 25.8227 17.6571 25.8718 17.648C25.9209 17.6389 25.9591 17.6317 25.9864 17.6262L26.1336 18.2998C26.0864 18.318 26.0191 18.3362 25.9318 18.3543C25.8445 18.3744 25.7355 18.3853 25.6045 18.3871C25.39 18.3908 25.19 18.3526 25.0045 18.2726C24.8191 18.1926 24.6691 18.0689 24.5546 17.9017C24.44 17.7344 24.3827 17.5244 24.3827 17.2717V13.1398ZM28.2948 18.4171C27.9021 18.4171 27.5594 18.3271 27.2667 18.1471C26.9739 17.9671 26.7467 17.7153 26.5849 17.3917C26.423 17.068 26.3421 16.6898 26.3421 16.2571C26.3421 15.8226 26.423 15.4425 26.5849 15.1171C26.7467 14.7917 26.9739 14.5389 27.2667 14.3589C27.5594 14.1789 27.9021 14.0889 28.2948 14.0889C28.6876 14.0889 29.0303 14.1789 29.3231 14.3589C29.6158 14.5389 29.8431 14.7917 30.0049 15.1171C30.1667 15.4425 30.2476 15.8226 30.2476 16.2571C30.2476 16.6898 30.1667 17.068 30.0049 17.3917C29.8431 17.7153 29.6158 17.9671 29.3231 18.1471C29.0303 18.3271 28.6876 18.4171 28.2948 18.4171ZM28.2976 17.7326C28.5521 17.7326 28.7631 17.6653 28.9303 17.5307C29.0976 17.3962 29.2212 17.2171 29.3012 16.9935C29.383 16.7698 29.4239 16.5234 29.4239 16.2544C29.4239 15.9871 29.383 15.7417 29.3012 15.518C29.2212 15.2926 29.0976 15.1117 28.9303 14.9753C28.7631 14.8389 28.5521 14.7707 28.2976 14.7707C28.0412 14.7707 27.8285 14.8389 27.6594 14.9753C27.4922 15.1117 27.3676 15.2926 27.2858 15.518C27.2058 15.7417 27.1658 15.9871 27.1658 16.2544C27.1658 16.5234 27.2058 16.7698 27.2858 16.9935C27.3676 17.2171 27.4922 17.3962 27.6594 17.5307C27.8285 17.6653 28.0412 17.7326 28.2976 17.7326Z" fill="#181616"/>
</g>
<defs>
<clipPath id="clip0_293_271">
<rect width="32" height="32" fill="white"/>
</clipPath>
</defs>
</svg>
