<svg width="791" height="560" viewBox="0 0 791 560" fill="none" xmlns="http://www.w3.org/2000/svg">
<path d="M156.582 80H27.7823C12.9823 80 -1.81772 92.8 0.182283 113.6L62.5823 513.2C62.5823 513.2 136.582 218.8 150.982 148C155.382 126.8 175.382 120 190.182 
120H396.582C396.582 120 368.582 36.8 365.782 27.6C360.982 10 352.182 0 334.582 0H202.182C187.782 0 174.182 9.2 170.182 25.6C166.582 41.6 156.582 80 156.582 80ZM351.782 
80H191.782C191.782 80 208.582 40 226.582 40H311.782C330.982 40 351.782 80 351.782 80ZM103.382 530C90.9823 548.8 72.9823 560 52.9823 560H682.182C703.782 560 718.982 547.6 
723.382 526.8C740.982 439.2 790.582 189.2 790.582 189.2C793.382 169.2 778.582 160 765.782 160H636.582V101.2C636.582 94.8 626.182 80 610.182 80H459.782C438.982 80 424.982 103.2 
424.982 103.2L396.582 160H220.182C207.382 160 194.982 167.6 192.582 180C192.582 180 128.982 448 123.782 473.2C120.982 488 114.982 512.8 103.382 530ZM611.782 160H436.582C436.582 
160 459.782 120 481.782 120H573.382C601.782 120 611.782 160 611.782 160Z" fill="#9153F4"/>
</svg>
