<svg width="20" height="20" viewBox="0 0 20 20" fill="none" xmlns="http://www.w3.org/2000/svg">
<path fill-rule="evenodd" clip-rule="evenodd" d="M9.99992 0C4.47784 0 0 4.59022 0 10.2532C0 14.7835 2.86528 18.6266 6.83855 19.9825C7.33815 20.0776 7.52163 19.7601 7.52163 19.4893C7.52163 19.2448 7.51236 18.4371 7.50805 17.5804C4.72607 18.2006 4.13903 16.3706 4.13903 16.3706C3.68415 15.1855 3.02872 14.8704 3.02872 14.8704C2.12126 14.234 3.09711 14.2473 3.09711 14.2473C4.10111 14.3194 4.63002 15.3039 4.63002 15.3039C5.52191 16.871 6.96937 16.418 7.54001 16.1562C7.62976 15.4935 7.88892 15.041 8.1749 14.785C5.95378 14.5261 3.61874 13.6467 3.61874 9.718C3.61874 8.59859 4.00954 7.68394 4.64923 6.96573C4.54524 6.70765 4.20295 5.66481 4.74594 4.25252C4.74594 4.25252 5.5855 3.97695 7.49646 5.30351C8.29429 5.07616 9.14992 4.96189 9.99992 4.95799C10.8494 4.96189 11.7055 5.07582 12.5049 5.30317C14.4135 3.97661 15.2521 4.25218 15.2521 4.25218C15.7964 5.6643 15.4541 6.70731 15.3503 6.96539C15.9915 7.6836 16.3794 8.59825 16.3794 9.71766C16.3794 13.6557 14.0401 14.5227 11.8133 14.7767C12.1722 15.0949 12.4918 15.719 12.4918 16.6754C12.4918 18.0473 12.4802 19.1514 12.4802 19.4891C12.4802 19.762 12.6604 20.0817 13.1671 19.981C17.138 18.6237 20 14.7818 20 10.2532C19.9998 4.59056 15.5225 0 9.99992 0Z" fill="white"/>
</svg>
