<svg width="800" height="712" viewBox="0 0 800 712" fill="none" xmlns="http://www.w3.org/2000/svg">
<path d="M536.963 660.858C640.625 598.872 710.034 485.541 710.034 356C710.034 159.931 551.098 0.970337 355.03 0.970337C158.936 0.970337 0 159.931 0 356C0 552.069 158.936 711.03 355.03 711.03H800V660.859L536.963 660.858ZM497.631 183.93C534.423 162.689 581.445 175.288 602.684 212.08C623.923 248.872 611.327 295.917 574.534 317.158C537.742 338.373 490.72 325.777 469.481 289.008C448.217 252.192 460.841 205.17 497.631 183.93ZM469.458 421.137C490.722 384.345 537.744 371.748 574.536 392.987C611.328 414.252 623.925 461.273 602.686 498.066C581.447 534.858 534.423 547.455 497.608 526.216C460.841 504.975 448.217 457.928 469.458 421.137ZM355.03 69.086C397.511 69.086 431.934 103.509 431.934 145.991C431.934 188.472 397.511 222.944 355.03 222.944C312.548 222.944 278.077 188.47 278.077 145.991C278.077 103.511 312.548 69.086 355.03 69.086ZM390.528 356C390.528 375.63 374.634 391.498 355.03 391.498C335.4 391.498 319.531 375.63 319.531 356C319.531 336.37 335.4 320.502 355.03 320.502C374.634 320.502 390.528 336.372 390.528 356ZM107.348 212.08C128.589 175.288 175.634 162.691 212.427 183.93C249.219 205.169 261.816 252.192 240.577 289.008C219.336 325.775 172.291 338.397 135.498 317.158C98.7313 295.917 86.1078 248.872 107.348 212.08ZM212.452 526.216C175.634 547.456 128.614 534.858 107.348 498.066C86.1328 461.273 98.7297 414.228 135.498 392.962C172.291 371.722 219.336 384.344 240.577 421.136C261.817 457.928 249.219 504.975 212.452 526.216ZM278.077 564.13C278.077 521.648 312.55 487.202 355.03 487.202C397.509 487.202 431.934 521.65 431.934 564.13C431.934 606.609 397.511 641.058 355.03 641.058C312.548 641.058 278.077 606.611 278.077 564.13Z" fill="#9153F4"/>
</svg>
