<svg width="66" height="66" viewBox="0 0 66 66" fill="none" xmlns="http://www.w3.org/2000/svg">
<g clip-path="url(#clip0_25_76)">
<path d="M57.435 6.6585L51.9031 59.753L30.5751 65.2276L9.3814 59.2532L5.09996 6.0434L57.435 6.6585ZM47.4198 17.3499L31.121 17.1584L14.5335 16.9634L15.2513 23.3914L31.0455 23.577L31.9327 23.5874L31.0412 23.9463L15.7497 30.1052L16.1807 36.3851L30.8924 36.6057L38.7775 36.7234L38.1744 45.0831L30.7693 47.0743L30.7693 47.0677L30.7086 47.0839L23.6019 45.2007L23.2304 40.0027L23.2068 40.0024L16.5953 39.9247L16.572 39.9244L17.3196 49.9595L30.6871 54.084L30.6872 54.0769L30.7113 54.0843L44.0993 50.3465L46.064 30.4615L30.9668 30.284L30.9296 30.2836L30.967 30.2679L46.6959 23.7609L47.4198 17.3499Z" fill="#9153F4"/>
</g>
<defs>
<clipPath id="clip0_25_76">
<rect width="65" height="65" fill="white" transform="translate(0.763901) rotate(0.673373)"/>
</clipPath>
</defs>
</svg>
