<svg width="250" height="173" viewBox="0 0 334 173" fill="none" xmlns="http://www.w3.org/2000/svg">
<g clip-path="url(#clip0_49_146)">
<path d="M52.049 39.9469C61.1909 42.3173 70.5091 37.6284 74.2507 29.2696C74.7999 29.5087 75.3698 29.6958 75.9609 29.8518C79.0392 30.6523 82.1382 30.1741 84.7193 28.7497C86.6265 32.8772 90.306 36.1521 95.0429 37.3789C98.7532 38.3354 102.495 37.8884 105.698 36.3601C106.921 41.9846 111.181 46.7257 117.12 48.264C121.556 49.4182 126.034 48.5447 129.589 46.2368C130.273 49.5327 132.75 52.3189 136.223 53.2234C141.084 54.4814 146.048 51.5493 147.313 46.6735C148.567 41.7975 145.644 36.8175 140.783 35.5491C139.353 35.1748 137.923 35.1748 136.575 35.466C137.829 27.5437 132.895 19.8086 124.987 17.7605C122.779 17.1886 120.551 17.1159 118.436 17.4798C117.307 16.2946 115.835 15.39 114.135 14.9534C113.7 14.839 113.264 14.7663 112.839 14.7143C110.839 10.9611 107.346 8.02923 102.91 6.87522C97.4992 5.47167 92.0263 7.07273 88.2331 10.6388C86.6781 8.72581 84.5223 7.27028 81.9623 6.6049C78.1167 5.6068 74.2195 6.6049 71.369 8.95452C68.9127 6.05389 65.5646 3.86018 61.6158 2.84131C51.3958 0.179772 40.9689 6.34498 38.3361 16.5856C35.6931 26.8367 41.8291 37.2957 52.049 39.9469Z" fill="url(#paint0_radial_49_146)"/>
<path d="M19.9902 70.3572C32.7495 73.6632 45.7369 67.1236 50.9608 55.4588C51.7277 55.7811 52.5259 56.0618 53.355 56.2695C57.6459 57.3822 61.9786 56.7169 65.5752 54.7308C68.2392 60.4907 73.3591 65.0548 79.9719 66.7704C85.1442 68.1116 90.3576 67.4772 94.8353 65.3563C96.5454 73.1956 102.485 79.8179 110.766 81.9596C116.944 83.5607 123.194 82.3548 128.159 79.1212C129.112 83.7168 132.574 87.605 137.414 88.8631C144.203 90.6202 151.117 86.5344 152.879 79.7246C154.631 72.9149 150.557 65.98 143.768 64.2127C141.778 63.6929 139.778 63.6823 137.891 64.0982C139.643 53.0466 132.761 42.255 121.732 39.4063C118.644 38.6057 115.545 38.5122 112.591 39.0112C111.015 37.3478 108.973 36.1002 106.589 35.4868C105.988 35.3308 105.387 35.2165 104.775 35.1541C101.987 29.9246 97.1158 25.8283 90.9279 24.2272C83.3926 22.2726 75.7537 24.5079 70.4571 29.4775C68.2907 26.8056 65.2852 24.7886 61.7092 23.8529C56.3399 22.4598 50.9194 23.8529 46.9388 27.1279C43.5084 23.0836 38.844 20.027 33.3403 18.6026C19.0885 14.9118 4.55686 23.4994 0.866935 37.7948C-2.82298 52.0798 5.73846 66.6661 19.9902 70.3572Z" fill="url(#paint1_radial_49_146)"/>
<path d="M111.834 112.162C100.287 110.467 91.9227 100.653 91.6428 89.3307C90.9072 89.3307 90.161 89.279 89.4143 89.1751C85.5277 88.6031 82.2211 86.5653 79.9617 83.7061C75.8159 87.4905 70.0736 89.4558 64.0828 88.5824C59.3979 87.8963 55.3552 85.5879 52.4325 82.3026C48.3488 88.1147 41.2383 91.4725 33.7445 90.3704C28.1474 89.5491 23.4625 86.4093 20.5085 82.0635C18.1556 85.4946 13.9993 87.4697 9.61493 86.8358C3.46853 85.9314 -0.781082 80.2131 0.120667 74.0478C1.02242 67.8826 6.72312 63.6199 12.8695 64.5243C14.673 64.7843 16.3107 65.4707 17.7099 66.4583C20.0628 56.8309 29.3808 50.3956 39.3623 51.8614C42.1608 52.2668 44.7209 53.2547 46.96 54.6892C48.8152 53.8785 50.9194 53.5562 53.0646 53.8785C53.6142 53.9616 54.1427 54.0761 54.6504 54.2317C58.7134 50.9154 64.1035 49.252 69.7003 50.0733C76.5308 51.0715 82.0038 55.5211 84.6157 61.4057C87.3 59.9708 90.451 59.3572 93.6849 59.8355C98.5461 60.5428 102.495 63.5474 104.63 67.5917C108.818 65.4707 113.668 64.5871 118.654 65.3147C131.558 67.2067 140.483 79.2255 138.596 92.1691C136.72 105.092 124.738 114.054 111.834 112.162Z" fill="url(#paint2_radial_49_146)"/>
<path d="M205.325 90.8178C218.634 85.9831 226.19 72.2699 223.765 58.7543C224.635 58.5779 225.516 58.3387 226.377 58.0267C230.854 56.4048 234.285 53.1716 236.275 49.2206C242.121 52.7035 249.428 53.6287 256.331 51.1232C261.731 49.1583 265.971 45.4261 268.655 40.8099C274.915 46.7257 284.192 48.9713 292.826 45.8314C299.273 43.4921 304.082 38.6058 306.529 32.7213C310.156 36.2145 315.577 37.5557 320.625 35.7259C327.704 33.1579 331.363 25.3085 328.803 18.2075C326.243 11.1066 318.417 7.43662 311.338 10.0046C309.265 10.7636 307.472 11.9696 306.062 13.4771C300.921 2.61259 288.286 -2.76247 276.781 1.41698C273.558 2.5918 270.749 4.39043 268.437 6.63608C266.033 6.12666 263.462 6.26179 260.985 7.15592C260.353 7.38464 259.752 7.65495 259.181 7.96686C253.543 5.02463 246.744 4.36961 240.297 6.70888C232.43 9.56796 227.009 16.201 225.319 23.8321C221.785 22.7821 217.888 22.8237 214.157 24.1752C208.559 26.213 204.59 30.7459 203.035 36.069C197.552 34.5718 191.561 34.707 185.808 36.7967C170.935 42.203 163.244 58.6712 168.634 73.5903C174.034 88.5094 190.452 96.224 205.325 90.8178Z" fill="url(#paint3_radial_49_146)"/>
<path d="M213.773 112.037C226.18 110.218 235.177 99.6756 235.467 87.5011C236.254 87.5011 237.063 87.449 237.861 87.3349C242.038 86.7213 245.593 84.5381 248.019 81.4605C252.476 85.5256 258.653 87.6364 265.079 86.7006C270.106 85.9623 274.46 83.4776 277.6 79.9531C281.984 86.2015 289.634 89.8091 297.687 88.6239C303.699 87.7403 308.736 84.3719 311.908 79.6932C314.437 83.3737 318.904 85.5048 323.61 84.8188C330.212 83.852 334.783 77.6969 333.819 71.0746C332.855 64.4518 326.72 59.8669 320.117 60.8337C318.179 61.1144 316.417 61.8526 314.924 62.9025C312.395 52.5581 302.382 45.6338 291.655 47.2142C288.649 47.6509 285.892 48.7114 283.487 50.2501C281.487 49.3767 279.238 49.0336 276.927 49.3767C276.336 49.4598 275.766 49.595 275.216 49.7511C270.842 46.1851 265.059 44.4072 259.047 45.2802C251.708 46.3513 245.832 51.144 243.012 57.4653C240.131 55.9265 236.742 55.2612 233.259 55.7705C228.045 56.54 223.785 59.763 221.495 64.1088C216.996 61.8318 211.783 60.8752 206.424 61.6656C192.556 63.703 182.968 76.6157 184.989 90.5265C187.021 104.437 199.904 114.065 213.773 112.037Z" fill="url(#paint4_radial_49_146)"/>
<path d="M235.332 88.3746V84.0598H234.565C234.555 83.8829 234.254 83.7273 233.601 83.5815C227.631 82.2611 220.106 76.0335 220.106 76.0335H217.898C218.209 75.8567 218.499 75.5242 218.499 74.9005C218.499 74.859 218.499 74.8068 218.489 74.7652C218.489 74.7546 218.489 74.7445 218.489 74.7339C218.489 74.7029 218.479 74.6715 218.468 74.63C218.468 74.6198 218.468 74.6092 218.458 74.599C218.447 74.5677 218.437 74.5261 218.427 74.4947C218.427 74.4845 218.427 74.4845 218.417 74.4739C218.064 73.3927 216.52 72.7482 216.52 72.7482H214.903C214.903 72.7482 215.369 73.6111 215.566 74.4845H197.801L197.666 72.7796H194.753L194.618 74.4845H190.245V74.3493C197.842 72.4781 206.113 65.2002 206.113 65.2002L205.927 64.9717L203.771 62.3203C203.574 62.414 203.367 62.5077 203.149 62.5908V62.4763C203.035 62.5285 202.91 62.5802 202.786 62.6324V62.7468C202.527 62.8507 202.257 62.9546 201.988 63.0585V62.9546C201.864 62.9962 201.75 63.0483 201.625 63.0899V63.1836C201.366 63.2769 201.097 63.36 200.827 63.4537V63.3706C200.713 63.4121 200.589 63.4435 200.464 63.4851V63.5682C200.205 63.6513 199.936 63.7242 199.666 63.8073V63.7344C199.552 63.7658 199.428 63.7967 199.303 63.8383V63.9112C199.045 63.9841 198.775 64.0566 198.505 64.119V64.0465C198.391 64.0774 198.267 64.1088 198.143 64.1397V64.2127C197.873 64.275 197.614 64.3373 197.345 64.3997V64.3373C197.23 64.3687 197.106 64.3895 196.982 64.4204V64.4828C196.712 64.5455 196.453 64.5973 196.184 64.6596V64.5973C196.07 64.618 195.945 64.6494 195.821 64.6702V64.7219C195.552 64.7741 195.292 64.8262 195.023 64.878V64.8262C194.909 64.847 194.785 64.8678 194.66 64.8886V64.9403C194.391 64.9924 194.131 65.034 193.862 65.0862V65.034C193.748 65.0548 193.624 65.0756 193.499 65.0963V65.1485C193.344 65.1794 193.188 65.2002 193.022 65.2316C187.757 63.0585 182.378 58.6088 182.378 58.6088H179.279V58.5049C179.527 58.3074 179.724 57.9953 179.724 57.4652C179.724 57.4237 179.724 57.3715 179.714 57.33C179.714 57.3198 179.714 57.3092 179.714 57.299C179.714 57.2677 179.703 57.2261 179.693 57.1947C179.693 57.1845 179.693 57.1739 179.683 57.1638C179.672 57.1222 179.662 57.0908 179.651 57.0599C179.651 57.0493 179.651 57.0493 179.641 57.0391C179.289 55.9473 177.745 55.3129 177.745 55.3129H176.127C176.127 55.3129 176.594 56.1762 176.791 57.0493H159.595L159.461 55.3443H156.538L156.403 57.0493H138.669C138.876 56.1762 139.332 55.3129 139.332 55.3129H137.715C137.715 55.3129 136.16 55.9473 135.818 57.0391C135.818 57.0493 135.818 57.0493 135.808 57.0599C135.798 57.0908 135.787 57.1324 135.777 57.1638C135.777 57.1739 135.766 57.1845 135.766 57.1947C135.756 57.2261 135.756 57.2575 135.746 57.299C135.746 57.3092 135.746 57.3198 135.746 57.33C135.746 57.3715 135.735 57.4237 135.735 57.4652C135.735 58.089 136.026 58.4218 136.337 58.5987H134.129C134.129 58.5987 128.76 63.0483 123.484 65.221C119.255 64.5247 115.503 63.5889 112.746 62.3101L112.559 62.5285V62.3411C112.528 62.3309 112.508 62.3203 112.476 62.3101L112.197 62.6531V62.9754L111.399 63.9629V63.6407L111.036 64.0774V64.3997L110.58 64.9611L110.393 65.19C110.393 65.19 118.664 72.4675 126.262 74.3391V74.4739H121.888L121.753 72.769H118.83L118.696 74.4739H100.951C101.158 73.6009 101.614 72.738 101.614 72.738H99.9971C99.9971 72.738 98.4425 73.3719 98.1004 74.4638C98.1004 74.4739 98.1004 74.4739 98.0899 74.4845C98.0797 74.5159 98.0692 74.5575 98.059 74.5884C98.059 74.599 98.0484 74.6092 98.0484 74.6198C98.0383 74.6508 98.0383 74.6821 98.0277 74.7237C98.0277 74.7339 98.0277 74.7445 98.0277 74.7547C98.0277 74.7966 98.0176 74.8484 98.0176 74.8899C98.0176 75.5136 98.3076 75.8465 98.6188 76.0233H96.411C96.411 76.0233 88.8858 82.2509 82.9157 83.5713C82.2629 83.7167 81.9623 83.8728 81.9518 84.0496H81.1848V88.364H89.6633V111.85H87.7562V113.763H117.555H125.858H128.49H129.745H130.159H186.772H188.026H191.074H198.961H228.761V111.85H226.854V88.3746H235.332Z" fill="#0C0414"/>
<path d="M190.317 109.812H203.242H216.167V97.4923L218.935 95.8598V92.9697H214.561V84.5067C214.561 79.2357 207.098 77.6762 207.098 77.6762H207.129C207.118 76.9693 207.108 76.2726 207.098 75.5968H209.959V73.2681H207.025C206.994 72.5404 206.963 71.8438 206.932 71.1679H208.85V69.1406H206.808C206.766 68.5377 206.725 67.9555 206.673 67.4043H208.476V65.2316H206.466C206.393 64.5142 206.321 63.8697 206.248 63.2769H207.678V61.6966H206.03C205.927 60.9376 205.823 60.3452 205.761 59.9398H207.118V58.6504H204.507V57.0701L203.242 43.4192L201.978 57.0701V58.6504H199.366V59.9398H200.723C200.651 60.3346 200.558 60.9376 200.454 61.6966H198.806V63.2769H200.236C200.164 63.8697 200.091 64.5142 200.019 65.2316H198.008V67.4043H199.812C199.77 67.9555 199.718 68.5377 199.677 69.1406H197.583V71.1679H199.552C199.511 71.8438 199.48 72.5404 199.459 73.2681H196.474V75.5968H199.387C199.376 76.2726 199.355 76.9587 199.355 77.6762C199.355 77.6762 191.893 79.2357 191.893 84.5067V92.9697H187.539V95.8598L190.307 97.4923V109.812H190.317Z" fill="#D79904"/>
<path d="M245.624 115.187H244.556C244.546 115.146 244.526 115.115 244.515 115.073V115.062C244.494 115.021 244.474 114.979 244.453 114.928C244.432 114.886 244.401 114.834 244.381 114.792L244.37 114.782C244.349 114.74 244.318 114.709 244.298 114.668C244.287 114.657 244.277 114.636 244.266 114.626C244.246 114.595 244.225 114.563 244.194 114.543C244.184 114.522 244.163 114.512 244.152 114.501C244.132 114.47 244.101 114.449 244.08 114.428C244.069 114.418 244.049 114.397 244.028 114.387C243.997 114.356 243.966 114.335 243.935 114.314C243.924 114.303 243.904 114.293 243.893 114.283C243.842 114.252 243.79 114.22 243.738 114.189H242.639C242.629 114.127 242.598 114.054 242.577 113.971C242.566 113.95 242.566 113.929 242.556 113.919C242.546 113.898 242.546 113.888 242.536 113.867C242.525 113.846 242.515 113.815 242.504 113.794C242.494 113.784 242.494 113.763 242.484 113.753C242.463 113.721 242.453 113.69 242.432 113.649C242.432 113.638 242.421 113.638 242.421 113.628C242.401 113.586 242.37 113.545 242.339 113.503C242.328 113.493 242.328 113.482 242.318 113.482C242.297 113.451 242.266 113.42 242.245 113.389C242.235 113.378 242.224 113.368 242.214 113.357C242.183 113.326 242.162 113.295 242.131 113.274C242.121 113.264 242.111 113.254 242.1 113.243C242.059 113.212 242.017 113.17 241.976 113.139C241.924 113.108 241.882 113.077 241.82 113.056C241.81 113.046 241.789 113.046 241.779 113.035C241.737 113.014 241.696 113.004 241.654 112.983C241.634 112.973 241.613 112.973 241.592 112.962C241.551 112.952 241.499 112.941 241.457 112.931C241.437 112.931 241.416 112.921 241.395 112.921C241.323 112.91 241.26 112.91 241.178 112.91C239.861 112.91 236.078 112.91 236.078 112.91C236.078 112.91 236.451 99.5509 236.451 95.8704C236.451 92.6576 234.586 91.0357 232.73 90.6719C232.606 90.6512 232.482 90.6304 232.357 90.6202C232.347 90.6202 232.336 90.6202 232.326 90.6202C232.191 90.6096 232.056 90.5994 231.922 90.5994C231.922 90.5994 231.922 90.5994 231.922 90.5888C231.922 90.5888 231.922 90.5786 231.922 90.568C231.922 90.5579 231.922 90.5579 231.922 90.5473C231.922 90.5371 231.922 90.5265 231.922 90.5057C231.922 90.4951 231.922 90.4951 231.922 90.4849C231.922 90.4642 231.922 90.4434 231.922 90.4226C231.922 90.412 231.922 90.412 231.922 90.4018C231.922 90.3811 231.922 90.3497 231.922 90.3289V90.3187C231.922 90.1313 231.901 89.8612 231.787 89.6322C231.787 89.6322 231.787 89.6322 231.787 89.6221C231.766 89.5805 231.746 89.5491 231.725 89.5076C231.559 89.2583 231.279 89.0708 230.782 89.0708C230.782 89.0708 230.979 88.2809 230.657 88.0311C230.626 88.0104 230.595 87.9896 230.564 87.9794C230.554 87.9794 230.554 87.9794 230.543 87.9688C230.502 87.9586 230.46 87.948 230.408 87.948C229.745 87.948 229.092 87.948 229.092 87.948C229.092 87.948 229.092 87.2204 229.092 86.503C229.092 86.1807 229.092 85.8686 229.092 85.6193C229.092 84.8188 229.185 84.1743 228.242 84.1743C228.242 84.1743 228.232 83.9974 228.222 83.7167C228.19 83.1447 228.149 82.1572 228.149 81.4504C228.149 80.4107 228.149 80.1715 227.299 80.1715C227.299 80.1715 227.372 79.2048 226.822 78.4767V78.1752C226.77 78.2168 226.729 78.2583 226.677 78.3105C226.636 78.2689 226.584 78.2168 226.532 78.1752V78.4767C225.993 79.2048 226.066 80.1715 226.066 80.1715C225.216 80.1715 225.216 80.4107 225.216 81.4504C225.216 82.147 225.174 83.124 225.143 83.696C225.133 83.9767 225.122 84.1637 225.122 84.1743C224.179 84.1743 224.273 84.8188 224.273 85.6193C224.273 85.8686 224.273 86.1807 224.273 86.503C224.273 87.2204 224.273 87.948 224.273 87.948C224.273 87.948 223.609 87.948 222.956 87.948C222.904 87.948 222.863 87.9586 222.822 87.9688C222.811 87.9688 222.811 87.9688 222.801 87.9794C222.759 87.9896 222.728 88.0104 222.707 88.0311C222.386 88.2809 222.583 89.0708 222.583 89.0708C222.085 89.0708 221.795 89.2583 221.64 89.5076C221.619 89.539 221.598 89.5805 221.578 89.6221C221.578 89.6221 221.578 89.6221 221.578 89.6322C221.464 89.8714 221.443 90.1313 221.443 90.3187V90.3289C221.443 90.3603 221.443 90.3811 221.443 90.4018C221.443 90.412 221.443 90.412 221.443 90.4226C221.443 90.4434 221.443 90.4642 221.443 90.4849C221.443 90.4951 221.443 90.4951 221.443 90.5057C221.443 90.5163 221.443 90.5371 221.443 90.5473C221.443 90.5579 221.443 90.5579 221.443 90.568C221.443 90.5786 221.443 90.5787 221.443 90.5888C221.443 90.5994 221.443 90.5994 221.443 90.5994C221.339 90.5994 221.236 90.6096 221.132 90.6096C221.08 90.6096 221.029 90.6202 220.976 90.6202C220.976 90.6202 220.976 90.6202 220.966 90.6202C219.007 90.8488 216.914 92.4706 216.914 95.8704C216.914 99.5509 217.286 112.91 217.286 112.91C217.286 112.91 213.514 112.91 212.187 112.91C211.14 112.91 210.809 113.815 210.715 114.189H209.617C209.14 114.439 208.901 114.896 208.787 115.229H207.72C206.828 115.697 206.683 116.83 206.683 116.83H226.532H246.671C246.661 116.789 246.516 115.655 245.624 115.187Z" fill="#D79904"/>
<path d="M123.059 108.991C120.147 108.991 118.467 108.991 118.467 108.991C118.467 108.991 121.38 107.92 121.38 106.839C121.38 105.768 121.38 104.687 121.38 104.687H117.4V104.5V102.545H119.701V102.431V101.006H116.021V100.934V99.4364V99.3219H118.012V98.0952V98.0851H113.565V96.827V96.7023H115.71C115.71 96.7023 115.42 94.9969 112.539 94.8723H112.549C112.435 94.8621 112.321 94.8621 112.186 94.8621C112.186 94.8621 112.186 94.8515 112.186 94.8307C112.186 94.8205 112.186 94.8099 112.186 94.7891C112.186 94.7785 112.186 94.7578 112.186 94.737C112.186 94.7162 112.186 94.6853 112.186 94.6645C112.186 94.6437 112.186 94.6229 112.186 94.6022C112.186 94.5292 112.186 94.4461 112.186 94.3524C112.186 94.3422 112.186 94.3215 112.186 94.3109C112.186 94.2591 112.186 94.2171 112.176 94.1654C112.176 94.134 112.176 94.1031 112.166 94.0717C112.166 94.02 112.155 93.9678 112.155 93.9157C112.155 93.8741 112.145 93.8326 112.134 93.791C112.124 93.7393 112.124 93.6871 112.114 93.6248C111.917 92.502 111.222 91.0361 108.952 91.0361V91.0149V89.0708V89.0399H111.73V88.593V88.1248V88.0939H114.176C114.176 88.0939 114.633 85.0265 112.487 83.1761C110.341 81.3359 108.196 77.4892 108.196 70.274C108.196 63.2561 105.584 60.4491 101.355 60.3036C101.231 60.3036 101.117 60.293 100.992 60.293V58.1411H104.06C104.06 58.1411 104.672 54.1486 102.526 54.1486C100.381 54.1486 100.08 54.1486 100.08 54.1486V54.0239V52.6306V52.6204H102.526C102.526 52.6204 102.526 51.0816 102.526 49.8549C102.526 48.6283 101.469 48.7737 100.857 48.7737V48.3891V46.9958V46.9334H101.925L97.7791 24.5183L97.6341 23.7386L93.3429 46.9334H94.421V46.9958V48.3891V48.7737C93.8092 48.7737 92.7315 48.6177 92.7315 49.8443C92.7315 51.0715 92.7315 52.6098 92.7315 52.6098H95.1773V52.6412V54.0345V54.1592C95.1773 54.1592 94.8666 54.1592 92.7315 54.1592C90.5859 54.1592 91.1972 58.1513 91.1972 58.1513H94.2654V60.3036C94.1411 60.3036 94.0269 60.3138 93.9026 60.3138C89.6735 60.4592 87.0615 63.2667 87.0615 70.2842C87.0615 77.4998 84.9163 81.3465 82.7707 83.1867C80.6251 85.0265 81.0813 88.1041 81.0813 88.1041H83.5275V88.1354V88.6031V89.0293H86.2845V89.0606V91.0048V91.0256C84.0145 91.0256 83.3199 92.4914 83.1229 93.6142C83.1127 93.6765 83.1022 93.7287 83.1022 93.7808C83.092 93.8224 83.092 93.8639 83.0814 93.9055C83.0713 93.9572 83.0713 94.02 83.0607 94.0717C83.0607 94.1031 83.0607 94.134 83.0506 94.1654C83.0506 94.2171 83.04 94.2693 83.04 94.3109C83.04 94.3215 83.04 94.3316 83.04 94.3422C83.04 94.4461 83.04 94.5292 83.04 94.6123C83.04 94.6331 83.04 94.6539 83.04 94.6645C83.04 94.6954 83.04 94.7162 83.04 94.7476C83.04 94.7684 83.04 94.7785 83.04 94.7998C83.04 94.8205 83.04 94.8307 83.04 94.8413C83.04 94.8621 83.04 94.8723 83.04 94.8723C82.9157 94.8723 82.8016 94.8829 82.6773 94.8829H82.6878C79.8061 95.0177 79.5161 96.7125 79.5161 96.7125H81.6617V96.8372V98.0952H77.2149V98.1058V99.3325H79.2049V99.447V100.944V101.017H75.5254V102.441V102.555H77.8267V104.51V104.697H73.8981C73.8981 104.697 73.8981 105.768 73.8981 106.849C73.8981 107.92 76.8107 109.001 76.8107 109.001C76.8107 109.001 75.1213 109.001 72.2193 109.001C69.3067 109.001 67.4718 112.068 67.4718 112.068H97.6341H97.7791H108.528H127.806C127.806 112.068 125.972 108.991 123.059 108.991Z" fill="#D79904"/>
<path d="M140.793 109.729C138.71 109.729 137.508 109.729 137.508 109.729C137.508 109.729 139.591 108.96 139.591 108.19C139.591 107.421 139.591 106.652 139.591 106.652H136.751V106.517V105.113H138.389V105.03V104.011H135.766V103.959V102.888V102.805H137.186V101.932H134.015V101.038V100.944H135.549C135.549 100.944 135.341 99.7277 133.279 99.634H133.289C133.206 99.634 133.124 99.6234 133.03 99.6234C133.03 99.6234 133.03 99.6132 133.03 99.6026C133.03 99.5925 133.03 99.5925 133.03 99.5717C133.03 99.5611 133.03 99.5509 133.03 99.5301C133.03 99.5094 133.03 99.4988 133.03 99.478C133.03 99.4678 133.03 99.447 133.03 99.4364C133.03 99.3847 133.03 99.3219 133.03 99.2596C133.03 99.2494 133.03 99.2388 133.03 99.2287C133.03 99.1973 133.03 99.1557 133.02 99.1248C133.02 99.1036 133.02 99.0828 133.02 99.0518C133.02 99.0103 133.009 98.9789 133.009 98.9374C133.009 98.9064 132.999 98.875 132.999 98.8543C132.989 98.8127 132.989 98.7813 132.978 98.7398C132.833 97.9392 132.346 96.8893 130.719 96.8893V96.8686V95.4752V95.4545H132.688V95.1428V94.81V94.7892H134.44C134.44 94.7892 134.772 92.5953 133.237 91.2753C131.703 89.9549 130.17 87.2098 130.17 82.0533C130.17 77.0317 128.304 75.0354 125.277 74.9315C125.194 74.9315 125.111 74.9213 125.018 74.9213V73.3825H127.205C127.205 73.3825 127.64 70.534 126.106 70.534C124.572 70.534 124.355 70.534 124.355 70.534V70.4505V69.4629V69.4421H126.106C126.106 69.4421 126.106 68.3401 126.106 67.4666C126.106 66.5936 125.339 66.6975 124.904 66.6975V66.4168V65.4186V65.3771H125.671L122.707 49.3559L122.603 48.7945L119.535 65.3669H120.302V65.4084V66.4066V66.6873C119.867 66.6873 119.1 66.5728 119.1 67.4564C119.1 68.3299 119.1 69.432 119.1 69.432H120.851V69.4527V70.4505V70.534C120.851 70.534 120.634 70.534 119.1 70.534C117.565 70.534 118.001 73.3825 118.001 73.3825H120.188V74.9213C120.095 74.9213 120.012 74.9315 119.929 74.9315C116.913 75.0354 115.037 77.0423 115.037 82.0533C115.037 87.2098 113.502 89.9549 111.969 91.2753C110.434 92.5953 110.766 94.7892 110.766 94.7892H112.559V94.81V95.1428V95.4545H114.529V95.4752V96.8686V96.8893C112.901 96.8893 112.414 97.9392 112.269 98.7398C112.259 98.7813 112.259 98.8229 112.249 98.8543C112.249 98.8856 112.238 98.9166 112.238 98.9374C112.238 98.9789 112.228 99.0205 112.228 99.0518C112.228 99.0726 112.228 99.0934 112.228 99.1248C112.228 99.1663 112.228 99.1973 112.217 99.2287C112.217 99.2388 112.217 99.2388 112.217 99.2494C112.217 99.3219 112.217 99.3847 112.217 99.4364C112.217 99.447 112.217 99.4678 112.217 99.478C112.217 99.4988 112.217 99.5195 112.217 99.5403C112.217 99.5509 112.217 99.5611 112.217 99.5717C112.217 99.5819 112.217 99.5925 112.217 99.6026C112.217 99.6132 112.217 99.6234 112.217 99.6234C112.124 99.6234 112.041 99.6234 111.958 99.634H111.969C109.906 99.7277 109.699 100.944 109.699 100.944H111.233V101.038V101.932H108.061V102.805H109.481V102.888V103.959V104.011H106.859V105.03V105.113H108.496V106.517V106.652H105.656C105.656 106.652 105.656 107.421 105.656 108.19C105.656 108.96 107.74 109.729 107.74 109.729C107.74 109.729 106.538 109.729 104.454 109.729C102.371 109.729 101.065 111.923 101.065 111.923H122.624H122.727H130.408H144.183C144.183 111.923 142.867 109.729 140.793 109.729Z" fill="#D79904"/>
<path d="M246.319 114.699H163.679C162.56 112.703 160.29 111.341 157.667 111.341H67.1091C63.378 111.341 60.3513 114.106 60.3513 117.527C60.3513 120.937 63.378 123.713 67.1091 123.713H88.3367C89.197 123.713 89.8912 124.347 89.8912 125.137C89.8912 125.917 89.197 126.561 88.3367 126.561H81.2263C76.3651 126.561 72.4264 130.169 72.4264 134.608C72.4264 139.058 76.3651 142.655 81.2263 142.655H114.228C115.213 142.655 116.011 143.383 116.011 144.287C116.011 145.192 115.213 145.92 114.228 145.92H109.17C103.376 145.92 98.6809 150.214 98.6809 155.516C98.6809 160.818 103.376 165.112 109.17 165.112H204.32C210.114 165.112 214.809 160.818 214.809 155.516C214.809 150.214 210.114 145.92 204.32 145.92H202.32C201.107 145.92 200.122 145.015 200.122 143.913C200.122 142.801 201.107 141.907 202.32 141.907H232.575C235.332 141.907 237.571 139.859 237.571 137.342C237.571 134.816 235.332 132.778 232.575 132.778H226.677C224.957 132.778 223.568 131.51 223.568 129.94C223.568 128.37 224.957 127.102 226.677 127.102H246.329C250.061 127.102 253.087 124.337 253.087 120.916C253.077 117.464 250.05 114.699 246.319 114.699Z" fill="#D79904"/>
<path d="M169.121 162.055H144.307C142.939 162.055 141.83 160.943 141.83 159.57C141.83 158.198 142.939 157.086 144.307 157.086H169.121C170.489 157.086 171.598 158.198 171.598 159.57C171.598 160.943 170.489 162.055 169.121 162.055Z" fill="#715298"/>
<path d="M192.038 150.37H167.224C165.856 150.37 164.747 149.257 164.747 147.885C164.747 146.512 165.856 145.4 167.224 145.4H192.038C193.406 145.4 194.515 146.512 194.515 147.885C194.525 149.257 193.416 150.37 192.038 150.37Z" fill="#715298"/>
<path d="M208.311 135.679H180.968C179.6 135.679 178.49 134.567 178.49 133.194C178.49 131.822 179.6 130.71 180.968 130.71H208.311C209.679 130.71 210.788 131.822 210.788 133.194C210.788 134.567 209.679 135.679 208.311 135.679Z" fill="#715298"/>
<path d="M132.574 135.679H105.232C103.863 135.679 102.754 134.567 102.754 133.194C102.754 131.822 103.863 130.71 105.232 130.71H132.574C133.942 130.71 135.051 131.822 135.051 133.194C135.062 134.567 133.953 135.679 132.574 135.679Z" fill="#715298"/>
<path d="M111.657 122.465H88.3988C87.2378 122.465 86.2946 121.519 86.2946 120.355C86.2946 119.19 87.2378 118.244 88.3988 118.244H111.657C112.818 118.244 113.762 119.19 113.762 120.355C113.772 121.519 112.829 122.465 111.657 122.465Z" fill="#715298"/>
<path d="M163.783 122.465H140.524C139.363 122.465 138.42 121.519 138.42 120.355C138.42 119.19 139.363 118.244 140.524 118.244H163.783C164.944 118.244 165.887 119.19 165.887 120.355C165.897 121.519 164.944 122.465 163.783 122.465Z" fill="#715298"/>
<path d="M224.563 122.465H201.304C200.143 122.465 199.2 121.519 199.2 120.355C199.2 119.19 200.143 118.244 201.304 118.244H224.563C225.724 118.244 226.667 119.19 226.667 120.355C226.677 121.519 225.724 122.465 224.563 122.465Z" fill="#715298"/>
<path d="M145.126 150.37H120.312C118.944 150.37 117.835 149.257 117.835 147.885C117.835 146.512 118.944 145.4 120.312 145.4H145.126C146.494 145.4 147.603 146.512 147.603 147.885C147.603 149.257 146.494 150.37 145.126 150.37Z" fill="#715298"/>
<path d="M130.636 114.459C129.921 114.459 129.216 114.21 128.667 113.742L125.754 111.299C125.319 110.935 125.256 110.29 125.619 109.844L127.495 107.536C127.796 106.257 127.381 101.266 127.174 99.1142C127.122 98.5112 126.708 97.9914 126.127 97.8044L121.515 96.2864C121.152 96.1719 120.903 95.839 120.872 95.4651L120.665 92.5122C120.654 92.3773 120.758 92.2523 120.893 92.2315C122.935 91.9715 122.935 88.52 122.935 88.52C123.557 88.52 123.525 88.0417 123.525 88.0417V87.5634C123.525 86.9083 122.873 86.9083 122.873 86.9083C122.873 81.8036 119.307 81.6272 119.307 81.6272H118.509C118.509 81.6272 114.943 81.8036 114.943 86.9083C114.943 86.9083 114.291 86.9083 114.291 87.5634V88.0417C114.291 88.0417 114.259 88.52 114.881 88.52C114.881 88.52 114.881 91.9715 116.923 92.2315C117.058 92.2523 117.162 92.3773 117.151 92.5122L116.944 95.4651C116.913 95.839 116.664 96.1719 116.301 96.2864L111.689 97.8044C111.108 97.9914 110.704 98.5112 110.642 99.1142C110.445 101.266 110.02 106.267 110.321 107.536L112.197 109.844C112.559 110.28 112.497 110.935 112.062 111.299L109.15 113.742C108.6 114.21 107.895 114.459 107.18 114.459C106.32 114.459 105.615 115.156 105.615 116.03V116.373C105.615 117.422 106.465 118.285 107.522 118.285H117.379H118.499H119.297H120.053H130.605C131.465 118.285 132.17 117.589 132.17 116.716V116.03C132.191 115.167 131.496 114.459 130.636 114.459Z" fill="#795B8A"/>
<path d="M156.051 114.459C155.335 114.459 154.631 114.21 154.081 113.742L151.169 111.299C150.733 110.935 150.671 110.29 151.034 109.844L152.91 107.536C153.211 106.257 152.796 101.266 152.589 99.1142C152.537 98.5112 152.123 97.9914 151.542 97.8044L146.93 96.2864C146.567 96.1719 146.318 95.839 146.287 95.4651L146.08 92.5122C146.069 92.3773 146.173 92.2523 146.308 92.2315C148.35 91.9715 148.35 88.52 148.35 88.52C148.972 88.52 148.94 88.0417 148.94 88.0417V87.5634C148.94 86.9083 148.288 86.9083 148.288 86.9083C148.288 81.8036 144.722 81.6272 144.722 81.6272H143.924C143.924 81.6272 140.358 81.8036 140.358 86.9083C140.358 86.9083 139.705 86.9083 139.705 87.5634V88.0417C139.705 88.0417 139.674 88.52 140.296 88.52C140.296 88.52 140.296 91.9715 142.338 92.2315C142.473 92.2523 142.576 92.3773 142.566 92.5122L142.359 95.4651C142.328 95.839 142.079 96.1719 141.716 96.2864L137.104 97.8044C136.523 97.9914 136.119 98.5112 136.057 99.1142C135.86 101.266 135.435 106.267 135.735 107.536L137.611 109.844C137.974 110.28 137.912 110.935 137.477 111.299L134.564 113.742C134.015 114.21 133.31 114.459 132.595 114.459C131.735 114.459 131.03 115.156 131.03 116.03V116.373C131.03 117.422 131.88 118.285 132.937 118.285H142.794H143.913H144.712H145.468H156.019C156.88 118.285 157.585 117.589 157.585 116.716V116.03C157.605 115.167 156.911 114.459 156.051 114.459Z" fill="#795B8A"/>
<path d="M181.455 114.459C180.74 114.459 180.035 114.21 179.486 113.742L176.573 111.299C176.138 110.935 176.076 110.29 176.439 109.844L178.315 107.536C178.615 106.257 178.2 101.266 177.993 99.1142C177.941 98.5112 177.527 97.9914 176.946 97.8044L172.334 96.2864C171.971 96.1719 171.722 95.839 171.691 95.4651L171.484 92.5122C171.474 92.3773 171.577 92.2523 171.712 92.2315C173.754 91.9715 173.754 88.52 173.754 88.52C174.376 88.52 174.345 88.0417 174.345 88.0417V87.5634C174.345 86.9083 173.692 86.9083 173.692 86.9083C173.692 81.8036 170.126 81.6272 170.126 81.6272H169.328C169.328 81.6272 165.762 81.8036 165.762 86.9083C165.762 86.9083 165.11 86.9083 165.11 87.5634V88.0417C165.11 88.0417 165.078 88.52 165.7 88.52C165.7 88.52 165.7 91.9715 167.742 92.2315C167.877 92.2523 167.981 92.3773 167.97 92.5122L167.763 95.4651C167.732 95.839 167.483 96.1719 167.12 96.2864L162.508 97.8044C161.927 97.9914 161.523 98.5112 161.461 99.1142C161.264 101.266 160.839 106.267 161.14 107.536L163.016 109.844C163.379 110.28 163.317 110.935 162.881 111.299L159.969 113.742C159.419 114.21 158.715 114.459 157.999 114.459C157.139 114.459 156.434 115.156 156.434 116.03V116.373C156.434 117.422 157.284 118.285 158.341 118.285H168.199H169.318H170.116H170.873H181.424C182.285 118.285 182.989 117.589 182.989 116.716V116.03C183.02 115.167 182.326 114.459 181.455 114.459Z" fill="#795B8A"/>
<path d="M210.031 114.459C209.316 114.459 208.611 114.21 208.062 113.742L205.15 111.299C204.714 110.935 204.652 110.29 205.015 109.844L206.891 107.536C207.191 106.257 206.777 101.266 206.569 99.1142C206.518 98.5112 206.103 97.9914 205.522 97.8044L200.91 96.2864C200.547 96.1719 200.299 95.839 200.268 95.4651L200.06 92.5122C200.05 92.3773 200.154 92.2523 200.288 92.2315C202.33 91.9715 202.33 88.52 202.33 88.52C202.952 88.52 202.921 88.0417 202.921 88.0417V87.5634C202.921 86.9083 202.268 86.9083 202.268 86.9083C202.268 81.8036 198.703 81.6272 198.703 81.6272H197.904C197.904 81.6272 194.339 81.8036 194.339 86.9083C194.339 86.9083 193.686 86.9083 193.686 87.5634V88.0417C193.686 88.0417 193.654 88.52 194.276 88.52C194.276 88.52 194.276 91.9715 196.318 92.2315C196.453 92.2523 196.557 92.3773 196.546 92.5122L196.339 95.4651C196.308 95.839 196.059 96.1719 195.697 96.2864L191.084 97.8044C190.504 97.9914 190.1 98.5112 190.037 99.1142C189.841 101.266 189.415 106.267 189.716 107.536L191.592 109.844C191.955 110.28 191.893 110.935 191.457 111.299L188.545 113.742C187.996 114.21 187.291 114.459 186.575 114.459C185.715 114.459 185.01 115.156 185.01 116.03V116.373C185.01 117.422 185.86 118.285 186.917 118.285H196.775H197.894H198.692H199.449H210C210.861 118.285 211.565 117.589 211.565 116.716V116.03C211.586 115.167 210.891 114.459 210.031 114.459Z" fill="#795B8A"/>
<path d="M114.456 116.726C113.689 116.726 112.953 116.456 112.363 115.967L109.274 113.368C108.807 112.983 108.745 112.297 109.129 111.829L111.129 109.375C111.45 108.024 111.005 102.712 110.787 100.424C110.725 99.7795 110.289 99.2287 109.678 99.0311L104.775 97.4194C104.392 97.2947 104.122 96.9517 104.091 96.5463L103.874 93.4064C103.863 93.261 103.967 93.1257 104.112 93.105C106.278 92.8344 106.278 89.1544 106.278 89.1544C106.942 89.1544 106.91 88.6447 106.91 88.6447V88.1354C106.91 87.4388 106.216 87.4388 106.216 87.4388C106.216 82.0219 102.423 81.8248 102.423 81.8248H101.573C101.573 81.8248 97.7791 82.0118 97.7791 87.4388C97.7791 87.4388 97.0845 87.4388 97.0845 88.1354V88.6447C97.0845 88.6447 97.0536 89.1544 97.717 89.1544C97.717 89.1544 97.717 92.8243 99.8829 93.105C100.028 93.1257 100.132 93.2504 100.121 93.4064L99.9036 96.5463C99.8728 96.9517 99.6035 97.2947 99.2196 97.4194L94.317 99.0311C93.7056 99.2287 93.2701 99.7795 93.208 100.424C92.9903 102.712 92.5446 108.024 92.866 109.375L94.8666 111.829C95.25 112.297 95.1773 112.983 94.7216 113.368L91.6327 115.967C91.0416 116.456 90.306 116.726 89.5391 116.726C88.6267 116.726 87.8805 117.475 87.8805 118.39V118.753C87.8805 119.876 88.7823 120.781 89.9018 120.781H100.381H101.562H102.412H103.221H114.436C115.348 120.781 116.094 120.032 116.094 119.117V118.39C116.114 117.475 115.379 116.726 114.456 116.726Z" fill="#4B3567"/>
<path d="M141.467 116.726C140.7 116.726 139.964 116.456 139.374 115.967L136.285 113.368C135.818 112.983 135.756 112.297 136.14 111.829L138.14 109.375C138.461 108.024 138.016 102.712 137.798 100.424C137.736 99.7795 137.301 99.2287 136.689 99.0311L131.786 97.4194C131.403 97.2947 131.133 96.9517 131.102 96.5463L130.884 93.4064C130.874 93.261 130.978 93.1257 131.123 93.105C133.289 92.8344 133.289 89.1544 133.289 89.1544C133.953 89.1544 133.921 88.6447 133.921 88.6447V88.1354C133.921 87.4388 133.227 87.4388 133.227 87.4388C133.227 82.0219 129.433 81.8248 129.433 81.8248H128.584C128.584 81.8248 124.79 82.0118 124.79 87.4388C124.79 87.4388 124.095 87.4388 124.095 88.1354V88.6447C124.095 88.6447 124.065 89.1544 124.728 89.1544C124.728 89.1544 124.728 92.8243 126.894 93.105C127.039 93.1257 127.143 93.2504 127.133 93.4064L126.915 96.5463C126.884 96.9517 126.614 97.2947 126.231 97.4194L121.328 99.0311C120.716 99.2287 120.281 99.7795 120.219 100.424C120.002 102.712 119.556 108.024 119.877 109.375L121.877 111.829C122.261 112.297 122.189 112.983 121.732 113.368L118.644 115.967C118.053 116.456 117.317 116.726 116.55 116.726C115.638 116.726 114.891 117.475 114.891 118.39V118.753C114.891 119.876 115.793 120.781 116.913 120.781H127.391H128.573H129.423H130.232H141.446C142.358 120.781 143.105 120.032 143.105 119.117V118.39C143.126 117.475 142.379 116.726 141.467 116.726Z" fill="#4B3567"/>
<path d="M168.478 116.726C167.711 116.726 166.975 116.456 166.384 115.967L163.296 113.368C162.829 112.983 162.767 112.297 163.151 111.829L165.151 109.375C165.472 108.024 165.027 102.712 164.809 100.424C164.747 99.7795 164.312 99.2287 163.7 99.0311L158.798 97.4194C158.414 97.2947 158.144 96.9517 158.113 96.5463L157.896 93.4064C157.885 93.261 157.989 93.1257 158.134 93.105C160.3 92.8344 160.3 89.1544 160.3 89.1544C160.963 89.1544 160.933 88.6447 160.933 88.6447V88.1354C160.933 87.4388 160.238 87.4388 160.238 87.4388C160.238 82.0219 156.444 81.8248 156.444 81.8248H155.595C155.595 81.8248 151.801 82.0118 151.801 87.4388C151.801 87.4388 151.107 87.4388 151.107 88.1354V88.6447C151.107 88.6447 151.075 89.1544 151.739 89.1544C151.739 89.1544 151.739 92.8243 153.905 93.105C154.05 93.1257 154.154 93.2504 154.144 93.4064L153.926 96.5463C153.895 96.9517 153.625 97.2947 153.242 97.4194L148.339 99.0311C147.728 99.2287 147.292 99.7795 147.23 100.424C147.012 102.712 146.567 108.024 146.888 109.375L148.888 111.829C149.272 112.297 149.199 112.983 148.743 113.368L145.654 115.967C145.064 116.456 144.328 116.726 143.561 116.726C142.649 116.726 141.903 117.475 141.903 118.39V118.753C141.903 119.876 142.804 120.781 143.924 120.781H154.403H155.584H156.434H157.243H168.457C169.37 120.781 170.116 120.032 170.116 119.117V118.39C170.137 117.475 169.39 116.726 168.478 116.726Z" fill="#4B3567"/>
<path d="M195.479 116.726C194.712 116.726 193.976 116.456 193.385 115.967L190.296 113.368C189.83 112.983 189.768 112.297 190.151 111.829L192.151 109.375C192.473 108.024 192.027 102.712 191.809 100.424C191.747 99.7795 191.312 99.2287 190.7 99.0311L185.798 97.4194C185.414 97.2947 185.145 96.9517 185.114 96.5463L184.896 93.4064C184.886 93.261 184.989 93.1257 185.135 93.105C187.301 92.8344 187.301 89.1544 187.301 89.1544C187.964 89.1544 187.933 88.6447 187.933 88.6447V88.1354C187.933 87.4388 187.239 87.4388 187.239 87.4388C187.239 82.0219 183.445 81.8248 183.445 81.8248H182.595C182.595 81.8248 178.802 82.0118 178.802 87.4388C178.802 87.4388 178.107 87.4388 178.107 88.1354V88.6447C178.107 88.6447 178.076 89.1544 178.739 89.1544C178.739 89.1544 178.739 92.8243 180.906 93.105C181.051 93.1257 181.154 93.2504 181.144 93.4064L180.927 96.5463C180.895 96.9517 180.626 97.2947 180.242 97.4194L175.34 99.0311C174.728 99.2287 174.293 99.7795 174.23 100.424C174.013 102.712 173.567 108.024 173.888 109.375L175.889 111.829C176.273 112.297 176.2 112.983 175.744 113.368L172.655 115.967C172.065 116.456 171.328 116.726 170.562 116.726C169.649 116.726 168.903 117.475 168.903 118.39V118.753C168.903 119.876 169.805 120.781 170.924 120.781H181.403H182.585H183.435H184.243H195.479C196.391 120.781 197.137 120.032 197.137 119.117V118.39C197.137 117.475 196.401 116.726 195.479 116.726Z" fill="#4B3567"/>
<path d="M222.49 116.726C221.723 116.726 220.987 116.456 220.396 115.967L217.307 113.368C216.841 112.983 216.779 112.297 217.162 111.829L219.163 109.375C219.484 108.024 219.038 102.712 218.821 100.424C218.759 99.7795 218.323 99.2287 217.711 99.0311L212.809 97.4194C212.425 97.2947 212.156 96.9517 212.125 96.5463L211.907 93.4064C211.897 93.261 212 93.1257 212.145 93.105C214.312 92.8344 214.312 89.1544 214.312 89.1544C214.975 89.1544 214.944 88.6447 214.944 88.6447V88.1354C214.944 87.4388 214.25 87.4388 214.25 87.4388C214.25 82.0219 210.456 81.8248 210.456 81.8248H209.606C209.606 81.8248 205.812 82.0118 205.812 87.4388C205.812 87.4388 205.118 87.4388 205.118 88.1354V88.6447C205.118 88.6447 205.087 89.1544 205.75 89.1544C205.75 89.1544 205.75 92.8243 207.917 93.105C208.062 93.1257 208.165 93.2504 208.155 93.4064L207.937 96.5463C207.906 96.9517 207.637 97.2947 207.253 97.4194L202.351 99.0311C201.739 99.2287 201.304 99.7795 201.242 100.424C201.024 102.712 200.578 108.024 200.9 109.375L202.9 111.829C203.283 112.297 203.211 112.983 202.755 113.368L199.666 115.967C199.075 116.456 198.339 116.726 197.572 116.726C196.66 116.726 195.914 117.475 195.914 118.39V118.753C195.914 119.876 196.816 120.781 197.935 120.781H208.414H209.596H210.446H211.254H222.469C223.381 120.781 224.128 120.032 224.128 119.117V118.39C224.148 117.475 223.402 116.726 222.49 116.726Z" fill="#4B3567"/>
<path d="M206.258 128.495C205.377 128.495 204.517 128.183 203.843 127.611L200.267 124.607C199.739 124.16 199.656 123.359 200.102 122.829L202.413 119.991C202.786 118.421 202.268 112.287 202.019 109.646C201.947 108.898 201.449 108.273 200.734 108.034L195.064 106.163C194.618 106.018 194.308 105.622 194.276 105.155L194.028 101.526C194.017 101.36 194.142 101.204 194.308 101.183C196.816 100.861 196.816 96.6188 196.816 96.6188C197.583 96.6188 197.542 96.0367 197.542 96.0367V95.4545C197.542 94.6437 196.733 94.6437 196.733 94.6437C196.733 88.3746 192.348 88.1562 192.348 88.1562H191.364C191.364 88.1562 186.98 88.3746 186.98 94.6437C186.98 94.6437 186.171 94.6437 186.171 95.4545V96.0367C186.171 96.0367 186.13 96.6188 186.897 96.6188C186.897 96.6188 186.897 100.861 189.405 101.183C189.571 101.204 189.695 101.36 189.685 101.526L189.436 105.155C189.405 105.622 189.094 106.018 188.648 106.163L182.979 108.034C182.274 108.263 181.766 108.898 181.693 109.646C181.444 112.297 180.937 118.431 181.299 119.991L183.611 122.829C184.046 123.369 183.974 124.16 183.445 124.607L179.869 127.611C179.196 128.183 178.335 128.495 177.454 128.495C176.397 128.495 175.536 129.358 175.536 130.418V130.845C175.536 132.144 176.584 133.194 177.879 133.194H189.986H191.354H192.338H193.271H206.258C207.315 133.194 208.176 132.331 208.176 131.271V130.429C208.176 129.358 207.315 128.495 206.258 128.495Z" fill="#D79904"/>
<path d="M135.953 128.495C135.072 128.495 134.212 128.183 133.538 127.611L129.962 124.607C129.433 124.16 129.351 123.359 129.796 122.829L132.108 119.991C132.481 118.421 131.963 112.287 131.714 109.646C131.641 108.898 131.144 108.273 130.429 108.034L124.759 106.163C124.313 106.018 124.002 105.622 123.971 105.155L123.722 101.526C123.712 101.36 123.837 101.204 124.002 101.183C126.511 100.861 126.511 96.6188 126.511 96.6188C127.278 96.6188 127.236 96.0367 127.236 96.0367V95.4545C127.236 94.6437 126.428 94.6437 126.428 94.6437C126.428 88.3746 122.043 88.1562 122.043 88.1562H121.059C121.059 88.1562 116.674 88.3746 116.674 94.6437C116.674 94.6437 115.866 94.6437 115.866 95.4545V96.0367C115.866 96.0367 115.824 96.6188 116.591 96.6188C116.591 96.6188 116.591 100.861 119.1 101.183C119.265 101.204 119.39 101.36 119.38 101.526L119.131 105.155C119.1 105.622 118.789 106.018 118.343 106.163L112.673 108.034C111.969 108.263 111.461 108.898 111.388 109.646C111.14 112.297 110.631 118.431 110.994 119.991L113.305 122.829C113.741 123.369 113.669 124.16 113.14 124.607L109.564 127.611C108.89 128.183 108.03 128.495 107.149 128.495C106.091 128.495 105.232 129.358 105.232 130.418V130.845C105.232 132.144 106.278 133.194 107.574 133.194H119.68H121.048H122.033H122.966H135.932C136.989 133.194 137.85 132.331 137.85 131.271V130.429C137.871 129.358 137.01 128.495 135.953 128.495Z" fill="#D79904"/>
<path d="M189.903 88.8007C189.903 92.6788 184.813 97.0246 180.004 97.0246C175.195 97.0246 170.105 92.6788 170.105 88.8007C170.105 84.9226 175.205 82.9785 180.004 82.9785C184.813 82.9785 189.903 84.9226 189.903 88.8007Z" fill="#EBC4A8"/>
<path d="M180.004 82.9785C177.869 82.9785 175.868 83.3321 174.148 83.9351C174.055 84.2158 174.003 84.4342 174.003 84.4342C174.003 84.4342 179.206 83.7998 182.979 84.7878C186.752 85.7855 181.942 90.6096 181.942 90.6096C181.942 90.6096 189.022 85.5464 189.26 85.4217C189.405 85.3492 189.841 84.7458 190.006 84.2158C187.881 82.7292 183.528 82.9785 180.004 82.9785Z" fill="#D9B59C"/>
<path d="M182.564 83.5192L182.689 85.7338C182.689 85.7338 180.782 86.6904 180.242 85.7961C179.703 84.9019 180.004 83.883 180.004 83.883L182.564 83.5192Z" fill="#EBC4A8"/>
<path d="M171.774 85.2449C171.774 85.2449 173.982 83.8728 178.335 83.5191C182.689 83.1659 188.648 84.4134 188.648 84.4134L189.602 83.6336C189.602 83.6336 185.425 82.2611 180.18 82.147C174.936 82.0219 170.52 83.5713 170.52 83.5713L171.774 85.2449Z" fill="#CD6733"/>
<path d="M178.273 83.1031L177.921 85.9106C177.921 85.9106 178.988 86.9812 180.419 86.9812V84.7666L178.273 83.1031Z" fill="#EBC4A8"/>
<path d="M177.962 85.0058C178.719 85.3386 179.548 85.5154 180.429 85.5464V84.1844L178.283 82.5108L177.962 85.0058Z" fill="#D9B59C"/>
<path d="M171.567 83.28C171.567 83.28 182.035 91.3584 187.073 97.9914C189.695 98.8229 188.379 105.165 188.379 105.165C188.379 105.165 184.513 108.648 181.434 108.814C178.366 108.991 171.691 104.801 171.691 104.801C171.691 104.801 169.535 87.8132 169.535 85.4217C169.535 83.0409 171.567 83.28 171.567 83.28Z" fill="#CD6733"/>
<path d="M176.646 143.944H171.785L171.173 137.634H177.257L176.646 143.944Z" fill="#A87D50"/>
<path d="M171.785 143.944H175.962C174.013 143.238 172.51 142.291 171.557 141.595L171.785 143.944ZM171.225 138.216L171.505 141.044C173.277 142.136 175.298 142.832 176.718 143.238L176.926 141.127C174.241 140.326 172.272 139.016 171.225 138.216Z" fill="#8A5E3C"/>
<path d="M171.121 112.432C171.121 112.432 167.628 132.279 168.727 135.783C169.825 139.287 170.727 138.892 171.525 139.796C172.324 140.701 174.427 141.096 175.827 140.898C177.226 140.701 180.222 139.692 180.626 136.49C181.03 133.277 180.927 114.439 180.927 114.439L171.121 112.432Z" fill="#CD6733"/>
<path d="M177.931 113.826C178.905 114.896 179.952 117.007 179.952 121.186C179.952 129.005 180.75 136.76 178.283 139.224C175.816 141.699 172.22 139.89 171.619 137.623C171.018 135.346 171.422 134.348 171.422 134.348C171.422 134.348 170.427 135.69 170.893 137.956C170.893 137.956 169.857 137.582 169.059 136.74C170.012 139.224 170.81 138.985 171.525 139.796C172.324 140.701 174.427 141.096 175.827 140.898C177.226 140.701 180.222 139.692 180.626 136.49C181.03 133.277 180.927 114.439 180.927 114.439L177.931 113.826Z" fill="#A25125"/>
<path d="M168.924 147.074C168.924 147.074 168.716 147.635 169.028 148.301C169.338 148.966 173.018 149.528 177.06 148.716C177.06 148.716 177.371 147.791 177.475 146.565C177.568 145.327 168.924 147.074 168.924 147.074Z" fill="#8A5E3C"/>
<path d="M170.043 144.61C170.043 144.61 170.551 143.383 172.904 143.019C175.257 142.666 176.584 143.477 176.635 143.944C176.687 144.402 177.506 144.454 177.506 146.096C177.506 147.739 176.946 148.145 175.765 148.145C174.583 148.145 170.116 148.426 169.162 147.479C168.229 146.533 168.924 145.223 170.043 144.61Z" fill="#A87D50"/>
<path d="M176.646 143.924C176.594 143.83 176.542 143.737 176.48 143.643C176.055 143.206 174.822 142.728 172.914 143.009C170.562 143.372 170.054 144.6 170.054 144.6C169.691 144.797 169.37 145.067 169.141 145.379C169.473 145.92 170.417 146.7 172.707 146.679C175.775 146.637 176.625 146.18 176.625 145.41C176.625 144.641 172.562 144.059 172.562 144.059C172.562 144.059 175.516 143.716 177.009 144.943C177.009 144.943 176.967 144.62 176.791 144.194C176.719 144.111 176.667 144.028 176.656 143.924C176.646 143.934 176.646 143.934 176.646 143.924Z" fill="#C2B59B"/>
<path d="M183.984 143.944H188.845L189.457 137.634H183.373L183.984 143.944Z" fill="#A87D50"/>
<path d="M189.073 141.595C188.12 142.291 186.617 143.227 184.668 143.944H188.845L189.073 141.595ZM183.715 141.127L183.922 143.238C185.342 142.832 187.353 142.136 189.135 141.044L189.415 138.216C188.358 139.016 186.378 140.326 183.715 141.127Z" fill="#8A5E3C"/>
<path d="M189.509 112.432C189.509 112.432 193.002 132.279 191.903 135.783C190.804 139.287 189.903 138.892 189.104 139.796C188.306 140.701 186.202 141.096 184.803 140.898C183.404 140.701 180.408 139.692 180.004 136.49C179.6 133.277 179.703 114.439 179.703 114.439L189.509 112.432Z" fill="#CD6733"/>
<path d="M182.699 113.826C181.725 114.896 180.678 117.007 180.678 121.186C180.678 129.005 179.88 136.76 182.347 139.224C184.813 141.699 188.41 139.89 189.011 137.623C189.612 135.346 189.208 134.348 189.208 134.348C189.208 134.348 190.203 135.69 189.737 137.956C189.737 137.956 190.773 137.582 191.571 136.74C190.618 139.224 189.819 138.985 189.104 139.796C188.306 140.701 186.202 141.096 184.803 140.898C183.404 140.701 180.408 139.692 180.004 136.49C179.6 133.277 179.703 114.439 179.703 114.439L182.699 113.826Z" fill="#A25125"/>
<path d="M191.706 147.074C191.706 147.074 191.913 147.635 191.602 148.301C191.292 148.966 187.612 149.528 183.569 148.716C183.569 148.716 183.259 147.791 183.155 146.565C183.062 145.327 191.706 147.074 191.706 147.074Z" fill="#8A5E3C"/>
<path d="M190.587 144.61C190.587 144.61 190.079 143.383 187.726 143.019C185.373 142.666 184.046 143.477 183.995 143.944C183.943 144.402 183.124 144.454 183.124 146.096C183.124 147.739 183.684 148.145 184.865 148.145C186.047 148.145 190.514 148.426 191.467 147.479C192.401 146.533 191.706 145.223 190.587 144.61Z" fill="#A87D50"/>
<path d="M183.984 143.924C184.036 143.83 184.088 143.737 184.15 143.643C184.575 143.206 185.808 142.728 187.716 143.009C190.068 143.372 190.576 144.6 190.576 144.6C190.939 144.797 191.26 145.067 191.488 145.379C191.157 145.92 190.213 146.7 187.923 146.679C184.855 146.637 184.005 146.18 184.005 145.41C184.005 144.641 188.068 144.059 188.068 144.059C188.068 144.059 185.114 143.716 183.621 144.943C183.621 144.943 183.663 144.62 183.839 144.194C183.911 144.111 183.963 144.028 183.974 143.924C183.984 143.934 183.984 143.934 183.984 143.924Z" fill="#C2B59B"/>
<path d="M170.924 111.434C170.924 111.434 171.028 112.838 171.121 113.139C171.225 113.441 173.619 114.647 180.315 114.543C187.011 114.439 189.312 113.441 189.312 113.441C189.312 113.441 189.612 112.037 189.509 111.434C189.405 110.831 170.924 111.434 170.924 111.434Z" fill="#CA212F"/>
<path d="M190.11 110.134C190.058 109.552 189.664 108.887 189.27 108.336C189.394 102.306 190.856 87.2827 190.856 85.4217C190.856 83.0307 188.835 83.2698 188.835 83.2698C188.835 83.2698 175.951 97.1493 173.329 97.9808C171.691 98.5006 171.36 103.585 171.339 107.327C171.131 107.691 170.81 108.139 170.323 108.627C169.028 109.927 170.126 111.133 170.924 111.434C171.723 111.736 174.127 112.037 181.217 112.235C188.306 112.432 190.006 111.434 190.006 111.434C190.006 111.434 190.213 111.33 190.11 110.134Z" fill="#CD6733"/>
<path d="M173.256 100.019C175.91 99.1663 187.85 86.5653 190.379 83.852C189.778 83.1659 188.835 83.2698 188.835 83.2698C188.835 83.2698 175.951 97.1493 173.329 97.9808C172.013 98.3967 171.691 100.206 171.691 101.9C171.961 100.996 172.448 100.279 173.256 100.019Z" fill="#F69A2E"/>
<path d="M188.151 77.7597C188.151 78.539 187.519 79.1734 186.741 79.1734C185.964 79.1734 185.332 78.539 185.332 77.7597V76.335C185.332 75.5552 185.964 74.9213 186.741 74.9213C187.519 74.9213 188.151 75.5552 188.151 76.335V77.7597Z" fill="#D9B59C"/>
<path d="M174.998 77.7597C174.998 78.539 174.365 79.1734 173.588 79.1734C172.811 79.1734 172.179 78.539 172.179 77.7597V76.335C172.179 75.5552 172.811 74.9213 173.588 74.9213C174.365 74.9213 174.998 75.5552 174.998 76.335V77.7597Z" fill="#D9B59C"/>
<path d="M186.876 78.9758C186.876 82.7084 183.86 84.2989 180.139 84.2989C176.418 84.2989 173.401 82.7084 173.401 78.9758V71.6877C173.401 67.9555 176.418 64.9301 180.139 64.9301C183.86 64.9301 186.876 67.9555 186.876 71.6877V78.9758Z" fill="#EBC4A8"/>
<path d="M181.082 65.0026C184.119 65.6577 186.399 68.3609 186.399 71.6046V78.8927C186.399 82.6253 183.383 84.2158 179.662 84.2158C179.092 84.2158 178.542 84.1742 178.014 84.1013C178.688 84.2366 179.403 84.2989 180.139 84.2989C183.86 84.2989 186.876 82.7084 186.876 78.9758V71.6877C186.876 68.2778 184.357 65.4707 181.082 65.0026Z" fill="#D9B59C"/>
<path d="M178.014 79.0381C178.014 79.0381 179.061 79.87 180.139 79.87C181.217 79.87 182.036 79.0695 182.036 79.0695C182.036 79.0695 181.466 80.3691 180.035 80.3691C178.615 80.3585 178.014 79.0381 178.014 79.0381Z" fill="#D9B59C"/>
<path d="M170.759 83.5191C167.96 83.9559 165.11 92.4083 164.311 98.6257C163.513 104.843 174.718 105.799 176.791 103.325C178.854 100.851 177.185 99.2596 177.185 99.2596L171.308 96.9724C171.298 96.9724 171.65 82.677 170.759 83.5191Z" fill="#CD6733"/>
<path d="M176.781 103.325C178.843 100.851 177.174 99.2596 177.174 99.2596L171.298 96.9724C171.298 96.9724 170.572 91.7638 170.841 88.3224C170.707 87.2726 170.479 86.1078 170.054 85.4323C170.054 85.4323 171.764 92.3354 170.852 96.2033L170.893 96.484C170.893 96.484 167.193 95.652 165.69 98.7503C165.69 98.7503 167.12 96.4424 170.302 96.8372C170.302 96.8372 168.115 96.8372 167.089 98.3865C167.089 98.3865 168.478 97.0763 170.105 97.2739C171.733 97.4715 174.158 98.3136 175.07 98.7503C175.982 99.1871 175.63 99.9876 175.63 99.9876C175.63 99.9876 176.998 102.41 176.273 103.772C176.48 103.637 176.656 103.491 176.781 103.325Z" fill="#A25125"/>
<path d="M177.112 101.61C177.112 102.992 175.858 104.115 174.314 104.115C172.769 104.115 171.515 102.992 171.515 101.61C171.515 100.227 172.769 99.1036 174.314 99.1036C175.858 99.1036 177.112 100.227 177.112 101.61Z" fill="#A25125"/>
<path d="M170.966 101.526C170.966 99.9461 172.396 98.6566 174.168 98.6566C174.21 98.6566 174.252 98.6566 174.293 98.6672C174.137 98.6465 173.982 98.6359 173.816 98.6359C172.044 98.6359 170.614 99.9249 170.614 101.505C170.614 103.055 171.982 104.313 173.692 104.364C172.147 104.146 170.966 102.961 170.966 101.526Z" fill="#F69A2E"/>
<path d="M175.06 99.1248L177.776 99.3325C177.776 99.3325 178.657 93.9886 178.781 93.3026C178.895 92.6161 178.905 91.587 179.361 91.5556C179.807 91.5246 180.139 91.4623 180.139 93.105C180.139 94.7476 180.553 100.819 180.139 102.192C179.724 103.564 178.833 103.481 177.61 103.148C176.387 102.815 173.505 103.013 172.738 102.795C171.94 102.597 171.422 98.9789 175.06 99.1248Z" fill="#EBC4A8"/>
<path d="M179.506 95.9951C180.004 95.7975 180.16 96.3903 180.16 97.5652C180.16 98.4904 180.128 101.318 180.004 102.68C180.066 102.545 180.118 102.389 180.16 102.192C180.377 101.277 180.305 98.303 180.232 95.9222C180.118 95.7042 179.931 95.4858 179.652 95.4858C179.206 95.4858 178.822 96.1613 179.051 98.1368C179.04 98.1474 179.009 96.1927 179.506 95.9951Z" fill="#D9B59C"/>
<path d="M180.242 96.1096C180.201 94.8307 180.16 93.6973 180.16 93.1152C180.16 91.7222 179.973 91.556 179.693 91.556C179.993 91.8261 179.807 92.6475 179.807 92.6475C179.807 92.6475 179.247 92.7098 179.102 93.2818C178.957 93.864 179.05 96.4942 179.05 96.4942C179.05 96.4942 179.144 94.9554 179.196 94.1447C179.247 93.3233 179.403 93.0113 179.828 93.0736C180.263 93.1359 180.097 96.0473 180.097 96.0473L180.242 96.1096Z" fill="#D9B59C"/>
<path d="M169.795 96.0782C169.795 96.0782 167.649 95.839 166.136 97.2323C166.136 97.2323 167.089 95.2776 169.795 96.0782Z" fill="#A25125"/>
<path d="M165.825 100.258C165.825 100.258 166.82 99.1455 168.561 98.345C168.561 98.345 166.778 98.2614 165.825 100.258Z" fill="#A25125"/>
<path d="M189.581 83.5191C192.38 83.9559 195.23 92.4083 196.028 98.6257C196.826 104.843 185.622 105.799 183.549 103.325C181.486 100.851 183.155 99.2596 183.155 99.2596L189.032 96.9724C189.042 96.9724 188.69 82.677 189.581 83.5191Z" fill="#CD6733"/>
<path d="M183.559 103.325C181.496 100.851 183.165 99.2596 183.165 99.2596L189.042 96.9724C189.042 96.9724 189.768 91.7638 189.498 88.3224C189.633 87.2726 189.861 86.1078 190.286 85.4323C190.286 85.4323 188.565 92.3354 189.488 96.2033L189.446 96.484C189.446 96.484 193.136 95.652 194.65 98.7503C194.65 98.7503 193.219 96.4424 190.037 96.8372C190.037 96.8372 192.224 96.8372 193.25 98.3865C193.25 98.3865 191.861 97.0763 190.234 97.2739C188.607 97.4715 186.181 98.3136 185.269 98.7503C184.357 99.1871 184.71 99.9876 184.71 99.9876C184.71 99.9876 183.341 102.41 184.067 103.772C183.86 103.637 183.694 103.491 183.559 103.325Z" fill="#A25125"/>
<path d="M183.227 101.61C183.227 102.992 184.482 104.115 186.026 104.115C187.571 104.115 188.825 102.992 188.825 101.61C188.825 100.227 187.571 99.1036 186.026 99.1036C184.482 99.1036 183.227 100.227 183.227 101.61Z" fill="#A25125"/>
<path d="M189.374 101.526C189.374 99.9461 187.943 98.6566 186.171 98.6566C186.13 98.6566 186.088 98.6566 186.057 98.6672C186.213 98.6465 186.368 98.6359 186.534 98.6359C188.306 98.6359 189.737 99.9249 189.737 101.505C189.737 103.055 188.368 104.313 186.658 104.364C188.192 104.146 189.374 102.961 189.374 101.526Z" fill="#F69A2E"/>
<path d="M185.466 99.1248L182.512 99.3012C182.512 99.3012 181.714 93.6871 181.6 93.0011C181.486 92.3146 181.631 91.587 181.175 91.5556C180.73 91.5246 180.398 91.4623 180.398 93.105C180.398 94.7476 179.983 100.819 180.398 102.192C180.812 103.564 181.704 103.481 182.927 103.148C184.15 102.815 187.032 103.013 187.809 102.795C188.576 102.597 188.721 99.0205 185.466 99.1248Z" fill="#EBC4A8"/>
<path d="M180.999 95.9951C180.512 95.7975 180.357 96.3903 180.357 97.5652C180.357 98.4904 180.387 101.318 180.512 102.68C180.45 102.545 180.398 102.389 180.357 102.192C180.139 101.277 180.211 98.303 180.284 95.9222C180.398 95.7042 180.574 95.4858 180.854 95.4858C181.289 95.4858 181.663 96.1613 181.445 98.1368C181.445 98.1474 181.476 96.1927 180.999 95.9951Z" fill="#D9B59C"/>
<path d="M180.273 96.1096C180.315 94.8307 180.357 93.6973 180.357 93.1152C180.357 91.7222 180.543 91.556 180.812 91.556C180.522 91.8261 180.699 92.6475 180.699 92.6475C180.699 92.6475 181.248 92.7098 181.383 93.2818C181.528 93.864 181.434 96.4942 181.434 96.4942C181.434 96.4942 181.341 94.9554 181.289 94.1447C181.248 93.3233 181.082 93.0113 180.667 93.0736C180.242 93.1359 180.398 96.0473 180.398 96.0473L180.273 96.1096Z" fill="#D9B59C"/>
<path d="M190.545 96.0782C190.545 96.0782 192.691 95.839 194.204 97.2323C194.204 97.2323 193.25 95.2776 190.545 96.0782Z" fill="#A25125"/>
<path d="M194.525 100.258C194.525 100.258 193.53 99.1455 191.789 98.345C191.779 98.345 193.572 98.2614 194.525 100.258Z" fill="#A25125"/>
<path d="M178.874 93.8016C178.874 93.8016 177.941 99.1036 177.879 99.3847C177.817 99.6654 177.745 100.382 177.858 100.923C177.983 101.464 178.252 101.942 178.252 101.942C178.252 101.942 177.838 100.788 178.076 99.291C178.315 97.7836 178.874 93.8016 178.874 93.8016Z" fill="#FFEBC1"/>
<path d="M181.611 93.6871C181.611 93.6871 182.305 99.1036 182.367 99.3843C182.43 99.6654 182.502 100.382 182.388 100.923C182.274 101.464 181.994 101.942 181.994 101.942C181.994 101.942 182.409 100.788 182.17 99.291C181.932 97.7836 181.611 93.6871 181.611 93.6871Z" fill="#FFEBC1"/>
<path d="M174.044 99.5195C174.044 99.5195 177.724 99.6756 177.817 99.6963C177.921 99.7171 177.931 99.5195 177.931 99.5195H174.044Z" fill="#FFEBC1"/>
<path d="M182.263 99.5403L182.367 99.7171L185.808 99.4263L182.263 99.5403Z" fill="#FFEBC1"/>
<path d="M182.087 82.5418H177.962C177.962 82.5418 178.408 81.8663 179.506 81.8663C180.605 81.8663 181.206 81.762 181.579 81.9702C181.963 82.1678 182.087 82.5418 182.087 82.5418Z" fill="#EBC4A8"/>
<path d="M180.118 82.5418C178.045 82.5418 177.309 81.5334 177.278 81.4919C177.236 81.4296 177.247 81.3359 177.309 81.2943C177.371 81.2527 177.464 81.2629 177.506 81.3257C177.516 81.3359 178.211 82.2717 180.19 82.2509C182.181 82.2195 182.73 81.2214 182.74 81.2112C182.782 81.1383 182.865 81.1175 182.937 81.1489C183.01 81.1904 183.03 81.2735 182.999 81.3465C182.979 81.3982 182.357 82.5108 180.201 82.5418C180.18 82.5418 180.149 82.5418 180.118 82.5418Z" fill="#403B3C"/>
<path d="M184.14 76.3765H183.321C182.813 76.3765 182.378 76.0649 182.181 75.6281C182.201 76.2625 182.72 76.7615 183.352 76.7615H184.119C184.751 76.7615 185.259 76.2519 185.29 75.6281C185.093 76.0751 184.647 76.3765 184.14 76.3765Z" fill="#403B3C"/>
<path d="M177.236 76.3765H176.418C175.91 76.3765 175.474 76.0649 175.278 75.6281C175.298 76.2625 175.816 76.7615 176.449 76.7615H177.216C177.848 76.7615 178.356 76.2519 178.387 75.6281C178.18 76.0751 177.744 76.3765 177.236 76.3765Z" fill="#403B3C"/>
<path d="M142.991 88.4992C142.991 92.3773 137.902 96.7231 133.092 96.7231C128.283 96.7231 123.194 92.3773 123.194 88.4992C123.194 84.6212 128.293 82.677 133.092 82.677C137.891 82.677 142.991 84.6212 142.991 88.4992Z" fill="#FED19F"/>
<path d="M133.092 82.677C130.957 82.677 128.957 83.0307 127.236 83.6336C127.143 83.9143 127.091 84.1327 127.091 84.1327C127.091 84.1327 132.294 83.4984 136.067 84.4859C139.84 85.4841 135.031 90.3081 135.031 90.3081C135.031 90.3081 142.11 85.2449 142.348 85.1203C142.493 85.0473 142.929 84.4444 143.094 83.9143C140.97 82.4277 136.617 82.677 133.092 82.677Z" fill="#F5B17E"/>
<path d="M135.653 83.2177L135.777 85.4323C135.777 85.4323 133.87 86.3885 133.331 85.4946C132.792 84.6004 133.092 83.5815 133.092 83.5815L135.653 83.2177Z" fill="#FED19F"/>
<path d="M124.863 84.9434C124.863 84.9434 127.07 83.5713 131.423 83.2177C135.777 82.864 141.736 84.1119 141.736 84.1119L142.69 83.3322C142.69 83.3322 138.513 81.9596 133.269 81.8455C128.024 81.7204 123.608 83.2698 123.608 83.2698L124.863 84.9434Z" fill="#CD6733"/>
<path d="M131.361 82.8017L131.009 85.6087C131.009 85.6087 132.077 86.6798 133.507 86.6798V84.4651L131.361 82.8017Z" fill="#FED19F"/>
<path d="M131.04 84.6941C131.797 85.0265 132.626 85.2034 133.507 85.2347V83.8728L131.361 82.1988L131.04 84.6941Z" fill="#F5B17E"/>
<path d="M124.655 82.9684C124.655 82.9684 135.124 91.0464 140.161 97.6793C142.784 98.5112 141.467 104.853 141.467 104.853C141.467 104.853 137.601 108.336 134.523 108.502C131.455 108.679 124.78 104.489 124.78 104.489C124.78 104.489 122.624 87.5011 122.624 85.1101C122.624 82.7292 124.655 82.9684 124.655 82.9684Z" fill="#CD6733"/>
<path d="M129.734 143.632H124.873L124.262 137.322H130.346L129.734 143.632Z" fill="#A87D50"/>
<path d="M124.873 143.632H129.05C127.101 142.926 125.598 141.98 124.645 141.283L124.873 143.632ZM124.313 137.914L124.593 140.742C126.365 141.834 128.387 142.53 129.807 142.936L130.014 140.825C127.329 140.015 125.36 138.715 124.313 137.914Z" fill="#8A5E3C"/>
<path d="M124.21 112.131C124.21 112.131 120.716 131.978 121.815 135.482C122.914 138.985 123.816 138.59 124.614 139.495C125.412 140.399 127.516 140.794 128.915 140.597C130.315 140.399 133.31 139.391 133.714 136.189C134.118 132.976 134.015 114.137 134.015 114.137L124.21 112.131Z" fill="#CD6733"/>
<path d="M131.019 113.524C131.994 114.595 133.041 116.705 133.041 120.885C133.041 128.703 133.838 136.459 131.372 138.923C128.905 141.397 125.308 139.588 124.707 137.322C124.106 135.045 124.51 134.047 124.51 134.047C124.51 134.047 123.515 135.388 123.982 137.655C123.982 137.655 122.945 137.28 122.147 136.438C123.101 138.923 123.899 138.684 124.614 139.495C125.412 140.399 127.516 140.794 128.915 140.597C130.315 140.399 133.31 139.391 133.714 136.189C134.118 132.976 134.015 114.137 134.015 114.137L131.019 113.524Z" fill="#A25125"/>
<path d="M122.012 146.762C122.012 146.762 121.805 147.324 122.116 147.989C122.427 148.654 126.106 149.215 130.149 148.405C130.149 148.405 130.46 147.48 130.563 146.252C130.657 145.015 122.012 146.762 122.012 146.762Z" fill="#8A5E3C"/>
<path d="M123.132 144.298C123.132 144.298 123.64 143.071 125.992 142.707C128.345 142.354 129.672 143.165 129.724 143.632C129.775 144.09 130.594 144.142 130.594 145.785C130.594 147.427 130.035 147.833 128.853 147.833C127.672 147.833 123.204 148.113 122.251 147.167C121.318 146.221 122.012 144.922 123.132 144.298Z" fill="#A87D50"/>
<path d="M129.734 143.622C129.682 143.529 129.63 143.435 129.568 143.342C129.143 142.905 127.91 142.427 126.003 142.707C123.65 143.071 123.142 144.298 123.142 144.298C122.779 144.495 122.458 144.766 122.23 145.078C122.562 145.619 123.505 146.398 125.795 146.378C128.864 146.336 129.713 145.878 129.713 145.109C129.713 144.34 125.65 143.757 125.65 143.757C125.65 143.757 128.604 143.414 130.097 144.641C130.097 144.641 130.055 144.319 129.879 143.892C129.807 143.809 129.755 143.726 129.745 143.622C129.734 143.632 129.734 143.622 129.734 143.622Z" fill="#C2B59B"/>
<path d="M137.072 143.632H141.934L142.545 137.322H136.461L137.072 143.632Z" fill="#A87D50"/>
<path d="M142.162 141.293C141.208 141.99 139.705 142.926 137.756 143.643H141.934L142.162 141.293ZM136.793 140.825L137 142.936C138.42 142.53 140.431 141.834 142.213 140.742L142.493 137.914C141.446 138.715 139.467 140.015 136.793 140.825Z" fill="#8A5E3C"/>
<path d="M142.597 112.131C142.597 112.131 146.09 131.978 144.991 135.482C143.893 138.985 142.991 138.59 142.193 139.495C141.394 140.399 139.291 140.794 137.891 140.597C136.492 140.399 133.496 139.391 133.092 136.189C132.688 132.976 132.792 114.137 132.792 114.137L142.597 112.131Z" fill="#CD6733"/>
<path d="M135.787 113.524C134.813 114.595 133.766 116.705 133.766 120.885C133.766 128.703 132.968 136.459 135.435 138.923C137.902 141.397 141.498 139.588 142.099 137.322C142.7 135.045 142.296 134.047 142.296 134.047C142.296 134.047 143.291 135.388 142.825 137.655C142.825 137.655 143.861 137.28 144.66 136.438C143.706 138.923 142.908 138.684 142.193 139.495C141.394 140.399 139.291 140.794 137.891 140.597C136.492 140.399 133.496 139.391 133.092 136.189C132.688 132.976 132.792 114.137 132.792 114.137L135.787 113.524Z" fill="#A25125"/>
<path d="M144.794 146.762C144.794 146.762 145.002 147.324 144.69 147.989C144.38 148.654 140.7 149.215 136.658 148.405C136.658 148.405 136.347 147.48 136.243 146.252C136.15 145.015 144.794 146.762 144.794 146.762Z" fill="#8A5E3C"/>
<path d="M143.664 144.298C143.664 144.298 143.157 143.071 140.804 142.707C138.451 142.354 137.124 143.165 137.072 143.632C137.021 144.09 136.202 144.142 136.202 145.785C136.202 147.427 136.762 147.833 137.943 147.833C139.125 147.833 143.592 148.113 144.545 147.167C145.489 146.221 144.794 144.922 143.664 144.298Z" fill="#A87D50"/>
<path d="M137.072 143.622C137.124 143.529 137.176 143.435 137.238 143.342C137.663 142.905 138.897 142.427 140.804 142.707C143.157 143.071 143.664 144.298 143.664 144.298C144.027 144.495 144.348 144.766 144.577 145.078C144.245 145.619 143.302 146.398 141.011 146.378C137.943 146.336 137.093 145.878 137.093 145.109C137.093 144.34 141.156 143.757 141.156 143.757C141.156 143.757 138.202 143.414 136.71 144.641C136.71 144.641 136.751 144.319 136.927 143.892C137 143.809 137.052 143.726 137.062 143.622C137.072 143.632 137.072 143.622 137.072 143.622Z" fill="#C2B59B"/>
<path d="M124.013 111.133C124.013 111.133 124.117 112.536 124.21 112.838C124.313 113.139 126.708 114.345 133.403 114.241C140.099 114.137 142.4 113.139 142.4 113.139C142.4 113.139 142.701 111.735 142.597 111.133C142.493 110.53 124.013 111.133 124.013 111.133Z" fill="#CA212F"/>
<path d="M143.198 109.823C143.146 109.241 142.752 108.575 142.358 108.024C142.483 101.994 143.944 86.9711 143.944 85.1101C143.944 82.7186 141.923 82.9578 141.923 82.9578C141.923 82.9578 129.04 96.8478 126.417 97.6793C124.78 98.1991 124.448 103.283 124.427 107.026C124.22 107.39 123.899 107.837 123.411 108.326C122.116 109.625 123.215 110.831 124.013 111.133C124.811 111.434 127.216 111.736 134.305 111.933C141.394 112.131 143.094 111.133 143.094 111.133C143.094 111.133 143.292 111.029 143.198 109.823Z" fill="#CD6733"/>
<path d="M126.345 99.7171C128.998 98.8648 140.939 86.2638 143.468 83.5505C142.867 82.864 141.923 82.9683 141.923 82.9683C141.923 82.9683 129.039 96.8478 126.417 97.6793C125.101 98.0952 124.779 99.9041 124.779 101.599C125.049 100.694 125.536 99.977 126.345 99.7171Z" fill="#F69A2E"/>
<path d="M141.239 77.4578C141.239 78.2376 140.607 78.8719 139.83 78.8719C139.052 78.8719 138.42 78.2376 138.42 77.4578V76.0335C138.42 75.2537 139.052 74.6198 139.83 74.6198C140.607 74.6198 141.239 75.2537 141.239 76.0335V77.4578Z" fill="#F5B17E"/>
<path d="M128.086 77.4578C128.086 78.2376 127.454 78.8719 126.676 78.8719C125.899 78.8719 125.267 78.2376 125.267 77.4578V76.0335C125.267 75.2537 125.899 74.6198 126.676 74.6198C127.454 74.6198 128.086 75.2537 128.086 76.0335V77.4578Z" fill="#F5B17E"/>
<path d="M139.964 78.6743C139.964 82.407 136.948 83.9975 133.227 83.9975C129.506 83.9975 126.49 82.407 126.49 78.6743V71.3863C126.49 67.654 129.506 64.6287 133.227 64.6287C136.948 64.6287 139.964 67.654 139.964 71.3863V78.6743Z" fill="#FED19F"/>
<path d="M134.17 64.7011C137.207 65.3563 139.487 68.0594 139.487 71.3031V78.5912C139.487 82.3234 136.471 83.9143 132.75 83.9143C132.18 83.9143 131.631 83.8728 131.102 83.7998C131.776 83.9351 132.491 83.9974 133.227 83.9974C136.948 83.9974 139.964 82.4069 139.964 78.6743V71.3862C139.964 67.9763 137.446 65.1587 134.17 64.7011Z" fill="#F5B17E"/>
<path d="M131.102 78.7264C131.102 78.7264 132.149 79.5579 133.227 79.5579C134.305 79.5579 135.124 78.7574 135.124 78.7574C135.124 78.7574 134.554 80.057 133.124 80.057C131.693 80.057 131.102 78.7264 131.102 78.7264Z" fill="#F5B17E"/>
<path d="M123.847 83.2075C121.048 83.6438 118.198 92.0966 117.4 98.3136C116.602 104.531 127.806 105.487 129.879 103.013C131.942 100.538 130.273 98.9479 130.273 98.9479L124.396 96.6604C124.386 96.671 124.738 82.3756 123.847 83.2075Z" fill="#CD6733"/>
<path d="M129.869 103.023C131.932 100.549 130.263 98.9581 130.263 98.9581L124.386 96.671C124.386 96.671 123.66 91.4623 123.93 88.021C123.795 86.9711 123.567 85.8063 123.142 85.1309C123.142 85.1309 124.852 92.0339 123.94 95.9018L123.982 96.1825C123.982 96.1825 120.281 95.3506 118.778 98.4489C118.778 98.4489 120.209 96.141 123.391 96.5357C123.391 96.5357 121.204 96.5357 120.178 98.0851C120.178 98.0851 121.567 96.7749 123.194 96.9725C124.821 97.17 127.246 98.0122 128.159 98.4489C129.071 98.8856 128.719 99.6862 128.719 99.6862C128.719 99.6862 130.087 102.109 129.361 103.471C129.568 103.325 129.734 103.179 129.869 103.023Z" fill="#A25125"/>
<path d="M130.2 101.308C130.2 102.691 128.946 103.814 127.402 103.814C125.858 103.814 124.604 102.691 124.604 101.308C124.604 99.9253 125.858 98.8021 127.402 98.8021C128.946 98.8021 130.2 99.9253 130.2 101.308Z" fill="#A25125"/>
<path d="M124.054 101.214C124.054 99.634 125.485 98.345 127.257 98.345C127.298 98.345 127.34 98.345 127.381 98.3552C127.226 98.3344 127.071 98.3242 126.904 98.3242C125.132 98.3242 123.702 99.6132 123.702 101.194C123.702 102.743 125.07 104.001 126.78 104.053C125.236 103.845 124.054 102.659 124.054 101.214Z" fill="#F69A2E"/>
<path d="M128.148 98.8228L130.864 99.031C130.864 99.031 131.745 93.6871 131.87 93.001C131.983 92.3146 131.994 91.2855 132.45 91.2541C132.896 91.2231 133.227 91.1608 133.227 92.8035C133.227 94.4461 133.642 100.518 133.227 101.89C132.812 103.262 131.921 103.179 130.698 102.846C129.475 102.514 126.594 102.712 125.827 102.493C125.028 102.296 124.51 98.6774 128.148 98.8228Z" fill="#FED19F"/>
<path d="M132.595 95.6936C133.092 95.496 133.248 96.0888 133.248 97.2637C133.248 98.1889 133.217 101.017 133.092 102.379C133.154 102.243 133.206 102.088 133.248 101.89C133.466 100.975 133.393 98.0015 133.321 95.6211C133.206 95.4027 133.02 95.1843 132.74 95.1843C132.294 95.1843 131.911 95.8598 132.139 97.8353C132.128 97.8459 132.097 95.8912 132.595 95.6936Z" fill="#F5B17E"/>
<path d="M133.331 95.8081C133.289 94.5292 133.248 93.3958 133.248 92.8136C133.248 91.4207 133.061 91.2541 132.781 91.2541C133.082 91.5246 132.896 92.3459 132.896 92.3459C132.896 92.3459 132.336 92.4083 132.191 92.9803C132.045 93.5625 132.139 96.1926 132.139 96.1926C132.139 96.1926 132.232 94.6539 132.284 93.8431C132.336 93.0218 132.491 92.7097 132.916 92.7721C133.351 92.8344 133.186 95.7457 133.186 95.7457L133.331 95.8081Z" fill="#F5B17E"/>
<path d="M122.883 95.7665C122.883 95.7665 120.737 95.5274 119.224 96.9203C119.224 96.9203 120.178 94.9761 122.883 95.7665Z" fill="#A25125"/>
<path d="M118.903 99.9563C118.903 99.9563 119.898 98.8441 121.639 98.0435C121.65 98.0435 119.857 97.96 118.903 99.9563Z" fill="#A25125"/>
<path d="M142.67 83.2075C145.468 83.6438 148.318 92.0966 149.117 98.3136C149.914 104.531 138.71 105.487 136.637 103.013C134.575 100.538 136.243 98.9479 136.243 98.9479L142.12 96.6604C142.12 96.671 141.778 82.3756 142.67 83.2075Z" fill="#CD6733"/>
<path d="M136.647 103.023C134.585 100.549 136.254 98.9581 136.254 98.9581L142.131 96.671C142.131 96.671 142.856 91.4623 142.587 88.021C142.722 86.9711 142.949 85.8063 143.374 85.1309C143.374 85.1309 141.654 92.0339 142.576 95.9018L142.535 96.1825C142.535 96.1825 146.225 95.3506 147.738 98.4489C147.738 98.4489 146.308 96.141 143.126 96.5357C143.126 96.5357 145.313 96.5357 146.339 98.0851C146.339 98.0851 144.95 96.7749 143.323 96.9725C141.695 97.17 139.27 98.0122 138.358 98.4489C137.446 98.8856 137.798 99.6862 137.798 99.6862C137.798 99.6862 136.43 102.109 137.156 103.471C136.948 103.325 136.782 103.179 136.647 103.023Z" fill="#A25125"/>
<path d="M136.316 101.308C136.316 102.691 137.57 103.814 139.114 103.814C140.659 103.814 141.913 102.691 141.913 101.308C141.913 99.9253 140.659 98.8021 139.114 98.8021C137.57 98.8021 136.316 99.9253 136.316 101.308Z" fill="#A25125"/>
<path d="M142.462 101.214C142.462 99.634 141.032 98.345 139.259 98.345C139.218 98.345 139.177 98.345 139.145 98.3552C139.301 98.3344 139.456 98.3242 139.622 98.3242C141.394 98.3242 142.825 99.6132 142.825 101.194C142.825 102.743 141.457 104.001 139.746 104.053C141.281 103.845 142.462 102.659 142.462 101.214Z" fill="#F69A2E"/>
<path d="M138.555 98.8228L135.601 98.9997C135.601 98.9997 134.802 93.3856 134.689 92.6996C134.575 92.0131 134.72 91.2855 134.263 91.2541C133.818 91.2231 133.486 91.1608 133.486 92.8035C133.486 94.4461 133.072 100.518 133.486 101.89C133.901 103.262 134.792 103.179 136.015 102.846C137.238 102.514 140.12 102.712 140.897 102.493C141.664 102.296 141.809 98.7189 138.555 98.8228Z" fill="#FED19F"/>
<path d="M134.087 95.6936C133.6 95.496 133.445 96.0888 133.445 97.2637C133.445 98.1889 133.476 101.017 133.6 102.379C133.538 102.243 133.486 102.088 133.445 101.89C133.227 100.975 133.3 98.0015 133.372 95.6211C133.486 95.4027 133.663 95.1843 133.942 95.1843C134.377 95.1843 134.751 95.8598 134.533 97.8353C134.533 97.8459 134.564 95.8912 134.087 95.6936Z" fill="#F5B17E"/>
<path d="M133.362 95.8081C133.403 94.5292 133.445 93.3958 133.445 92.8136C133.445 91.4207 133.631 91.2541 133.901 91.2541C133.611 91.5246 133.787 92.3459 133.787 92.3459C133.787 92.3459 134.336 92.4083 134.471 92.9803C134.616 93.5625 134.523 96.1926 134.523 96.1926C134.523 96.1926 134.43 94.6539 134.378 93.8431C134.336 93.0218 134.17 92.7097 133.756 92.7721C133.331 92.8344 133.486 95.7457 133.486 95.7457L133.362 95.8081Z" fill="#F5B17E"/>
<path d="M143.634 95.7665C143.634 95.7665 145.779 95.5274 147.292 96.9203C147.292 96.9203 146.339 94.9761 143.634 95.7665Z" fill="#A25125"/>
<path d="M147.603 99.9563C147.603 99.9563 146.608 98.8441 144.867 98.0435C144.867 98.0435 146.65 97.96 147.603 99.9563Z" fill="#A25125"/>
<path d="M131.963 93.5001C131.963 93.5001 131.029 98.8025 130.967 99.0832C130.905 99.3639 130.833 100.081 130.947 100.622C131.071 101.162 131.341 101.64 131.341 101.64C131.341 101.64 130.926 100.487 131.164 98.9895C131.403 97.4821 131.963 93.5001 131.963 93.5001Z" fill="#FFEBC1"/>
<path d="M134.699 93.3751C134.699 93.3751 135.393 98.7919 135.456 99.0726C135.518 99.3533 135.59 100.071 135.476 100.611C135.362 101.152 135.082 101.63 135.082 101.63C135.082 101.63 135.497 100.476 135.259 98.9789C135.01 97.4817 134.699 93.3751 134.699 93.3751Z" fill="#FFEBC1"/>
<path d="M127.133 99.218C127.133 99.218 130.812 99.3741 130.905 99.3948C131.009 99.4156 131.019 99.218 131.019 99.218H127.133Z" fill="#FFEBC1"/>
<path d="M135.352 99.2388L135.456 99.4156L138.886 99.1141L135.352 99.2388Z" fill="#FFEBC1"/>
<path d="M135.176 82.2403H131.05C131.05 82.2403 131.496 81.5648 132.595 81.5648C133.693 81.5648 134.295 81.4605 134.668 81.6687C135.041 81.8765 135.176 82.2403 135.176 82.2403Z" fill="#FED19F"/>
<path d="M133.206 82.2403C131.133 82.2403 130.397 81.232 130.367 81.1904C130.325 81.1281 130.335 81.0344 130.397 80.9928C130.46 80.9513 130.553 80.9615 130.594 81.0242C130.605 81.0344 131.299 81.9702 133.279 81.9494C135.269 81.9181 135.818 80.9199 135.818 80.9097C135.86 80.8368 135.943 80.816 136.015 80.8474C136.088 80.889 136.108 80.9721 136.078 81.045C136.057 81.0967 135.435 82.2094 133.279 82.2403C133.269 82.2403 133.237 82.2403 133.206 82.2403Z" fill="#403B3C"/>
<path d="M137.228 76.0751H136.409C135.901 76.0751 135.466 75.7634 135.269 75.3267C135.29 75.961 135.808 76.4601 136.44 76.4601H137.207C137.84 76.4601 138.347 75.9504 138.378 75.3267C138.171 75.7634 137.736 76.0751 137.228 76.0751Z" fill="#403B3C"/>
<path d="M130.325 76.0751H129.506C128.998 76.0751 128.563 75.7634 128.366 75.3267C128.387 75.961 128.905 76.4601 129.537 76.4601H130.304C130.936 76.4601 131.444 75.9504 131.476 75.3267C131.268 75.7634 130.833 76.0751 130.325 76.0751Z" fill="#403B3C"/>
<path d="M167.058 100.331C167.058 104.208 161.969 108.554 157.16 108.554C152.351 108.554 147.261 104.208 147.261 100.331C147.261 96.4526 152.361 94.5085 157.16 94.5085C161.959 94.5085 167.058 96.4526 167.058 100.331Z" fill="#FED19F"/>
<path d="M157.16 94.5085C155.025 94.5085 153.024 94.8621 151.304 95.4651C151.21 95.7458 151.158 95.9641 151.158 95.9641C151.158 95.9641 156.361 95.3298 160.134 96.3173C163.907 97.3155 159.098 102.14 159.098 102.14C159.098 102.14 166.177 97.0763 166.416 96.9517C166.561 96.8787 166.996 96.2758 167.162 95.7458C165.026 94.2587 160.673 94.5085 157.16 94.5085Z" fill="#F5B17E"/>
<path d="M159.72 95.0491L159.844 97.2637C159.844 97.2637 157.937 98.2199 157.398 97.3261C156.859 96.4318 157.16 95.4129 157.16 95.4129L159.72 95.0491Z" fill="#FED19F"/>
<path d="M148.92 96.7748C148.92 96.7748 151.127 95.4027 155.48 95.0491C159.834 94.6954 165.794 95.9433 165.794 95.9433L166.747 95.1635C166.747 95.1635 162.57 93.791 157.325 93.6765C152.081 93.5518 147.665 95.1012 147.665 95.1012L148.92 96.7748Z" fill="#F69321"/>
<path d="M155.429 94.6331L155.076 97.4401C155.076 97.4401 156.144 98.5112 157.574 98.5112V96.2965L155.429 94.6331Z" fill="#FED19F"/>
<path d="M155.107 96.5357C155.864 96.8686 156.693 97.0454 157.574 97.0763V95.7144L155.429 94.0408L155.107 96.5357Z" fill="#F5B17E"/>
<path d="M148.712 94.7993C148.712 94.7993 159.181 102.878 164.218 109.511C166.841 110.343 165.524 116.684 165.524 116.684C165.524 116.684 161.658 120.167 158.58 120.334C155.512 120.511 148.837 116.32 148.837 116.32C148.837 116.32 146.681 99.3325 146.681 96.941C146.691 94.5606 148.712 94.7993 148.712 94.7993Z" fill="#F69321"/>
<path d="M153.802 155.464H148.94L148.329 149.153H154.413L153.802 155.464Z" fill="#A87D50"/>
<path d="M148.94 155.464H153.117C151.169 154.757 149.666 153.811 148.712 153.114L148.94 155.464ZM148.381 149.746L148.66 152.574C150.433 153.665 152.454 154.362 153.874 154.767L154.081 152.657C151.397 151.856 149.417 150.546 148.381 149.746Z" fill="#8A5E3C"/>
<path d="M148.277 123.962C148.277 123.962 144.784 143.809 145.883 147.313C146.981 150.817 147.883 150.421 148.681 151.326C149.479 152.231 151.583 152.625 152.983 152.428C154.382 152.231 157.377 151.222 157.782 148.02C158.186 144.807 158.082 125.969 158.082 125.969L148.277 123.962Z" fill="#F69321"/>
<path d="M155.087 125.355C156.061 126.426 157.108 128.536 157.108 132.716C157.108 140.535 157.906 148.29 155.439 150.754C152.972 153.228 149.376 151.42 148.775 149.153C148.173 146.876 148.578 145.878 148.578 145.878C148.578 145.878 147.582 147.219 148.049 149.486C148.049 149.486 147.012 149.112 146.214 148.269C147.168 150.754 147.966 150.515 148.681 151.326C149.479 152.231 151.583 152.625 152.983 152.428C154.382 152.231 157.377 151.222 157.782 148.02C158.186 144.807 158.082 125.969 158.082 125.969L155.087 125.355Z" fill="#E88126"/>
<path d="M146.08 158.594C146.08 158.594 145.872 159.155 146.183 159.82C146.494 160.485 150.174 161.047 154.216 160.236C154.216 160.236 154.527 159.311 154.631 158.084C154.724 156.857 146.08 158.594 146.08 158.594Z" fill="#8A5E3C"/>
<path d="M147.199 156.14C147.199 156.14 147.707 154.913 150.06 154.549C152.413 154.196 153.739 155.006 153.791 155.474C153.843 155.932 154.662 155.984 154.662 157.626C154.662 159.269 154.102 159.674 152.92 159.674C151.739 159.674 147.272 159.955 146.318 159.009C145.385 158.063 146.08 156.753 147.199 156.14Z" fill="#A87D50"/>
<path d="M153.791 155.454C153.739 155.36 153.687 155.266 153.625 155.173C153.2 154.736 151.967 154.258 150.06 154.539C147.707 154.902 147.199 156.129 147.199 156.129C146.836 156.327 146.515 156.597 146.287 156.909C146.618 157.449 147.562 158.229 149.852 158.208C152.92 158.167 153.77 157.709 153.77 156.94C153.77 156.171 149.707 155.588 149.707 155.588C149.707 155.588 152.661 155.245 154.154 156.473C154.154 156.473 154.112 156.15 153.936 155.724C153.864 155.641 153.812 155.557 153.802 155.454C153.802 155.464 153.791 155.454 153.791 155.454Z" fill="#C2B59B"/>
<path d="M161.14 155.464H166.001L166.612 149.153H160.518L161.14 155.464Z" fill="#A87D50"/>
<path d="M166.229 153.125C165.275 153.821 163.772 154.757 161.824 155.474H166.001L166.229 153.125ZM160.86 152.657L161.067 154.767C162.487 154.362 164.498 153.665 166.281 152.574L166.561 149.746C165.514 150.546 163.534 151.856 160.86 152.657Z" fill="#8A5E3C"/>
<path d="M166.654 123.962C166.654 123.962 170.147 143.809 169.048 147.313C167.95 150.817 167.048 150.421 166.25 151.326C165.452 152.231 163.348 152.625 161.948 152.428C160.549 152.231 157.554 151.222 157.15 148.02C156.745 144.807 156.849 125.969 156.849 125.969L166.654 123.962Z" fill="#F69321"/>
<path d="M159.855 125.355C158.88 126.426 157.834 128.536 157.834 132.716C157.834 140.535 157.035 148.29 159.502 150.754C161.969 153.228 165.565 151.42 166.167 149.153C166.768 146.876 166.364 145.878 166.364 145.878C166.364 145.878 167.359 147.219 166.892 149.486C166.892 149.486 167.929 149.112 168.727 148.269C167.773 150.754 166.975 150.515 166.26 151.326C165.462 152.231 163.358 152.625 161.959 152.428C160.559 152.231 157.564 151.222 157.16 148.02C156.755 144.807 156.859 125.969 156.859 125.969L159.855 125.355Z" fill="#E88126"/>
<path d="M168.862 158.594C168.862 158.594 169.069 159.155 168.758 159.82C168.447 160.485 164.768 161.047 160.725 160.236C160.725 160.236 160.414 159.311 160.311 158.084C160.217 156.857 168.862 158.594 168.862 158.594Z" fill="#8A5E3C"/>
<path d="M167.732 156.14C167.732 156.14 167.224 154.913 164.871 154.549C162.518 154.196 161.191 155.006 161.14 155.474C161.088 155.932 160.269 155.984 160.269 157.626C160.269 159.269 160.829 159.674 162.01 159.674C163.192 159.674 167.659 159.955 168.613 159.009C169.546 158.063 168.862 156.753 167.732 156.14Z" fill="#A87D50"/>
<path d="M161.14 155.454C161.192 155.36 161.243 155.266 161.306 155.173C161.73 154.736 162.964 154.258 164.871 154.539C167.224 154.902 167.732 156.129 167.732 156.129C168.095 156.327 168.416 156.597 168.644 156.909C168.312 157.449 167.369 158.229 165.078 158.208C162.01 158.167 161.161 157.709 161.161 156.94C161.161 156.171 165.223 155.588 165.223 155.588C165.223 155.588 162.269 155.245 160.777 156.473C160.777 156.473 160.818 156.15 160.995 155.724C161.067 155.641 161.119 155.557 161.13 155.454C161.14 155.464 161.14 155.454 161.14 155.454Z" fill="#C2B59B"/>
<path d="M148.08 122.964C148.08 122.964 148.184 124.368 148.277 124.669C148.381 124.97 150.775 126.177 157.47 126.073C164.166 125.969 166.467 124.97 166.467 124.97C166.467 124.97 166.768 123.567 166.664 122.964C166.561 122.361 148.08 122.964 148.08 122.964Z" fill="#BE202E"/>
<path d="M167.266 121.664C167.214 121.082 166.82 120.417 166.426 119.866C166.55 113.836 168.012 98.8127 168.012 96.9517C168.012 94.5602 165.99 94.7994 165.99 94.7994C165.99 94.7994 153.107 108.679 150.485 109.511C148.847 110.031 148.515 115.115 148.495 118.857C148.287 119.221 147.966 119.668 147.479 120.157C146.183 121.457 147.282 122.663 148.08 122.964C148.878 123.265 151.283 123.567 158.372 123.765C165.462 123.962 167.162 122.964 167.162 122.964C167.162 122.964 167.359 122.86 167.266 121.664Z" fill="#F69321"/>
<path d="M150.412 111.549C153.065 110.696 165.006 98.0952 167.535 95.3815C166.934 94.6954 165.99 94.7993 165.99 94.7993C165.99 94.7993 153.107 108.679 150.485 109.511C149.168 109.927 148.847 111.736 148.847 113.43C149.117 112.526 149.604 111.808 150.412 111.549Z" fill="#FBAD3D"/>
<path d="M165.306 89.2892C165.306 90.069 164.674 90.7033 163.897 90.7033C163.119 90.7033 162.487 90.069 162.487 89.2892V87.8649C162.487 87.0851 163.119 86.4508 163.897 86.4508C164.674 86.4508 165.306 87.0851 165.306 87.8649V89.2892Z" fill="#F5B17E"/>
<path d="M152.153 89.2892C152.153 90.069 151.521 90.7033 150.744 90.7033C149.966 90.7033 149.334 90.069 149.334 89.2892V87.8649C149.334 87.0851 149.966 86.4508 150.744 86.4508C151.521 86.4508 152.153 87.0851 152.153 87.8649V89.2892Z" fill="#F5B17E"/>
<path d="M164.032 90.5057C164.032 94.238 161.015 95.8289 157.295 95.8289C153.574 95.8289 150.557 94.238 150.557 90.5057V83.2177C150.557 79.4855 153.574 76.4601 157.295 76.4601C161.015 76.4601 164.032 79.4855 164.032 83.2177V90.5057Z" fill="#FED19F"/>
<path d="M158.943 87.0436C158.943 87.0436 159.616 88.2703 161.637 88.4992C161.637 88.4992 159.264 88.8007 158.943 87.0436Z" fill="#F5B17E"/>
<path d="M155.45 87.0436C155.45 87.0436 154.776 88.2703 152.755 88.4992C152.744 88.4992 155.118 88.8007 155.45 87.0436Z" fill="#F5B17E"/>
<path d="M158.238 76.5326C161.275 77.1877 163.555 79.8908 163.555 83.1346V90.4226C163.555 94.1548 160.539 95.7457 156.818 95.7457C156.248 95.7457 155.698 95.7042 155.17 95.6313C155.843 95.7665 156.558 95.8289 157.295 95.8289C161.015 95.8289 164.032 94.2379 164.032 90.5057V83.2177C164.032 79.8077 161.513 77.0007 158.238 76.5326Z" fill="#F5B17E"/>
<path d="M156.693 91.4623C156.693 91.4623 155.999 90.9319 155.045 91.0569C154.092 91.1816 153.77 91.93 153.77 91.93L153.667 91.7846C153.667 91.7846 153.294 92.0131 153.294 92.3146C153.294 92.6161 151.874 92.3667 151.417 91.587C150.972 90.8072 150.941 90.2874 150.868 89.5284C150.795 88.78 150.723 86.9189 150.723 86.9189L150.578 87.6673L150.453 86.5445C150.453 86.5445 150.132 91.1816 150.329 92.7306C150.526 94.2799 150.65 95.2361 151.428 96.068C152.205 96.8995 152.827 98.875 153.356 99.5717C153.884 100.268 153.128 101.277 153.636 101.932C154.133 102.586 154.983 102.982 154.983 102.982C154.983 102.982 154.734 102.628 154.734 102.503C154.734 102.379 155.263 103.075 155.263 103.502C155.263 103.928 155.211 104.125 155.211 104.125L155.636 103.751C155.636 103.751 155.532 105.259 156.382 106.278C157.232 107.307 157.408 108.461 157.408 108.461C157.408 108.461 158.559 107.338 159.056 105.529C159.554 103.72 159.554 102.919 159.554 102.919L159.678 104.074C159.678 104.074 160.424 103.075 160.424 102.223C160.424 101.37 161.078 101.817 161.575 100.445C162.073 99.062 162.021 98.5943 162.021 98.5943L162.094 99.3427C162.094 99.3427 162.819 97.6691 163.389 95.8081C163.959 93.9572 163.99 90.9217 164.063 89.2684C164.135 87.6156 164.063 86.4614 164.063 86.4614L163.835 86.9397L163.69 86.7112C163.69 86.7112 163.337 87.9379 163.337 88.7901C163.337 89.6428 163.534 91.8469 162.042 92.1276C160.539 92.4083 160.57 91.6493 160.446 91.5976C160.321 91.5454 160.269 91.8261 160.269 91.8261C160.269 91.8261 160.621 91.0256 159.917 90.9217C159.222 90.8178 159.046 91.1502 158.269 91.2961C157.491 91.4623 156.693 91.4623 156.693 91.4623Z" fill="#A1A1A0"/>
<path d="M154.299 92.6474L153.729 93.2194L154.475 92.0445C154.475 92.0445 153.646 92.8242 153.604 92.9175C153.552 93.0218 153.584 92.4189 154.102 91.7116C154.226 91.5454 154.32 91.4101 154.403 91.2855C153.957 91.5454 153.781 91.9406 153.781 91.9406L153.677 91.7947C153.677 91.7947 153.304 92.0237 153.304 92.3252C153.304 92.6267 151.884 92.3769 151.428 91.5976C150.982 90.8178 150.951 90.2979 150.878 89.5389C150.806 88.7901 150.733 86.9291 150.733 86.9291L150.588 87.6779L150.474 86.6484C150.464 86.6382 150.464 86.6382 150.453 86.6276C150.433 86.9397 150.36 88.1041 150.308 89.3723C150.319 89.7259 150.329 90.0898 150.36 90.4226C150.485 92.1484 151.107 93.4582 151.107 93.4582L150.858 92.4083C150.858 92.4083 151.086 92.9595 151.635 93.4064C152.184 93.8533 152.661 94.3316 152.661 94.3316L152.216 93.4064C152.216 93.4064 152.868 93.7808 152.993 94.363C153.117 94.9346 153.117 95.6419 153.117 95.6419C153.117 95.6419 153.314 94.8413 153.314 94.4669C153.314 94.0925 153.459 95.6419 153.459 95.6419C153.459 95.6419 153.532 94.7162 153.635 94.134C153.719 93.5726 154.299 92.6474 154.299 92.6474Z" fill="#7E7B7B"/>
<path d="M158.134 92.1382C158.217 92.1276 158.248 92.117 158.248 92.117C158.248 92.117 158.207 92.1276 158.134 92.1382ZM164.063 86.4822L163.835 86.9605L163.69 86.7319C163.69 86.7319 163.337 87.9586 163.337 88.8109C163.337 89.6636 163.534 91.8677 162.042 92.1484C160.539 92.4291 160.57 91.6701 160.446 91.6183C160.394 91.5976 160.352 91.6391 160.321 91.7014C160.383 91.4623 160.435 91.015 159.927 90.9424C159.233 90.8386 159.056 91.171 158.279 91.3164C157.502 91.4623 156.704 91.4623 156.704 91.4623C156.704 91.4623 156.009 90.9318 155.055 91.0569C154.631 91.1087 154.341 91.2957 154.144 91.4725C154.237 91.4725 154.361 91.4517 154.506 91.4309C155.729 91.2333 155.501 91.9092 156.528 92.1068C157.315 92.2628 157.906 92.1797 158.144 92.1276C158.061 92.1382 157.937 92.1276 157.75 92.0754C157.377 91.9715 157.979 91.9508 159.025 91.7947C160.072 91.6493 159.875 92.3459 159.875 92.3459C159.875 92.3459 160.155 92.2005 160.176 92.0962C160.197 91.9923 160.704 93.1982 162.176 93.1982C163.648 93.1982 163.254 96.0574 162.425 96.9309C161.596 97.8039 161.046 99.4156 161.046 99.4156C161.046 99.4156 161.067 98.5629 161.067 97.7416C161.067 96.9101 161.015 96.2864 161.015 96.2864C161.015 96.2864 160.995 97.7624 160.591 98.8958C160.186 100.019 159.813 101.401 159.813 101.401C159.813 101.401 159.792 99.8731 159.792 99.8002C159.792 99.7277 159.544 101.131 159.544 101.204C159.544 101.277 159.347 100.226 159.191 99.1451C159.046 98.0639 159.015 96.4941 159.015 96.4941C159.015 96.4941 158.714 98.875 158.766 100.507C158.818 102.14 158.766 102.836 158.238 102.566C157.709 102.285 157.74 98.459 157.74 98.459L157.491 100.435L157.191 96.5255C157.191 96.5255 156.942 99.4364 156.994 100.715C157.046 101.994 156.569 103.366 156.341 102.14C156.113 100.913 156.164 99.3325 156.164 99.3325C156.164 99.3325 155.937 100.591 155.968 101.588C155.989 102.586 155.688 101.963 155.564 100.965C155.439 99.9664 155.367 99.1557 155.367 99.1557C155.367 99.1557 155.387 100.684 155.222 101.183C155.045 101.682 154.776 101.609 154.672 100.881C154.568 100.154 153.874 98.8228 153.874 98.8228C153.874 98.8228 154.278 100.081 154.195 100.549C154.123 101.027 153.916 100.622 153.719 99.6442C153.563 98.875 152.765 98.0745 152.423 97.7522C152.765 98.4696 153.065 99.1973 153.345 99.5717C153.874 100.268 153.117 101.277 153.625 101.932C154.123 102.586 154.973 102.982 154.973 102.982C154.973 102.982 154.724 102.628 154.724 102.503C154.724 102.379 155.253 103.075 155.253 103.501C155.253 103.928 155.201 104.125 155.201 104.125L155.626 103.751C155.626 103.751 155.522 105.259 156.372 106.278C156.382 106.288 156.382 106.298 156.393 106.308C156.486 106.361 156.548 106.412 156.569 106.454C156.6 106.506 156.631 106.589 156.662 106.672C157.035 107.234 157.222 107.785 157.315 108.118C157.45 108.066 157.626 108.003 157.834 107.92C158.217 107.421 158.735 106.589 159.036 105.519C159.533 103.709 159.533 102.909 159.533 102.909L159.657 104.063C159.657 104.063 160.404 103.065 160.404 102.212C160.404 101.36 161.057 101.807 161.555 100.435C162.052 99.0518 162 98.5837 162 98.5837L162.072 99.3325C162.072 99.3325 162.798 97.6585 163.368 95.7975C163.938 93.947 163.969 90.9111 164.042 89.2582C164.114 87.605 164.063 86.4822 164.063 86.4822Z" fill="#7E7B7B"/>
<path d="M155.522 85.7855C155.522 85.7855 154.973 86.7629 153.874 86.8358C152.775 86.9083 151.946 86.3885 151.946 86.3885L151.998 86.7112L151.428 86.5136C151.428 86.5136 151.604 87.7403 153.377 87.7195C155.149 87.6987 155.605 87.1165 155.802 86.7943C155.999 86.472 155.698 86.6484 155.698 86.6484C155.698 86.6484 155.822 86.243 155.522 85.7855Z" fill="#A1A1A0"/>
<path d="M158.891 85.7855C158.891 85.7855 159.44 86.7629 160.539 86.8358C161.637 86.9083 162.466 86.3885 162.466 86.3885L162.414 86.7112L162.985 86.5136C162.985 86.5136 162.809 87.7403 161.036 87.7195C159.264 87.6987 158.808 87.1165 158.611 86.7943C158.414 86.472 158.714 86.6484 158.714 86.6484C158.714 86.6484 158.59 86.243 158.891 85.7855Z" fill="#A1A1A0"/>
<path d="M158.704 86.243C158.704 86.2536 158.704 86.2638 158.704 86.2744C158.714 86.2744 158.714 86.2846 158.714 86.2846C158.714 86.2846 158.704 86.2744 158.704 86.243ZM155.709 86.243C155.709 86.2638 155.698 86.2846 155.698 86.2846C155.698 86.2846 155.709 86.2846 155.709 86.2744C155.709 86.2744 155.709 86.2638 155.709 86.243ZM155.698 86.6382C155.698 86.6382 155.709 86.6069 155.709 86.5653C155.47 86.8982 154.931 87.3451 153.366 87.3659C152.278 87.3866 151.791 86.9291 151.583 86.5653L151.417 86.5136C151.417 86.5136 151.594 87.7403 153.366 87.7195C155.138 87.6987 155.595 87.1165 155.792 86.7943C155.999 86.4614 155.698 86.6382 155.698 86.6382ZM162.819 86.5759C162.601 86.9291 162.124 87.3866 161.036 87.3764C159.471 87.3557 158.943 86.9083 158.694 86.5759C158.704 86.6175 158.704 86.6484 158.704 86.6484C158.704 86.6484 158.404 86.472 158.601 86.7943C158.797 87.1165 159.253 87.6987 161.026 87.7195C162.798 87.7403 162.974 86.5136 162.974 86.5136L162.819 86.5759Z" fill="#7E7B7B"/>
<path d="M155.17 90.5681C155.17 90.5681 156.216 91.4 157.295 91.4C158.372 91.4 159.191 90.5994 159.191 90.5994C159.191 90.5994 158.621 91.8991 157.191 91.8991C155.771 91.8885 155.17 90.5681 155.17 90.5681Z" fill="#F5B17E"/>
<path d="M147.914 95.0385C145.116 95.4752 142.265 103.928 141.467 110.145C140.669 116.362 151.874 117.319 153.947 114.844C156.009 112.37 154.341 110.779 154.341 110.779L148.463 108.492C148.453 108.502 148.805 94.207 147.914 95.0385Z" fill="#F69321"/>
<path d="M153.936 114.855C155.999 112.38 154.33 110.79 154.33 110.79L148.453 108.502C148.453 108.502 147.728 103.294 147.997 99.8524C147.862 98.8021 147.634 97.6377 147.209 96.9623C147.209 96.9623 148.92 103.865 148.007 107.733L148.049 108.014C148.049 108.014 144.348 107.182 142.846 110.28C142.846 110.28 144.276 107.972 147.458 108.367C147.458 108.367 145.271 108.367 144.245 109.916C144.245 109.916 145.634 108.606 147.261 108.804C148.888 109.001 151.314 109.844 152.226 110.28C153.138 110.717 152.786 111.517 152.786 111.517C152.786 111.517 154.154 113.94 153.428 115.302C153.625 115.156 153.802 115.021 153.936 114.855Z" fill="#E88126"/>
<path d="M154.268 113.139C154.268 114.522 153.014 115.645 151.469 115.645C149.925 115.645 148.671 114.522 148.671 113.139C148.671 111.756 149.925 110.633 151.469 110.633C153.014 110.633 154.268 111.756 154.268 113.139Z" fill="#E88126"/>
<path d="M148.111 113.056C148.111 111.476 149.542 110.187 151.314 110.187C151.355 110.187 151.397 110.187 151.438 110.197C151.283 110.176 151.127 110.166 150.961 110.166C149.189 110.166 147.759 111.455 147.759 113.035C147.759 114.584 149.127 115.842 150.837 115.894C149.303 115.676 148.111 114.491 148.111 113.056Z" fill="#FBAD3D"/>
<path d="M152.205 110.654L154.921 110.862C154.921 110.862 155.802 105.519 155.926 104.832C156.04 104.146 156.051 103.117 156.506 103.086C156.953 103.055 157.284 102.992 157.284 104.635C157.284 106.278 157.699 112.349 157.284 113.722C156.87 115.094 155.978 115.011 154.755 114.678C153.532 114.345 150.65 114.543 149.884 114.325C149.096 114.127 148.578 110.509 152.205 110.654Z" fill="#FED19F"/>
<path d="M156.662 107.525C157.16 107.327 157.315 107.92 157.315 109.095C157.315 110.02 157.284 112.848 157.16 114.21C157.222 114.075 157.274 113.919 157.315 113.721C157.533 112.807 157.46 109.833 157.388 107.452C157.274 107.234 157.087 107.016 156.807 107.016C156.361 107.016 155.978 107.691 156.206 109.667C156.196 109.677 156.164 107.723 156.662 107.525Z" fill="#F5B17E"/>
<path d="M157.388 107.639C157.346 106.361 157.305 105.227 157.305 104.645C157.305 103.252 157.118 103.086 156.838 103.086C157.139 103.356 156.953 104.177 156.953 104.177C156.953 104.177 156.393 104.24 156.248 104.811C156.102 105.393 156.196 108.024 156.196 108.024C156.196 108.024 156.289 106.485 156.341 105.675C156.393 104.853 156.548 104.541 156.973 104.604C157.408 104.666 157.243 107.577 157.243 107.577L157.388 107.639Z" fill="#F5B17E"/>
<path d="M146.95 107.598C146.95 107.598 144.805 107.359 143.291 108.752C143.291 108.762 144.245 106.808 146.95 107.598Z" fill="#E88126"/>
<path d="M142.97 111.788C142.97 111.788 143.965 110.675 145.706 109.875C145.717 109.875 143.924 109.791 142.97 111.788Z" fill="#E88126"/>
<path d="M166.737 95.0385C169.535 95.4752 172.386 103.928 173.184 110.145C173.982 116.362 162.777 117.319 160.704 114.844C158.642 112.37 160.311 110.779 160.311 110.779L166.187 108.492C166.187 108.502 165.835 94.207 166.737 95.0385Z" fill="#F69321"/>
<path d="M160.704 114.855C158.642 112.38 160.311 110.79 160.311 110.79L166.187 108.502C166.187 108.502 166.913 103.294 166.644 99.8524C166.778 98.8021 167.006 97.6377 167.431 96.9623C167.431 96.9623 165.711 103.865 166.633 107.733L166.592 108.014C166.592 108.014 170.282 107.182 171.795 110.28C171.795 110.28 170.365 107.972 167.183 108.367C167.183 108.367 169.37 108.367 170.396 109.916C170.396 109.916 169.007 108.606 167.38 108.804C165.752 109.001 163.327 109.844 162.414 110.28C161.503 110.717 161.855 111.517 161.855 111.517C161.855 111.517 160.487 113.94 161.213 115.302C161.015 115.156 160.839 115.021 160.704 114.855Z" fill="#E88126"/>
<path d="M160.383 113.139C160.383 114.522 161.637 115.645 163.182 115.645C164.726 115.645 165.98 114.522 165.98 113.139C165.98 111.756 164.726 110.633 163.182 110.633C161.637 110.633 160.383 111.756 160.383 113.139Z" fill="#E88126"/>
<path d="M166.529 113.056C166.529 111.476 165.099 110.187 163.327 110.187C163.285 110.187 163.244 110.187 163.213 110.197C163.368 110.176 163.524 110.166 163.69 110.166C165.462 110.166 166.892 111.455 166.892 113.035C166.892 114.584 165.524 115.842 163.814 115.894C165.348 115.676 166.529 114.491 166.529 113.056Z" fill="#FBAD3D"/>
<path d="M162.611 110.654L159.657 110.831C159.657 110.831 158.86 105.217 158.746 104.531C158.631 103.845 158.777 103.117 158.321 103.086C157.875 103.055 157.543 102.992 157.543 104.635C157.543 106.278 157.128 112.349 157.543 113.722C157.958 115.094 158.849 115.011 160.072 114.678C161.295 114.345 164.177 114.543 164.954 114.325C165.732 114.127 165.877 110.55 162.611 110.654Z" fill="#FED19F"/>
<path d="M158.144 107.525C157.657 107.327 157.502 107.92 157.502 109.095C157.502 110.02 157.533 112.848 157.657 114.21C157.595 114.075 157.543 113.919 157.502 113.721C157.284 112.807 157.357 109.833 157.429 107.452C157.543 107.234 157.719 107.016 157.999 107.016C158.434 107.016 158.808 107.691 158.59 109.667C158.601 109.677 158.631 107.723 158.144 107.525Z" fill="#F5B17E"/>
<path d="M157.429 107.639C157.47 106.361 157.512 105.227 157.512 104.645C157.512 103.252 157.699 103.086 157.968 103.086C157.678 103.356 157.854 104.177 157.854 104.177C157.854 104.177 158.404 104.24 158.538 104.811C158.683 105.393 158.59 108.024 158.59 108.024C158.59 108.024 158.497 106.485 158.445 105.675C158.404 104.853 158.238 104.541 157.823 104.604C157.398 104.666 157.553 107.577 157.553 107.577L157.429 107.639Z" fill="#F5B17E"/>
<path d="M167.701 107.598C167.701 107.598 169.846 107.359 171.36 108.752C171.36 108.762 170.406 106.808 167.701 107.598Z" fill="#E88126"/>
<path d="M171.671 111.788C171.671 111.788 170.676 110.675 168.934 109.875C168.934 109.875 170.717 109.791 171.671 111.788Z" fill="#E88126"/>
<path d="M156.019 105.331C156.019 105.331 155.087 110.633 155.025 110.914C154.962 111.195 154.89 111.912 155.004 112.453C155.128 112.994 155.398 113.472 155.398 113.472C155.398 113.472 154.983 112.318 155.221 110.821C155.47 109.313 156.019 105.331 156.019 105.331Z" fill="#FFEBC1"/>
<path d="M158.766 105.217C158.766 105.217 159.46 110.634 159.523 110.914C159.585 111.195 159.658 111.912 159.543 112.453C159.43 112.994 159.15 113.472 159.15 113.472C159.15 113.472 159.564 112.318 159.326 110.821C159.077 109.313 158.766 105.217 158.766 105.217Z" fill="#FFEBC1"/>
<path d="M151.2 111.049C151.2 111.049 154.879 111.205 154.973 111.226C155.076 111.247 155.087 111.049 155.087 111.049H151.2Z" fill="#FFEBC1"/>
<path d="M159.419 111.07L159.523 111.247L162.954 110.946L159.419 111.07Z" fill="#FFEBC1"/>
<path d="M159.243 94.0717H155.118C155.118 94.0717 155.563 93.3959 156.662 93.3959C157.761 93.3959 158.362 93.292 158.735 93.5002C159.118 93.6973 159.243 94.0717 159.243 94.0717Z" fill="#FED19F"/>
<path d="M213.4 172.701H202.952C201.977 172.701 201.19 171.912 201.19 170.934C201.19 169.957 201.977 169.166 202.952 169.166H213.4C214.374 169.166 215.162 169.957 215.162 170.934C215.162 171.912 214.374 172.701 213.4 172.701Z" fill="#715298"/>
<path d="M91.7777 153.624H84.0145C83.289 153.624 82.7085 153.031 82.7085 152.314C82.7085 151.586 83.2992 151.004 84.0145 151.004H91.7777C92.5032 151.004 93.0837 151.596 93.0837 152.314C93.0837 153.041 92.5032 153.624 91.7777 153.624Z" fill="#715298"/>
<path d="M218.613 172.515C219.483 172.515 220.189 171.807 220.189 170.934C220.189 170.061 219.483 169.354 218.613 169.354C217.743 169.354 217.038 170.061 217.038 170.934C217.038 171.807 217.743 172.515 218.613 172.515Z" fill="#715298"/>
<path d="M78.2203 153.894C79.0904 153.894 79.796 153.186 79.796 152.314C79.796 151.441 79.0904 150.733 78.2203 150.733C77.3502 150.733 76.645 151.441 76.645 152.314C76.645 153.186 77.3502 153.894 78.2203 153.894Z" fill="#715298"/>
<path d="M243.821 141.065C245 141.065 245.956 140.106 245.956 138.923C245.956 137.74 245 136.781 243.821 136.781C242.642 136.781 241.686 137.74 241.686 138.923C241.686 140.106 242.642 141.065 243.821 141.065Z" fill="#715298"/>
</g>
<defs>
<radialGradient id="paint0_radial_49_146" cx="0" cy="0" r="1" gradientUnits="userSpaceOnUse" gradientTransform="translate(87.7054 53.164) rotate(-165.468) scale(134.595 80.875)">
<stop offset="0.115" stop-color="#B4B56B" stop-opacity="0"/>
<stop offset="1" stop-color="white"/>
</radialGradient>
<radialGradient id="paint1_radial_49_146" cx="0" cy="0" r="1" gradientUnits="userSpaceOnUse" gradientTransform="translate(69.7159 88.7969) rotate(-165.468) scale(187.713 112.792)">
<stop offset="0.115" stop-color="#B4B56B" stop-opacity="0"/>
<stop offset="1" stop-color="white"/>
</radialGradient>
<radialGradient id="paint2_radial_49_146" cx="0" cy="0" r="1" gradientUnits="userSpaceOnUse" gradientTransform="translate(64.9152 110.089) rotate(8.33911) scale(166.267 99.9353)">
<stop offset="0.115" stop-color="#B4B56B" stop-opacity="0"/>
<stop offset="1" stop-color="white"/>
</radialGradient>
<radialGradient id="paint3_radial_49_146" cx="0" cy="0" r="1" gradientUnits="userSpaceOnUse" gradientTransform="translate(260.583 76.8858) rotate(160.035) scale(201.747 121.201)">
<stop offset="0.115" stop-color="#B4B56B" stop-opacity="0"/>
<stop offset="1" stop-color="white"/>
</radialGradient>
<radialGradient id="paint4_radial_49_146" cx="0" cy="0" r="1" gradientUnits="userSpaceOnUse" gradientTransform="translate(264.191 109.81) rotate(171.661) scale(178.677 107.394)">
<stop offset="0.115" stop-color="#B4B56B" stop-opacity="0"/>
<stop offset="1" stop-color="white"/>
</radialGradient>
<clipPath id="clip0_49_146">
<rect width="334" height="173" fill="white"/>
</clipPath>
</defs>
</svg>
