<svg width="50" height="51" viewBox="0 0 50 51" fill="none" xmlns="http://www.w3.org/2000/svg">
<path fill-rule="evenodd" clip-rule="evenodd" d="M25.0845 7.28333C34.2584 7.28333 41.6948 14.8872 41.6948 24.2688C41.6948 31.7717 36.941 38.1366 30.345 40.3847C29.5029 40.552 29.2039 40.0216 29.2039 39.5693C29.2039 39.0093 29.2238 37.1805 29.2238 34.9076C29.2238 33.3238 28.6923 32.2901 28.096 31.7633C31.7951 31.3425 35.6819 29.9061 35.6819 23.3822C35.6819 21.5268 35.0374 20.0127 33.971 18.8232C34.1438 18.3941 34.7135 16.6665 33.8083 14.3273C33.8083 14.3273 32.4163 13.8722 29.2454 16.0689C27.9182 15.6928 26.4964 15.5036 25.0845 15.497C23.6727 15.5036 22.2525 15.6928 20.927 16.0689C17.7528 13.8722 16.3575 14.3273 16.3575 14.3273C15.4556 16.6665 16.0253 18.3941 16.1964 18.8232C15.135 20.0127 14.4855 21.5268 14.4855 23.3822C14.4855 29.8895 18.364 31.348 22.0532 31.7771C21.5781 32.2012 21.1479 32.9493 20.9984 34.0477C20.0516 34.4817 17.6464 35.2329 16.1648 32.6369C16.1648 32.6369 15.2861 31.0049 13.6185 30.8857C13.6185 30.8857 11.9989 30.8642 13.5055 31.9178C13.5055 31.9178 14.5935 32.4397 15.3492 34.4028C15.3492 34.4028 16.3243 37.4344 20.9453 36.4073C20.9536 37.827 20.9685 39.1651 20.9685 39.5693C20.9685 40.0182 20.6629 40.5437 19.834 40.3863C13.2331 38.1415 8.47424 31.7734 8.47424 24.2688C8.47424 14.8872 15.9123 7.28333 25.0845 7.28333Z" fill="#9153F4"/>
<circle cx="25.0846" cy="25.6036" r="23.4154" stroke="#9153F4" stroke-width="3"/>
</svg>
