<svg width="268" height="214" viewBox="0 0 268 214" fill="none" xmlns="http://www.w3.org/2000/svg">
<g clip-path="url(#clip0_27_7)">
<path d="M235.415 207.662L229.844 207.662L227.193 186.121L235.416 186.122L235.415 207.662Z" fill="#FFB6B6"/>
<path d="M235.611 213.488L218.479 213.487V213.27C218.479 209.579 221.464 206.586 225.147 206.586L228.277 204.206L234.116 206.586L235.611 206.587L235.611 213.488Z" fill="#2F2E41"/>
<path d="M210.715 207.662L205.144 207.662L202.494 186.121L210.716 186.122L210.715 207.662Z" fill="#FFB6B6"/>
<path d="M210.911 213.488L193.779 213.487V213.27C193.779 209.579 196.764 206.586 200.447 206.586L203.577 204.206L209.416 206.586L210.912 206.587L210.911 213.488Z" fill="#2F2E41"/>
<path d="M208.06 87.4493L240.204 88.1276C240.204 88.1276 245.983 97.6239 241.571 111.021L242.065 114.751L240.035 120.517L239.02 138.153L240.035 140.866L239.358 145.953C239.358 145.953 242.065 179.53 235.298 196.487L227.177 196.148L224.132 151.905L225.824 148.667L225.486 147.31L221.425 126.961L217.365 137.474V143.316L213.643 147.649C213.643 147.649 214.997 187.669 211.275 195.809H202.183L198.756 141.544L202.139 110.003L201.463 107.968L202.478 106.951L201.801 103.559L208.06 87.4493Z" fill="#2F2E41"/>
<path d="M221.764 25.5538L231.576 23.1797L234.283 29.6237C234.283 29.6237 248.287 37.085 248.964 47.2596C248.964 47.2596 250.862 55.3993 249.17 59.13C247.479 62.8607 240.373 74.7311 240.373 74.7311C240.373 74.7311 246.802 95.4194 245.11 96.4369C243.418 97.4544 203.154 95.4194 203.154 93.3845C203.154 91.3496 209.855 69.9829 209.855 69.9829L211.275 33.3544L220.41 29.9628L221.764 25.5538Z" fill="#3F3D56"/>
<path d="M247.923 109.042C245.869 108.004 245.043 105.495 246.078 103.436C246.182 103.229 246.304 103.038 246.436 102.856L240.976 65.3332L248.535 65.5755L252.49 102.136C253.923 103.354 254.398 105.436 253.515 107.192C252.48 109.251 249.976 110.079 247.923 109.042Z" fill="#FFB6B6"/>
<path d="M176.198 91.332C175.372 89.1809 176.441 86.7653 178.587 85.9365C178.803 85.8531 179.022 85.794 179.241 85.7482L200.333 54.2693L205.772 59.537L184.209 89.289C184.455 91.1565 183.412 93.0189 181.581 93.726C179.435 94.5549 177.025 93.483 176.198 91.332Z" fill="#FFB6B6"/>
<path d="M234.149 55.8688C232.013 48.5141 235.56 41.0104 243.202 41.0467C245.411 41.0571 247.127 41.6996 247.602 43.4779C249.267 49.7021 250.174 59.0975 250.174 59.0975L252.149 69.1007L250.953 71.1778L253.446 77.8815L252.237 81.0529L251.975 97.2486L245.885 96.9095L239.175 84.5628L236.609 83.0335C236.609 83.0335 238.669 63.0708 234.571 57.3231L234.149 55.8688Z" fill="#3F3D56"/>
<path d="M206.868 37.7686C210.43 30.9913 219.547 29.3859 225.018 34.7335C226.6 36.2791 227.389 37.9362 226.498 39.5465C223.382 45.1825 216.158 51.2508 216.158 51.2508L207.261 65.5866L204.962 66.2477L202.109 72.8059L195.996 80.0104L187.899 84.2905L183.162 79.5424L184.168 73.4388L196.357 57.1583C196.357 57.1583 205.128 46.0967 206.164 39.1087L206.868 37.7686Z" fill="#3F3D56"/>
<path d="M223.628 23.5716C223.852 23.5986 224.076 23.6189 224.298 23.629C224.99 23.6671 225.673 23.6275 226.331 23.5156C228.332 23.1942 230.149 22.2445 231.551 20.8517C233.034 19.382 234.049 17.4204 234.323 15.1873C234.965 9.91611 231.221 5.11444 225.962 4.47036C220.779 3.83179 216.054 7.46567 215.3 12.6158C215.288 12.6956 215.276 12.7719 215.267 12.8513C214.625 18.1259 218.366 22.9245 223.628 23.5716Z" fill="#FFB6B6"/>
<path d="M213.137 12.263C214.499 12.9382 216.725 10.8154 217.578 12.0368C217.716 11.7728 217.869 11.5176 218.02 11.2762C218.157 11.0601 218.353 10.599 218.579 10.5201C218.293 11.2127 218.356 12.1507 218.653 12.9544C219.997 13.4577 221.756 12.3437 222.999 11.026C224.952 8.95985 228.141 14.2581 227.387 17C228.347 15.8255 230.429 16.4879 231.134 17.8308C231.84 19.1704 230.648 20.2438 230.393 21.738L232.317 21.4931C233.53 20.3083 233.446 18.3117 234.445 16.9384C236.114 14.6402 236.761 12.2953 235.506 9.9234C234.393 7.82619 234.289 5.11194 232.247 3.90284C233.139 3.46554 229.966 4.1487 230.814 2.72361C231.665 1.3015 227.127 1.1289 226.831 1.89078C225.534 0.335234 224.227 -0.69037 222.631 0.556068C221.065 1.78236 221.227 3.07134 219.387 2.95583C218.524 2.90221 218.619 4.51568 218.105 5.21911C217.595 5.9188 215.612 6.36797 215.515 6.29309C214.991 5.88225 213.209 9.37971 213.209 9.37971C213.209 9.37971 211.764 11.5787 213.137 12.263Z" fill="#2F2E41"/>
<path d="M93.0748 73.3072C125.308 73.3072 151.438 99.499 151.438 131.808C151.438 164.117 125.308 190.309 93.0748 190.309C60.8418 190.309 16.2326 158.276 34.7118 131.808C53.191 105.341 60.8418 73.3072 93.0748 73.3072Z" fill="#F2F2F2"/>
<path d="M171.189 76.0902C170.666 76.0902 170.24 76.5168 170.24 77.0414V107.481C170.24 108.006 170.666 108.432 171.189 108.432C171.713 108.432 172.138 108.006 172.138 107.481V77.0414C172.138 76.5168 171.713 76.0902 171.189 76.0902Z" fill="#3F3D56"/>
<path d="M11.7589 53.2605C11.2355 53.2605 10.8099 53.6871 10.8099 54.2117V61.8216C10.8099 62.3463 11.2355 62.7729 11.7589 62.7729C12.2822 62.7729 12.7078 62.3463 12.7078 61.8216V54.2117C12.7078 53.6871 12.2822 53.2605 11.7589 53.2605Z" fill="#3F3D56"/>
<path d="M11.7589 76.0902C11.2355 76.0902 10.8099 76.5168 10.8099 77.0414V91.7856C10.8099 92.3102 11.2355 92.7368 11.7589 92.7368C12.2822 92.7368 12.7078 92.3102 12.7078 91.7856V77.0414C12.7078 76.5168 12.2822 76.0902 11.7589 76.0902Z" fill="#3F3D56"/>
<path d="M11.7589 97.0174C11.2355 97.0174 10.8099 97.444 10.8099 97.9686V112.713C10.8099 113.237 11.2355 113.664 11.7589 113.664C12.2822 113.664 12.7078 113.237 12.7078 112.713V97.9686C12.7078 97.444 12.2822 97.0174 11.7589 97.0174Z" fill="#3F3D56"/>
<path d="M96.8708 23.2966C96.3474 23.2966 95.9218 23.7232 95.9218 24.2478V38.992C95.9218 39.5166 96.3474 39.9432 96.8708 39.9432C97.3942 39.9432 97.8198 39.5166 97.8198 38.992V24.2478C97.8198 23.7232 97.3942 23.2966 96.8708 23.2966Z" fill="#3F3D56"/>
<path d="M242.254 205.756C243.235 205.818 243.776 204.597 243.035 203.885L242.961 203.591C242.971 203.568 242.98 203.544 242.99 203.521C243.982 201.151 247.341 201.168 248.324 203.541C249.197 205.647 250.307 207.756 250.581 209.983C250.703 210.966 250.648 211.968 250.431 212.932C252.475 208.457 253.551 203.569 253.551 198.654C253.551 197.419 253.483 196.184 253.345 194.952C253.232 193.945 253.076 192.943 252.873 191.951C251.779 186.587 249.41 181.479 245.993 177.212C244.35 176.312 242.98 174.905 242.153 173.218C241.856 172.61 241.623 171.956 241.512 171.289C241.699 171.314 242.217 168.46 242.076 168.285C242.337 167.888 242.803 167.691 243.088 167.305C244.503 165.382 246.452 165.717 247.47 168.331C249.644 169.431 249.666 171.255 248.331 173.009C247.483 174.125 247.366 175.636 246.621 176.831C246.698 176.929 246.778 177.024 246.854 177.123C248.259 178.929 249.474 180.871 250.499 182.91C250.209 180.643 250.637 177.912 251.366 176.152C252.195 174.146 253.75 172.457 255.119 170.723C256.764 168.64 260.136 169.549 260.426 172.189C260.429 172.215 260.431 172.24 260.434 172.266C260.231 172.381 260.031 172.503 259.837 172.632C258.727 173.368 259.11 175.093 260.426 175.296L260.455 175.301C260.382 176.035 260.256 176.763 260.072 177.479C261.829 184.288 258.037 186.768 252.622 186.879C252.503 186.941 252.386 187.002 252.267 187.06C252.815 188.609 253.253 190.197 253.578 191.807C253.869 193.229 254.072 194.667 254.185 196.11C254.326 197.932 254.314 199.763 254.161 201.582L254.17 201.517C254.559 199.514 255.644 197.643 257.219 196.347C259.566 194.415 262.881 193.703 265.413 192.15C266.631 191.402 268.193 192.368 267.98 193.785L267.97 193.853C267.593 194.006 267.225 194.184 266.87 194.384C266.666 194.499 266.467 194.621 266.273 194.75C265.163 195.486 265.546 197.211 266.862 197.414L266.891 197.419C266.913 197.422 266.931 197.425 266.953 197.428C266.306 198.967 265.405 200.396 264.277 201.628C263.179 207.571 258.462 208.135 253.416 206.405H253.413C252.861 208.813 252.055 211.166 251.019 213.409H242.469C242.438 213.313 242.41 213.215 242.383 213.12C243.174 213.169 243.97 213.123 244.749 212.978C244.114 212.198 243.48 211.412 242.846 210.631C242.83 210.616 242.818 210.601 242.806 210.585C242.484 210.186 242.159 209.79 241.837 209.39L241.837 209.39C241.817 208.164 241.964 206.942 242.254 205.756Z" fill="#F2F2F2"/>
<path d="M0 213.434C0 213.748 0.251497 214 0.564678 214H267.369C267.682 214 267.933 213.748 267.933 213.434C267.933 213.12 267.682 212.868 267.369 212.868H0.564678C0.251497 212.868 0 213.12 0 213.434Z" fill="#9153F4"/>
<path d="M67.5568 127.865H34.7119V126.914H67.5568C70.41 126.914 72.7313 124.587 72.7313 121.726V99.4662H73.6803V121.726C73.6803 125.111 70.9334 127.865 67.5568 127.865Z" fill="#9153F4"/>
<path d="M130.228 176.119H55.525V177.07H130.228V176.119Z" fill="#9153F4"/>
<path d="M177.624 121.504H137.723C135.57 121.504 133.818 119.748 133.818 117.59V78.0823C133.818 75.9239 135.57 74.168 137.723 74.168H177.624C179.777 74.168 181.529 75.9239 181.529 78.0823V117.59C181.529 119.748 179.777 121.504 177.624 121.504Z" fill="#E6E6E6"/>
<path d="M145.154 75.3342C139.536 75.3342 134.981 79.8993 134.981 85.5307V116.752C134.981 118.732 136.583 120.338 138.559 120.338H162.958C172.572 120.338 180.366 112.526 180.366 102.889V78.9205C180.366 76.9398 178.764 75.3342 176.788 75.3342L145.154 75.3342Z" fill="white"/>
<path d="M168.36 86.8154H146.903C146.494 86.8154 146.161 86.4815 146.161 86.0712C146.161 85.6608 146.494 85.3271 146.903 85.3271H168.36C168.77 85.3271 169.102 85.6608 169.102 86.0712C169.102 86.4815 168.77 86.8154 168.36 86.8154Z" fill="#E6E6E6"/>
<path d="M168.36 102.684H146.903C146.494 102.684 146.161 102.35 146.161 101.939C146.161 101.529 146.494 101.195 146.903 101.195H168.36C168.77 101.195 169.102 101.529 169.102 101.939C169.102 102.35 168.77 102.684 168.36 102.684Z" fill="#E6E6E6"/>
<path d="M177.073 94.7547H138.19C137.781 94.7547 137.448 94.4208 137.448 94.0105C137.448 93.6002 137.781 93.2665 138.19 93.2665H177.073C177.483 93.2665 177.816 93.6002 177.816 94.0105C177.816 94.4208 177.483 94.7547 177.073 94.7547Z" fill="#E6E6E6"/>
<path d="M177.47 109.136H163.424C163.014 109.136 162.681 108.802 162.681 108.392C162.681 107.981 163.014 107.647 163.424 107.647H177.47C177.88 107.647 178.213 107.981 178.213 108.392C178.213 108.802 177.88 109.136 177.47 109.136Z" fill="#E6E6E6"/>
<path d="M93.8131 200.221H62.1289C60.419 200.221 59.028 198.827 59.028 197.113V165.741C59.028 164.027 60.419 162.633 62.1289 162.633H93.8131C95.523 162.633 96.9141 164.027 96.9141 165.741V197.113C96.9141 198.827 95.523 200.221 93.8131 200.221Z" fill="#E6E6E6"/>
<path d="M68.0295 163.559C63.5684 163.559 59.9519 167.184 59.9519 171.656V196.447C59.9519 198.02 61.2239 199.295 62.7929 199.295H82.167C89.8013 199.295 95.9901 193.092 95.9901 185.439V166.407C95.9901 164.834 94.7181 163.559 93.1491 163.559L68.0295 163.559Z" fill="white"/>
<path d="M86.457 172.676H69.4187C69.0936 172.676 68.8291 172.411 68.8291 172.085C68.8291 171.759 69.0936 171.494 69.4187 171.494H86.457C86.782 171.494 87.0464 171.759 87.0464 172.085C87.0464 172.411 86.782 172.676 86.457 172.676Z" fill="#E6E6E6"/>
<path d="M86.457 185.276H69.4187C69.0936 185.276 68.8291 185.011 68.8291 184.685C68.8291 184.36 69.0936 184.095 69.4187 184.095H86.457C86.782 184.095 87.0464 184.36 87.0464 184.685C87.0464 185.011 86.782 185.276 86.457 185.276Z" fill="#E6E6E6"/>
<path d="M93.3758 178.98H62.4998C62.1747 178.98 61.9102 178.715 61.9102 178.389C61.9102 178.063 62.1747 177.798 62.4998 177.798H93.3758C93.7009 177.798 93.9653 178.063 93.9653 178.389C93.9653 178.715 93.7009 178.98 93.3758 178.98Z" fill="#E6E6E6"/>
<path d="M93.6911 190.4H82.537C82.212 190.4 81.9475 190.135 81.9475 189.809C81.9475 189.483 82.212 189.218 82.537 189.218H93.6911C94.0162 189.218 94.2805 189.483 94.2805 189.809C94.2805 190.135 94.0162 190.4 93.6911 190.4Z" fill="#E6E6E6"/>
<path d="M71.6678 99.2262H48.236C46.9714 99.2262 45.9427 98.195 45.9427 96.9275V73.7267C45.9427 72.4592 46.9714 71.428 48.2359 71.428H71.6678C72.9323 71.428 73.9611 72.4592 73.9611 73.7267V96.9275C73.9611 98.195 72.9323 99.2262 71.6678 99.2262Z" fill="#E6E6E6"/>
<path d="M52.5997 72.1129C49.3005 72.1129 46.626 74.7937 46.626 78.1008V96.4352C46.626 97.5984 47.5666 98.5413 48.727 98.5413H63.055C68.7009 98.5413 73.2778 93.9535 73.2778 88.2943V74.2189C73.2778 73.0558 72.3371 72.1129 71.1767 72.1129L52.5997 72.1129Z" fill="white"/>
<path d="M66.2276 78.8552H53.6271C53.3867 78.8552 53.191 78.6591 53.191 78.4181C53.191 78.1772 53.3867 77.9812 53.6271 77.9812H66.2276C66.468 77.9812 66.6635 78.1772 66.6635 78.4181C66.6635 78.6591 66.468 78.8552 66.2276 78.8552Z" fill="#E6E6E6"/>
<path d="M66.2276 88.1738H53.6271C53.3867 88.1738 53.191 87.9777 53.191 87.7368C53.191 87.4958 53.3867 87.2998 53.6271 87.2998H66.2276C66.468 87.2998 66.6635 87.4958 66.6635 87.7368C66.6635 87.9777 66.468 88.1738 66.2276 88.1738Z" fill="#E6E6E6"/>
<path d="M71.3444 83.5175H48.5102C48.2698 83.5175 48.0742 83.3215 48.0742 83.0805C48.0742 82.8395 48.2698 82.6436 48.5102 82.6436H71.3444C71.5848 82.6436 71.7803 82.8395 71.7803 83.0805C71.7803 83.3215 71.5848 83.5175 71.3444 83.5175Z" fill="#E6E6E6"/>
<path d="M71.5776 91.9628H63.3286C63.0883 91.9628 62.8926 91.7667 62.8926 91.5257C62.8926 91.2848 63.0882 91.0888 63.3286 91.0888H71.5776C71.818 91.0888 72.0135 91.2848 72.0135 91.5257C72.0135 91.7667 71.818 91.9628 71.5776 91.9628Z" fill="#E6E6E6"/>
<path d="M140.05 128.479C142.67 128.479 144.795 126.35 144.795 123.723C144.795 121.096 142.67 118.967 140.05 118.967C137.429 118.967 135.305 121.096 135.305 123.723C135.305 126.35 137.429 128.479 140.05 128.479Z" fill="#9153F4"/>
<path d="M73.146 104.222C75.7666 104.222 77.8909 102.093 77.8909 99.4662C77.8909 96.8394 75.7666 94.71 73.146 94.71C70.5254 94.71 68.401 96.8394 68.401 99.4662C68.401 102.093 70.5254 104.222 73.146 104.222Z" fill="#9153F4"/>
<path d="M95.9218 169.382C98.5423 169.382 100.667 167.253 100.667 164.626C100.667 161.999 98.5423 159.87 95.9218 159.87C93.3012 159.87 91.1768 161.999 91.1768 164.626C91.1768 167.253 93.3012 169.382 95.9218 169.382Z" fill="#9153F4"/>
<path d="M106.171 37.5038C109.437 37.5038 112.085 34.9058 112.085 31.7009C112.085 28.4961 109.437 25.8981 106.171 25.8981C102.905 25.8981 100.258 28.4961 100.258 31.7009C100.258 34.9058 102.905 37.5038 106.171 37.5038Z" fill="#F2F2F2"/>
<path d="M153.58 29.7157H121.748C120.656 29.7157 119.768 28.8252 119.768 27.7306C119.768 26.636 120.656 25.7454 121.748 25.7454H153.58C154.672 25.7454 155.56 26.636 155.56 27.7306C155.56 28.8252 154.672 29.7157 153.58 29.7157Z" fill="#F2F2F2"/>
<path d="M178.421 36.4349H121.748C120.656 36.4349 119.768 35.5443 119.768 34.4497C119.768 33.3551 120.656 32.4645 121.748 32.4645H178.421C179.513 32.4645 180.402 33.3551 180.402 34.4497C180.402 35.5443 179.513 36.4349 178.421 36.4349Z" fill="#F2F2F2"/>
<path d="M20.5737 61.8924C22.6875 61.8924 24.401 60.211 24.401 58.1368C24.401 56.0627 22.6875 54.3813 20.5737 54.3813C18.4599 54.3813 16.7464 56.0627 16.7464 58.1368C16.7464 60.211 18.4599 61.8924 20.5737 61.8924Z" fill="#F2F2F2"/>
<path d="M51.2556 56.852H30.6547C29.948 56.852 29.373 56.2757 29.373 55.5673C29.373 54.8588 29.948 54.2825 30.6547 54.2825H51.2556C51.9623 54.2825 52.5374 54.8588 52.5374 55.5673C52.5374 56.2757 51.9623 56.852 51.2556 56.852Z" fill="#F2F2F2"/>
<path d="M67.3326 61.2006H30.6547C29.948 61.2006 29.373 60.6242 29.373 59.9158C29.373 59.2074 29.948 58.631 30.6547 58.631H67.3326C68.0393 58.631 68.6144 59.2074 68.6144 59.9158C68.6144 60.6242 68.0393 61.2006 67.3326 61.2006Z" fill="#F2F2F2"/>
<path d="M135.402 195.541C137.515 195.541 139.229 193.86 139.229 191.786C139.229 189.711 137.515 188.03 135.402 188.03C133.288 188.03 131.574 189.711 131.574 191.786C131.574 193.86 133.288 195.541 135.402 195.541Z" fill="#F2F2F2"/>
<path d="M166.084 190.501H145.483C144.776 190.501 144.201 189.924 144.201 189.216C144.201 188.508 144.776 187.931 145.483 187.931H166.084C166.79 187.931 167.365 188.508 167.365 189.216C167.365 189.924 166.79 190.501 166.084 190.501Z" fill="#F2F2F2"/>
<path d="M182.161 194.849H145.483C144.776 194.849 144.201 194.273 144.201 193.564C144.201 192.856 144.776 192.28 145.483 192.28H182.161C182.867 192.28 183.442 192.856 183.442 193.564C183.442 194.273 182.867 194.849 182.161 194.849Z" fill="#F2F2F2"/>
<path d="M89.3974 74.1823H88.4484V119.366H89.3974V74.1823Z" fill="#E6E6E6"/>
<path d="M88.9229 122.22C90.4952 122.22 91.7699 120.942 91.7699 119.366C91.7699 117.79 90.4952 116.512 88.9229 116.512C87.3506 116.512 86.0759 117.79 86.0759 119.366C86.0759 120.942 87.3506 122.22 88.9229 122.22Z" fill="#E6E6E6"/>
<path d="M132.102 155.037C133.674 155.037 134.949 153.76 134.949 152.184C134.949 150.608 133.674 149.33 132.102 149.33C130.53 149.33 129.255 150.608 129.255 152.184C129.255 153.76 130.53 155.037 132.102 155.037Z" fill="#E6E6E6"/>
<path d="M55.2337 116.037C56.8061 116.037 58.0807 114.759 58.0807 113.183C58.0807 111.607 56.8061 110.329 55.2337 110.329C53.6614 110.329 52.3867 111.607 52.3867 113.183C52.3867 114.759 53.6614 116.037 55.2337 116.037Z" fill="#E6E6E6"/>
<path d="M54.1816 113.187L38.612 113.66L38.6408 114.611L54.2103 114.139L54.1816 113.187Z" fill="#E6E6E6"/>
<path d="M155.263 163.109H131.654V152.184H132.603V162.157H155.263V163.109Z" fill="#E6E6E6"/>
<path d="M54.0651 147.197C55.6375 147.197 56.9121 145.919 56.9121 144.343C56.9121 142.767 55.6375 141.49 54.0651 141.49C52.4928 141.49 51.2182 142.767 51.2182 144.343C51.2182 145.919 52.4928 147.197 54.0651 147.197Z" fill="#E6E6E6"/>
<path d="M76.9447 155.268H53.3357V144.343H54.2847V154.317H76.9447V155.268Z" fill="#E6E6E6"/>
<path d="M149.184 133.485H35.7877V134.436H149.184V133.485Z" fill="#E6E6E6"/>
</g>
<defs>
<clipPath id="clip0_27_7">
<rect width="268" height="214" fill="white"/>
</clipPath>
</defs>
</svg>
