<svg width="50" height="51" viewBox="0 0 50 51" fill="none" xmlns="http://www.w3.org/2000/svg">
<path fill-rule="evenodd" clip-rule="evenodd" d="M38.2037 37.1029H32.224V26.6675C32.224 23.8048 30.9578 22.2077 28.687 22.2077C26.2159 22.2077 24.7494 23.8719 24.7494 26.6675L24.7494 37.1029H18.7697V17.7202H24.7494V19.8999C24.7494 19.8999 26.6255 16.6165 30.8531 16.6165C35.0823 16.6165 38.2037 19.1905 38.2037 24.5162V37.1029ZM11.9558 14.6203C9.93913 14.6203 8.30518 12.9773 8.30518 10.9511C8.30518 8.92633 9.93913 7.28333 11.9558 7.28333C13.9709 7.28333 15.6049 8.92633 15.6049 10.9511C15.6064 12.9773 13.9709 14.6203 11.9558 14.6203ZM8.30518 37.1029H15.7798L15.7798 17.7202H8.30518L8.30518 37.1029Z" fill="#9153F4"/>
<circle cx="24.9154" cy="25.6036" r="23.4154" stroke="#9153F4" stroke-width="3"/>
</svg>
