<svg width="66" height="38" viewBox="0 0 66 38" fill="none" xmlns="http://www.w3.org/2000/svg">
<g clip-path="url(#clip0_25_91)">
<path d="M32.7765 23.1769C32.5768 23.1769 32.3825 23.2182 32.2105 23.3155L26.769 26.4579C26.4169 26.6609 26.2029 27.044 26.2029 27.4517V33.7252C26.2029 34.1325 26.4169 34.5152 26.769 34.7186L28.1901 35.539C28.8806 35.8793 29.135 35.874 29.4493 35.874C30.4715 35.874 31.0552 35.2537 31.0552 34.1757V27.983C31.0552 27.8956 30.9795 27.8329 30.8935 27.8329H30.2119C30.1245 27.8329 30.0502 27.8956 30.0502 27.983V34.1757C30.0502 34.6534 29.5524 35.1341 28.7447 34.7302L27.2658 33.8638C27.2135 33.8353 27.1733 33.7851 27.1733 33.7252V27.4516C27.1733 27.3921 27.213 27.3316 27.2658 27.3014L32.6958 24.1707C32.7203 24.1564 32.7482 24.1488 32.7767 24.1488C32.805 24.1488 32.8329 24.1564 32.8575 24.1707L38.2876 27.3016C38.3393 27.3327 38.3801 27.3903 38.3801 27.4519V33.7253C38.3801 33.7852 38.3499 33.8465 38.2992 33.8755L32.8575 37.0064C32.8109 37.0341 32.7467 37.0341 32.6958 37.0064L31.2979 36.1746C31.2766 36.163 31.2527 36.157 31.2285 36.157C31.2043 36.157 31.1805 36.163 31.1593 36.1746C30.7734 36.3933 30.7008 36.4186 30.3389 36.5442C30.2498 36.5754 30.1144 36.6237 30.3851 36.7754L32.2105 37.8497C32.3826 37.9489 32.578 38.0009 32.7767 38C32.9754 38.0012 33.1708 37.9494 33.3427 37.8498L38.7845 34.7188C39.1366 34.5141 39.3505 34.1327 39.3505 33.7253V27.4517C39.3505 27.0442 39.1366 26.6617 38.7845 26.4582L33.3427 23.3158C33.1722 23.2183 32.9765 23.1769 32.7765 23.1769Z" fill="#84C00B"/>
<path d="M34.2325 27.6596C32.683 27.6596 31.7601 28.3191 31.7601 29.4158C31.7601 30.6053 32.676 30.9322 34.1633 31.0793C35.9424 31.2535 36.081 31.5148 36.081 31.865C36.081 32.4725 35.5967 32.7315 34.4522 32.7315C33.0139 32.7315 32.6978 32.3724 32.5921 31.6571C32.5796 31.5803 32.5203 31.5183 32.4418 31.5183H31.737C31.6503 31.5183 31.5753 31.5931 31.5753 31.6802C31.5753 32.596 32.0734 33.6788 34.4522 33.6788C36.174 33.6788 37.1671 33.003 37.1671 31.8187C37.1671 30.645 36.3649 30.3298 34.6946 30.109C33.007 29.8856 32.8461 29.7762 32.8461 29.3811C32.8461 29.0548 32.9826 28.6183 34.2325 28.6183C35.3491 28.6183 35.7618 28.8592 35.9309 29.6122C35.9456 29.6828 36.008 29.7392 36.081 29.7392H36.7859C36.8293 29.7392 36.8714 29.7125 36.9014 29.6814C36.9309 29.6481 36.9518 29.6107 36.9477 29.5659C36.8384 28.2694 35.9739 27.6596 34.2325 27.6596Z" fill="#84C00B"/>
<path d="M43.9243 0.000150889C43.8635 0.000191235 43.8037 0.0160742 43.7509 0.0462356C43.6983 0.076949 43.6548 0.120807 43.6244 0.173487C43.594 0.226169 43.5779 0.285856 43.5776 0.346669V9.18497C43.5776 9.2717 43.5373 9.34941 43.4621 9.39293C43.4253 9.41438 43.3834 9.42566 43.3408 9.42566C43.2982 9.42566 43.2563 9.41438 43.2195 9.39293L41.7753 8.56116C41.67 8.50023 41.5504 8.46812 41.4287 8.46812C41.307 8.46812 41.1875 8.50023 41.0821 8.56116L35.317 11.8884C35.1015 12.0128 34.9705 12.2519 34.9705 12.5008V19.1555C34.9705 19.4041 35.1017 19.6318 35.317 19.7562L41.0821 23.0837C41.1874 23.1448 41.307 23.1769 41.4287 23.1769C41.5505 23.1769 41.67 23.1448 41.7753 23.0837L47.5404 19.7562C47.6459 19.6955 47.7336 19.6079 47.7945 19.5025C47.8554 19.397 47.8873 19.2773 47.8871 19.1555V2.565C47.8869 2.44036 47.8537 2.318 47.7908 2.21041C47.7279 2.10281 47.6375 2.01384 47.529 1.95257L44.0975 0.0346743C44.0437 0.00464696 43.984 -0.000651982 43.9243 0.000150889ZM6.8381 8.30699C6.72827 8.31128 6.62487 8.33058 6.52626 8.38777L0.761013 11.7152C0.655404 11.7758 0.567723 11.8634 0.506866 11.9688C0.446008 12.0743 0.41414 12.1941 0.414493 12.3159L0.426054 21.2468C0.426054 21.371 0.490123 21.4864 0.599314 21.5471C0.651659 21.5785 0.711583 21.5952 0.772652 21.5952C0.833722 21.5952 0.893646 21.5785 0.945994 21.5471L4.36574 19.5831C4.58235 19.4543 4.72382 19.2305 4.72382 18.9822V14.8115C4.72382 14.5626 4.85469 14.3343 5.0705 14.2107L6.52607 13.3673C6.63137 13.3061 6.75107 13.2742 6.87279 13.2748C6.99163 13.2748 7.11366 13.3045 7.21933 13.3673L8.67503 14.2107C8.78076 14.2713 8.86853 14.3588 8.92945 14.4643C8.99031 14.5699 9.02218 14.6896 9.02175 14.8115V18.9821C9.02175 19.2303 9.16468 19.4558 9.37981 19.5829L12.7996 21.5471C12.8519 21.5785 12.9118 21.5952 12.9729 21.5952C13.034 21.5952 13.0939 21.5785 13.1462 21.5471C13.1989 21.5166 13.2427 21.4728 13.2732 21.4201C13.3036 21.3673 13.3196 21.3075 13.3197 21.2467L13.3309 12.3159C13.3316 12.194 13.2999 12.0741 13.239 11.9686C13.1781 11.8631 13.0902 11.7756 12.9844 11.7152L7.21933 8.38777C7.12181 8.33058 7.01811 8.31146 6.90748 8.30699H6.8381ZM58.6431 8.38777C58.5227 8.38777 58.4047 8.41823 58.2966 8.48025L52.5315 11.8076C52.426 11.8684 52.3383 11.9559 52.2774 12.0614C52.2165 12.1669 52.1846 12.2866 52.1848 12.4083V19.063C52.1848 19.3134 52.3258 19.5401 52.5429 19.6639L58.262 22.9219C58.4731 23.0423 58.731 23.0515 58.9436 22.9332L62.4095 21.0039C62.5198 20.9428 62.594 20.8288 62.5946 20.7036C62.5952 20.6426 62.5793 20.5826 62.5486 20.5297C62.5186 20.4769 62.4744 20.4332 62.4211 20.4032L56.6213 17.0757C56.5128 17.0138 56.4366 16.8884 56.4366 16.7638V14.6843C56.4366 14.5599 56.5136 14.4459 56.6213 14.3839L58.4236 13.344C58.4763 13.3135 58.5361 13.2975 58.597 13.2975C58.6578 13.2975 58.7177 13.3135 58.7703 13.344L60.5724 14.3839C60.6253 14.4142 60.6691 14.458 60.6995 14.5107C60.73 14.5634 60.7459 14.6233 60.7459 14.6842V16.3247C60.7457 16.3857 60.7616 16.4455 60.7921 16.4982C60.8225 16.551 60.8663 16.5947 60.9191 16.625C61.0272 16.6875 61.1579 16.6876 61.2656 16.625L64.7201 14.6151C64.8255 14.5541 64.9132 14.4665 64.9739 14.3611C65.0345 14.2556 65.067 14.136 65.067 14.0143V12.4085C65.067 12.1604 64.9353 11.9322 64.7201 11.8076L58.9898 8.48025C58.8845 8.41927 58.7649 8.38728 58.6431 8.38777ZM41.4055 13.3557C41.4357 13.3557 41.4711 13.3631 41.498 13.3787L43.4737 14.5224C43.5273 14.5535 43.5662 14.6108 43.5662 14.6726V16.9601C43.5662 17.0223 43.5277 17.0795 43.4737 17.1104L41.498 18.2542C41.4716 18.2693 41.4418 18.2772 41.4114 18.2772C41.381 18.2772 41.3511 18.2693 41.3248 18.2542L39.3492 17.1104C39.2954 17.0793 39.2567 17.0223 39.2567 16.9601V14.6726C39.2567 14.6106 39.2956 14.5538 39.3492 14.5224L41.3248 13.3789C41.349 13.3637 41.377 13.3556 41.4055 13.3557Z" fill="#404137"/>
<path d="M24.8454 8.58064C24.7252 8.58064 24.6064 8.61111 24.4988 8.67313L18.7337 11.9889C18.5181 12.1131 18.3871 12.3527 18.3871 12.6012V19.2559C18.3871 19.5048 18.5182 19.7322 18.7337 19.8568L24.4988 23.184C24.6041 23.2452 24.7237 23.2774 24.8454 23.2774C24.9672 23.2774 25.0868 23.2452 25.192 23.184L30.9571 19.8568C31.0627 19.796 31.1503 19.7084 31.2112 19.6029C31.272 19.4974 31.3039 19.3777 31.3037 19.2559V12.6012C31.3037 12.3523 31.1726 12.1131 30.9571 11.9889L25.192 8.67313C25.0867 8.61227 24.967 8.58034 24.8454 8.58064ZM59.3204 14.5191C59.2975 14.5191 59.272 14.5191 59.2512 14.5307L58.1421 15.1776C58.1215 15.1892 58.1042 15.2059 58.092 15.2262C58.0798 15.2465 58.0732 15.2696 58.0728 15.2933V16.564C58.0728 16.6119 58.1004 16.6557 58.1421 16.6797L59.2512 17.3151C59.2929 17.3392 59.3372 17.3392 59.3782 17.3151L60.4873 16.6795C60.5079 16.668 60.5252 16.6512 60.5374 16.6309C60.5495 16.6107 60.5562 16.5877 60.5567 16.564V15.2931C60.5562 15.2695 60.5495 15.2464 60.5374 15.2262C60.5252 15.2059 60.5079 15.1892 60.4873 15.1776L59.3782 14.5305C59.3577 14.5185 59.3435 14.5191 59.3204 14.5191Z" fill="#84C00B"/>
</g>
<defs>
<clipPath id="clip0_25_91">
<rect width="65.5806" height="38" fill="white"/>
</clipPath>
</defs>
</svg>
