<svg width="54" height="54" viewBox="0 0 54 54" fill="none" xmlns="http://www.w3.org/2000/svg">
<path d="M22.4573 37.5735C23.3854 37.6157 24.3338 37.6461 25.2939 37.6461C26.2643 37.6461 27.2228 37.6258 28.1627 37.5735C27.2228 38.7885 
26.2946 39.8635 25.3125 40.8878L25.326 40.8743C24.3489 39.8618 23.4107 38.7851 22.5264 37.6646L22.4573 37.5735ZM12.8419 36.2235C14.6694 
36.6876 16.8986 37.0825 19.1734 37.3255L19.3944 37.344C20.7866 39.256 22.194 40.9384 23.7043 42.5213L23.6858 42.501C21.4734 44.9698 18.4883 46.7046 
15.1116 47.3273L15.0188 47.3408C15.012 47.3408 15.0052 47.3408 14.9985 47.3408C14.58 47.3408 14.1851 47.2378 13.8392 47.0556L13.8527 47.0623C12.4487 46.2608 
11.8395 43.1946 12.3137 39.2543C12.4268 38.284 12.6124 37.263 12.8402 36.2218L12.8419 36.2235ZM37.7882 36.2016C37.9873 37.0015 38.1746 38.0207 38.3079 39.0568L38.3231 
39.202C38.8074 43.1406 38.2101 46.2034 36.8179 47.0218C36.5074 47.194 36.1361 47.2952 35.7413 47.2952C35.7024 47.2952 35.6636 47.2935 35.6248 47.2918H35.6299C32.1654 46.659 
29.1819 44.9361 26.9747 42.4977L26.9629 42.4842C28.4462 40.9266 29.8434 39.2475 31.1243 37.4807L31.2221 37.339C33.7129 37.0791 35.9454 36.6775 38.1206 36.129L37.7882 
36.1999V36.2016ZM14.8146 29.9038C15.2364 30.7307 15.6786 31.5542 16.1646 32.3811C16.6494 33.2035 17.145 34.0067 17.6513 34.7908C16.1865 34.5765 14.7724 34.3065 13.4207 
33.9775C13.8004 32.6494 14.2763 31.2741 14.8129 29.9005L14.8146 29.9038ZM35.7868 29.8617C36.3454 31.2471 36.8196 32.6292 37.2128 33.969C35.8628 34.2998 34.4368 34.5799 
32.9619 34.7908C33.4682 33.9994 33.9744 33.1843 34.4486 32.349C34.9228 31.5272 35.3666 30.6868 35.7902 29.86L35.7868 29.8617ZM11.1611 20.8352C11.8969 23.3293 12.6866 25.4151 
13.6063 27.4266L13.4798 27.1195C12.6934 28.8154 11.9154 30.8893 11.2776 33.024L11.1898 33.37C9.99844 33.0038 9.03994 32.6443 8.10675 32.241L8.30081 32.3153C4.64906 30.7611 
2.28656 28.7175 2.28656 27.0975C2.28656 25.4775 4.64906 23.4238 8.30081 21.8764C9.18675 21.4967 10.1588 21.1542 11.1611 20.8352ZM39.4082 20.8268C40.4291 21.1423 41.3994 
21.495 42.3073 21.8764C45.9591 23.4373 48.3216 25.4775 48.3216 27.0975C48.3114 28.7175 45.9489 30.7662 42.2972 32.317C41.4113 32.6967 40.4409 33.0375 39.4403 
33.3565C38.6978 30.8539 37.908 28.7698 36.9917 26.755L37.1199 27.0722C37.9029 25.378 38.6826 23.304 39.3188 21.1693L39.4082 20.8217V20.8268ZM32.9484 
19.4042C34.4149 19.6219 35.8273 19.8885 37.179 20.221C36.7993 21.5541 36.3251 22.9243 35.7868 24.298C35.3649 23.4762 34.9228 22.6476 34.4368 21.8224C33.9626 
20.9955 33.4564 20.1906 32.9501 19.4059L32.9484 19.4042ZM17.6394 19.4042C17.1332 20.199 16.6269 21.0124 16.1544 21.8511C15.6803 22.6729 15.2364 23.4998 14.8146 
24.3267C14.256 22.9429 13.7818 21.5642 13.3886 20.221C14.7386 19.9054 16.1612 19.6236 17.6378 19.4076L17.6394 19.4042ZM25.3041 18.8676C26.865 18.8676 28.4192 
18.9385 29.9481 19.0633C30.8042 20.2907 31.6356 21.598 32.4422 22.9851C33.2263 24.3351 33.9418 25.7031 34.5887 27.0891C33.939 28.4712 33.2269 29.8515 32.4523 
31.2015C31.6508 32.5937 30.8222 33.9184 29.9633 35.1452C28.4276 35.2785 26.8718 35.3511 25.3024 35.3511C23.7414 35.3511 22.1873 35.2768 20.6584 35.1553C19.8028 
33.9285 18.9675 32.6157 18.1643 31.2336C17.3801 29.8836 16.6646 28.5156 16.0177 27.1296C16.6573 25.7442 17.3796 24.3604 18.1541 23.0087C18.9557 21.6165 19.7843 
20.2969 20.6432 19.0701C22.1788 18.9351 23.7347 18.8642 25.3041 18.8642V18.8676ZM25.272 13.3309C26.2508 14.3434 27.189 15.4183 28.0716 16.5388L28.1391 16.6283C27.2109 
16.5861 26.2626 16.5574 25.3024 16.5574C24.3321 16.5574 23.3736 16.5777 22.4336 16.6283C23.3719 15.4133 24.3 14.3383 25.2838 13.314L25.2703 13.3275L25.272 13.3309ZM14.9766 
6.89815C18.441 7.53265 21.4228 9.25559 23.6318 11.6923L23.6436 11.7058C22.1603 13.2651 20.763 14.9442 19.4822 16.7143L19.3843 16.8561C16.8953 17.1143 14.6627 17.5125 12.4892 
18.061L12.8199 17.9901C12.5837 16.9573 12.4082 15.9567 12.285 14.9965C11.8007 11.0578 12.3981 7.99503 13.7903 7.17996C14.1379 7.01628 14.5446 6.91503 14.9732 6.90153H14.9783L14.9766 
6.89815ZM35.5809 6.85596V6.86946C35.6029 6.86946 35.6282 6.86778 35.6552 6.86778C36.0585 6.86778 36.4382 6.96734 36.7723 7.14284L36.7588 7.13609C38.1628 7.94103 38.772 11.0055 
38.2978 14.9475C38.1848 15.9178 37.9991 16.9405 37.7713 17.9833C35.9404 17.5142 33.7112 17.1177 31.4364 16.8763L31.2204 16.8578C29.8266 14.9442 28.4192 13.2617 26.9089 
11.6772L26.9291 11.6974C29.1414 9.23365 32.1216 7.4989 35.4915 6.87284L35.586 6.85765L35.5809 6.85596ZM35.5911 4.55759C31.4702 5.18365 27.9028 7.18503 25.2973 10.0723L25.2838 
10.0875C22.6598 7.2019 19.0924 5.21403 15.0728 4.61159L14.9783 4.59978C14.9563 4.59978 14.9293 4.59978 14.9023 4.59978C14.0738 4.59978 13.2958 4.81746 12.6225 5.19884L12.6461 
5.18703C9.747 6.85934 9.09731 12.0703 10.5941 18.6094C4.17488 20.5922 0 23.7613 0 27.1009C0 30.454 4.19681 33.6315 10.6346 35.5992C9.14963 42.1635 9.81281 47.383 12.7187 
49.0536C13.3566 49.4198 14.1227 49.6341 14.9378 49.6341C14.9749 49.6341 15.012 49.6341 15.0474 49.6324H15.0424C19.1632 49.0063 22.7306 47.0033 25.3361 44.1143L25.3496 
44.0991C27.9737 46.9864 31.5411 48.9743 35.5607 49.5767L35.6552 49.5885C35.6805 49.5885 35.7126 49.5885 35.7429 49.5885C36.5664 49.5885 37.341 49.3725 38.0109 
48.9962L37.9873 49.008C40.8848 47.3374 41.5361 42.1264 40.0393 35.5857C46.4349 33.6197 50.6098 30.4438 50.6098 27.0992C50.6098 23.7462 46.413 20.5686 39.9752 
18.5959C41.4602 12.0383 40.797 6.81378 37.8911 5.14146C37.2465 4.7719 36.4736 4.55421 35.6501 4.55421C35.6282 4.55421 35.6063 4.55421 35.5843 4.55421H35.5877L35.5911 
4.55759ZM30.0071 27.1009C30.0071 29.7047 27.8961 31.8158 25.2923 31.8158C22.6884 31.8158 20.5774 29.7047 20.5774 27.1009C20.5774 24.4971 22.6884 22.386 25.2923 22.386C26.595 
22.386 27.7729 22.9142 28.6268 23.7664C29.4806 24.6203 30.0071 25.7982 30.0071 27.1009Z" fill="#81E0FF"/>
</svg>
