<svg width="54" height="54" viewBox="0 0 54 54" fill="none" xmlns="http://www.w3.org/2000/svg">
<path d="M46.4656 30.0615C44.5869 30.0713 42.9541 30.5238 41.5869 31.1926C41.0852 30.1992 40.5836 29.3139 40.4951 28.6648C40.3967 27.9074 40.2787 27.4451 40.3967 26.5402C40.5148 25.6352 41.0459 24.3467 41.0361 24.2484C41.0262 24.15 40.918 23.6877 39.8361 23.6779C38.7541 23.668 37.8197 23.8844 37.7115 24.1697C37.6033 24.4549 37.3967 25.1041 37.259 25.773C37.0721 26.7566 35.0951 30.268 33.9639 32.1074C33.6 31.3893 33.2852 30.7598 33.2164 30.2582C33.118 29.5008 33 29.0385 33.118 28.1336C33.2361 27.2287 33.7672 25.9402 33.7574 25.8418C33.7475 25.7434 33.6393 25.2811 32.5574 25.2713C31.4754 25.2615 30.541 25.4779 30.4328 25.7631C30.3246 26.0484 30.2066 26.7172 29.9803 27.3664C29.7541 28.0156 27.1279 33.8779 26.4393 35.3926C26.0852 36.1697 25.7803 36.7893 25.5639 37.2123C25.5639 37.2123 25.5541 37.2418 25.5246 37.291C25.3377 37.6549 25.2295 37.8516 25.2295 37.8516C25.2295 37.8516 25.2295 37.8516 25.2295 37.8615C25.082 38.1271 24.9246 38.373 24.8459 38.373C24.7869 38.373 24.6787 37.6648 24.8656 36.7008C25.259 34.6648 26.1934 31.4975 26.1836 31.3893C26.1836 31.3303 26.3607 30.7795 25.5738 30.4943C24.8066 30.209 24.5311 30.6811 24.4623 30.6811C24.3934 30.6811 24.3443 30.8484 24.3443 30.8484C24.3443 30.8484 25.2 27.2877 22.7115 27.2877C21.1574 27.2877 19.0131 28.9893 17.9508 30.5238C17.282 30.8877 15.8557 31.6648 14.3311 32.5008C13.7508 32.8254 13.1508 33.15 12.5902 33.4549C12.5508 33.4156 12.5115 33.3664 12.4721 33.3271C9.4623 30.1107 3.89508 27.8385 4.13115 23.5205C4.21967 21.9467 4.76066 17.8156 14.823 12.7992C23.1049 8.71721 29.6951 9.84836 30.8361 12.3566C32.4689 15.9369 27.3049 22.5861 18.7475 23.55C15.482 23.9139 13.7705 22.6549 13.3377 22.1828C12.8852 21.691 12.8164 21.6615 12.6492 21.7598C12.3738 21.9074 12.5508 22.35 12.6492 22.6057C12.9049 23.2746 13.9574 24.4549 15.7377 25.0352C17.3115 25.5467 21.1377 25.832 25.7705 24.0418C30.9541 22.0352 35.0066 16.4582 33.8164 11.7861C32.6262 7.04508 24.7574 5.48115 17.3115 8.12705C12.8852 9.70082 8.08525 12.1795 4.63279 15.4057C0.531149 19.2418 -0.118031 22.5762 0.147543 23.973C1.10164 28.9303 7.93771 32.1566 10.6721 34.5467C10.5344 34.6254 10.4066 34.6943 10.2984 34.7533C8.93115 35.432 3.71803 38.1566 2.41967 41.0385C0.944264 44.3041 2.65574 46.6451 3.78689 46.9598C7.29836 47.9336 10.9082 46.1828 12.8459 43.291C14.7836 40.3992 14.5475 36.6418 13.6525 34.9205C13.6426 34.9008 13.6328 34.8811 13.6131 34.8615C13.9672 34.6549 14.3311 34.4385 14.6852 34.232C15.3836 33.8189 16.0721 33.4352 16.6623 33.1205C16.3279 34.0352 16.082 35.1271 15.9639 36.7008C15.8164 38.55 16.5738 40.95 17.5672 41.8943C18.0098 42.3074 18.5311 42.3172 18.8656 42.3172C20.0262 42.3172 20.5475 41.3533 21.1279 40.2123C21.8361 38.8156 22.4754 37.1926 22.4754 37.1926C22.4754 37.1926 21.6787 41.5795 23.8426 41.5795C24.6295 41.5795 25.4262 40.5566 25.7803 40.0352V40.0451C25.7803 40.0451 25.8 40.0156 25.8393 39.9467C25.918 39.8189 25.9672 39.7402 25.9672 39.7402V39.7205C26.282 39.1697 26.9902 37.9205 28.0426 35.8451C29.4 33.1697 30.7082 29.8254 30.7082 29.8254C30.7082 29.8254 30.8262 30.6418 31.2295 31.9992C31.4656 32.7959 31.9574 33.6713 32.3508 34.5172C32.0361 34.9598 31.8393 35.2057 31.8393 35.2057C31.8393 35.2057 31.8393 35.2057 31.8492 35.2156C31.5934 35.55 31.318 35.9139 31.0131 36.268C29.941 37.5467 28.6623 39.0123 28.4852 39.4352C28.2787 39.9369 28.3279 40.3008 28.7213 40.5959C29.0066 40.8123 29.518 40.8418 30.0393 40.8123C31.0033 40.7434 31.682 40.5074 32.0164 40.3598C32.5377 40.173 33.1475 39.8877 33.718 39.4648C34.7705 38.6877 35.4098 37.5762 35.3508 36.1107C35.3213 35.3041 35.0557 34.4975 34.7311 33.7402C34.8295 33.6025 34.918 33.4648 35.0164 33.3271C36.6787 30.8975 37.9672 28.232 37.9672 28.232C37.9672 28.232 38.0852 29.0484 38.4885 30.4057C38.6852 31.0943 39.0885 31.8418 39.4426 32.5697C37.8787 33.8385 36.9148 35.3139 36.5705 36.2779C35.9508 38.068 36.4328 38.8746 37.3475 39.0615C37.7607 39.15 38.3508 38.9533 38.7836 38.7664C39.3344 38.5893 39.9836 38.2844 40.6033 37.832C41.6557 37.0549 42.6688 35.973 42.6098 34.5074C42.5803 33.8385 42.4033 33.1795 42.1574 32.5402C43.4852 31.9893 45.1967 31.6844 47.3803 31.9402C52.0623 32.491 52.9869 35.4123 52.8098 36.6418C52.6328 37.8713 51.6492 38.5402 51.3246 38.7467C51 38.9533 50.8918 39.0221 50.9213 39.1697C50.9607 39.3861 51.118 39.3762 51.3934 39.3369C51.7771 39.268 53.8525 38.3434 53.941 36.0811C54.0885 33.1893 51.3344 30.032 46.4656 30.0615ZM10.3475 42.2385C8.79344 43.9303 6.62951 44.5697 5.69508 44.0287C4.6918 43.4484 5.08525 40.95 6.99344 39.1598C8.1541 38.068 9.64918 37.0549 10.6426 36.4352C10.8689 36.2975 11.2033 36.1008 11.6066 35.8549C11.6754 35.8156 11.7148 35.7959 11.7148 35.7959C11.7934 35.7467 11.8721 35.6975 11.9508 35.6484C12.6492 38.2057 11.9803 40.4582 10.3475 42.2385ZM21.659 34.5467C21.118 35.8648 19.9869 39.2385 19.2984 39.0516C18.7082 38.8943 18.3443 36.3369 19.1803 33.809C19.6033 32.5402 20.4984 31.0254 21.0197 30.4352C21.8656 29.491 22.8 29.1762 23.0262 29.5598C23.3115 30.0615 21.9934 33.7205 21.659 34.5467ZM30.9934 39.0123C30.7672 39.1303 30.5508 39.209 30.4525 39.15C30.3836 39.1107 30.5508 38.9533 30.5508 38.9533C30.5508 38.9533 31.7213 37.6943 32.1836 37.1238C32.4492 36.7893 32.7639 36.3959 33.0984 35.9533V36.0811C33.0984 37.5861 31.6426 38.5992 30.9934 39.0123ZM38.1934 37.3697C38.0262 37.2516 38.0557 36.8582 38.6164 35.6287C38.8328 35.1467 39.3443 34.3402 40.2197 33.5631C40.318 33.8779 40.3869 34.1828 40.3771 34.468C40.3672 36.3664 39.0098 37.0746 38.1934 37.3697Z" fill="#9153F4"/>
</svg>
