<svg width="57" height="57" viewBox="0 0 57 57" fill="none" xmlns="http://www.w3.org/2000/svg">
<path d="M53.4838 26.9663C53.3378 26.9557 53.1685 26.9485 52.9975 26.9485C52.1354 26.9485 51.3107 27.1088 50.5519 27.401L50.5982 27.3849C50.3755 27.474 50.0193 27.474 49.989 27.7572C50.1119 27.8748 50.1297 28.0689 50.233 28.2328C50.4414 28.5855 50.6979 28.8848 50.9972 29.1341L51.0025 29.1395C51.3143 29.3835 51.626 29.6204 51.9537 29.8288C52.5326 30.1851 53.1899 30.397 53.7564 30.7551C54.0788 30.9635 54.4083 31.2289 54.736 31.4515C54.8981 31.562 55.0032 31.7633 55.2116 31.8345V31.79C55.1101 31.6564 55.078 31.4622 54.9783 31.3144C54.8287 31.1647 54.6808 31.0312 54.533 30.8851C54.0912 30.3062 53.58 29.811 53.0064 29.3977L52.9851 29.3835C52.5095 29.0593 51.4674 28.6051 51.2715 28.0582L51.243 28.0262C51.6313 27.971 51.9769 27.889 52.31 27.7786L52.2672 27.7911C52.7731 27.6575 53.2362 27.686 53.7581 27.5559C53.9933 27.4954 54.2319 27.4223 54.4706 27.3475V27.2139C54.2034 26.9467 54.0039 26.5834 53.7279 26.334C52.9993 25.6927 52.196 25.0907 51.3499 24.5492L51.2697 24.5011C50.803 24.2036 50.2099 24.0113 49.7183 23.7583C49.5401 23.6693 49.2427 23.6247 49.1394 23.4751C48.9078 23.1456 48.7029 22.7679 48.5409 22.3689L48.5266 22.3298C48.0896 21.4819 47.6835 20.6192 47.3082 19.7416C47.0517 19.0594 46.797 18.5001 46.5102 17.9586L46.5512 18.0423C45.1511 15.6928 43.2007 13.8047 40.8726 12.5168L40.796 12.4777C40.2456 12.2051 39.6061 11.9932 38.9346 11.8738L38.89 11.8667C38.5178 11.8489 38.1473 11.8222 37.7768 11.8061C37.5167 11.6387 37.2923 11.4677 37.0821 11.2789L37.0874 11.2842C36.2413 10.7498 34.0522 9.59203 33.4287 11.1239C33.0279 12.0893 34.0237 13.0423 34.3674 13.5322C34.6418 13.8581 34.8911 14.2233 35.1067 14.6098L35.1245 14.6454C35.2296 14.9037 35.2581 15.1691 35.3632 15.4381C35.6214 16.2432 35.8833 16.9041 36.1808 17.5435L36.1344 17.4331C36.3108 17.7876 36.4943 18.0886 36.6991 18.3736L36.6849 18.3522C36.8042 18.5143 37.009 18.5909 37.0571 18.8581C36.9039 19.1805 36.7846 19.5546 36.7187 19.9447L36.7151 19.9696C36.5228 20.561 36.4105 21.2432 36.4105 21.9503C36.4105 23.0565 36.6831 24.0985 37.164 25.0141L37.1462 24.9785C37.3849 25.3472 37.9513 26.1666 38.7101 25.8531C39.3781 25.5859 39.2303 24.7398 39.4226 23.9952C39.4672 23.8171 39.4387 23.6995 39.5295 23.5784V23.6122C39.7379 24.0308 39.9481 24.4298 40.1387 24.8484C40.6766 25.6233 41.3161 26.2823 42.0464 26.8256L42.0696 26.8417C42.4258 27.1088 42.709 27.572 43.1544 27.7358V27.6913H43.1205C43.019 27.5809 42.9068 27.4829 42.7839 27.3992L42.7767 27.3956C42.5006 27.1249 42.2441 26.8327 42.0126 26.5246L41.9983 26.505C41.4176 25.7212 40.8654 24.8342 40.3863 23.9026L40.3346 23.7939C40.0906 23.3272 39.8858 22.8232 39.6898 22.3618C39.6008 22.1837 39.6008 21.9165 39.4511 21.8274C39.1875 22.1231 38.9506 22.4527 38.7529 22.8071L38.7386 22.8356C38.5106 23.5 38.361 24.2677 38.3218 25.064V25.0836C38.2613 25.0996 38.2915 25.0836 38.2613 25.1156C37.7857 24.9998 37.6218 24.5064 37.4437 24.0914C37.2014 23.4395 37.0607 22.6842 37.0607 21.8987C37.0607 21.2646 37.1515 20.6518 37.3225 20.0729L37.3119 20.1192C37.4169 19.8075 37.8623 18.8242 37.6841 18.525C37.5915 18.2418 37.2976 18.0797 37.1337 17.8499C36.9396 17.5756 36.7614 17.2639 36.6136 16.9343L36.5994 16.8987C36.2431 16.0669 36.065 15.1442 35.6784 14.3123C35.4451 13.8777 35.1993 13.5037 34.9232 13.1545L34.9357 13.1706C34.6418 12.8303 34.371 12.4509 34.1359 12.0484L34.1163 12.0127C34.0433 11.8507 33.9382 11.5817 34.0557 11.4036C34.0771 11.3002 34.159 11.2201 34.2641 11.2041C34.4601 11.0437 35.0123 11.2522 35.2046 11.3412C35.7693 11.555 36.2556 11.8061 36.7062 12.1018L36.6777 12.084C36.8861 12.2301 37.1124 12.5133 37.3795 12.5863H37.6913C38.1669 12.6914 38.7048 12.6184 39.1501 12.7484C39.9677 13.0245 40.6749 13.3701 41.3286 13.794L41.2912 13.7708C43.2577 15.0409 44.8323 16.758 45.8975 18.7868L45.9331 18.8599C46.1112 19.2019 46.1896 19.5172 46.3517 19.8734C46.6634 20.6073 47.0482 21.3501 47.3652 22.059C47.6663 22.8214 48.0225 23.4804 48.4464 24.0878L48.4251 24.0558C48.6477 24.3675 49.5419 24.5296 49.9427 24.6917C50.3649 24.8395 50.7033 24.9802 51.031 25.1388L50.9651 25.1103C51.4764 25.422 51.9751 25.7782 52.456 26.1202C52.7001 26.2895 53.4429 26.6617 53.4874 26.961L53.4838 26.9663ZM32.6004 39.9926C32.6004 40.0193 32.6022 40.0496 32.6022 40.0799C32.6022 41.0738 32.1587 41.9627 31.4569 42.5612L31.4515 42.5648C30.682 43.1918 29.6899 43.5729 28.6087 43.5729C28.5249 43.5729 28.4412 43.5712 28.3593 43.5658H28.37C27.0536 43.548 25.8424 43.1205 24.8502 42.4062L24.868 42.4187L25.3953 41.3588C26.1594 41.7863 27.0679 42.0518 28.0333 42.0892H28.044C28.0921 42.0927 28.1473 42.0945 28.2043 42.0945C28.7957 42.0945 29.3461 41.9093 29.7968 41.594L29.7878 41.5993C30.1958 41.2894 30.4558 40.8049 30.4558 40.2598C30.4558 40.2491 30.4558 40.2402 30.4558 40.2295V40.2313C30.4558 39.4974 29.9446 38.874 29.013 38.3503C28.1491 37.8765 26.4249 36.8879 26.4249 36.8879C25.5734 36.3607 25.0159 35.4326 25.0159 34.3746C25.0159 34.3372 25.0159 34.2998 25.0177 34.2623V34.2677C25.0159 34.2338 25.0159 34.1947 25.0159 34.1555C25.0159 33.2381 25.4202 32.4152 26.0597 31.8559L26.0633 31.8523C26.7437 31.2752 27.6325 30.9243 28.6033 30.9243C28.6657 30.9243 28.7262 30.9261 28.7868 30.9278H28.7779C28.7939 30.9278 28.8135 30.9278 28.8331 30.9278C29.9713 30.9278 31.0312 31.2681 31.9147 31.8541L31.8933 31.8416L31.4195 32.9015C30.723 32.588 29.9108 32.3992 29.0558 32.3903H29.0522C29.0094 32.3867 28.9614 32.3849 28.9115 32.3849C28.4127 32.3849 27.9532 32.5595 27.5934 32.8516L27.5969 32.848C27.2603 33.1277 27.0465 33.5463 27.0447 34.0148C27.0447 34.7451 27.5648 35.3721 28.5267 35.9064C29.4013 36.3856 31.1683 37.3973 31.1683 37.3973C32.0376 37.9086 32.6129 38.8384 32.6129 39.9036C32.6129 39.9356 32.6129 39.9695 32.6111 40.0015V39.9962L32.6004 39.9926ZM36.2912 40.9385C35.8049 39.9677 35.5217 38.8241 35.5217 37.6147C35.5217 37.4241 35.5288 37.2353 35.5431 37.05L35.5413 37.0749C35.5413 33.9744 36.4836 32.4235 38.3681 32.4223C38.4144 32.4188 38.4697 32.417 38.5267 32.417C39.3728 32.417 40.1155 32.8587 40.5377 33.5249L40.543 33.5338C41.0258 34.4993 41.309 35.6393 41.309 36.8434C41.309 37.0286 41.3019 37.2121 41.2894 37.3938L41.2912 37.3688C41.2912 40.4943 40.3489 42.0583 38.4643 42.0607C38.4162 42.0642 38.361 42.066 38.3058 42.066C37.4597 42.066 36.7151 41.6243 36.293 40.9581L36.2876 40.9492L36.2912 40.9385ZM43.6193 43.703L41.3571 42.5897C41.5637 42.4169 41.7489 42.2352 41.9199 42.0393L41.9253 42.0339C42.8391 40.8013 43.3877 39.2498 43.3877 37.5719C43.3877 37.3778 43.3806 37.1854 43.3663 36.9948L43.3681 37.0197C43.3681 32.9466 41.7691 30.9088 38.5712 30.9065C38.4999 30.9029 38.4162 30.9011 38.3325 30.9011C36.9663 30.9011 35.739 31.5014 34.9036 32.4544L34.9 32.4597C33.9898 33.6923 33.443 35.242 33.443 36.92C33.443 37.1088 33.4501 37.2958 33.4644 37.4811L33.4626 37.4561C33.4465 37.636 33.4376 37.8462 33.4376 38.0582C33.4376 39.615 33.9257 41.0578 34.7558 42.2423L34.7397 42.2192C35.5395 43.0706 36.6742 43.6014 37.9299 43.6014C38.0475 43.6014 38.1633 43.5961 38.2773 43.5872L38.2613 43.589C38.2773 43.589 38.2987 43.589 38.3183 43.589C38.8722 43.589 39.4084 43.5088 39.916 43.361L39.8769 43.3717L42.8266 45.0906L43.6282 43.7065L43.6193 43.703ZM51.0079 43.4019H45.1529V31.0935H47.123V41.8897H51.0079V43.4019ZM23.5749 34.3211C23.0636 38.0333 21.8934 41.3838 20.1816 44.3852L20.2528 44.248C19.567 45.5679 18.2703 46.4871 16.7473 46.6349L16.7295 46.6367C16.2682 46.6118 15.8389 46.5013 15.4488 46.3214L15.4702 46.3303V45.2313C15.7142 45.2687 15.9956 45.2901 16.2824 45.2901C16.2984 45.2901 16.3145 45.2901 16.3323 45.2901C16.3608 45.2918 16.3911 45.2918 16.4231 45.2918C16.9379 45.2918 17.4099 45.1048 17.7733 44.7931L17.7698 44.7949C18.1616 44.4725 18.4128 43.9915 18.427 43.45C18.3326 42.6698 18.1527 41.9573 17.8944 41.2858L17.9158 41.3464L15.659 34.3211H17.6843L19.3034 39.574C19.592 40.315 19.7594 41.1736 19.7594 42.0696C19.7594 42.0713 19.7594 42.0731 19.7594 42.0731C20.618 39.8252 21.2699 37.2032 21.6012 34.4832L21.6173 34.3193L23.5749 34.3211ZM14.633 43.4019H12.5703C12.5121 40.1233 12.312 36.8511 11.97 33.5855H11.9522L8.81363 43.4019H7.24435L4.12716 33.5855H4.10579C3.86235 36.8523 3.71747 40.1244 3.67116 43.4019H1.79016C1.91247 39.026 2.21647 34.9226 2.70216 31.0917H5.26182L8.23294 40.1387H8.25075L11.2486 31.0917H13.6853C14.2245 35.5769 14.5421 39.6803 14.6383 43.4019H14.633ZM38.3058 14.0345C38.3022 14.0345 38.2969 14.0345 38.2915 14.0345C38.0796 14.0345 37.8747 14.0612 37.6788 14.1111L37.6966 14.1075V14.136H37.7269C37.8801 14.364 38.0368 14.5617 38.206 14.747L38.2025 14.7434C38.3218 14.9821 38.4251 15.219 38.5445 15.4559L38.5748 15.4221C38.7689 15.2689 38.8918 15.0337 38.8918 14.7701C38.8918 14.7381 38.89 14.7078 38.8865 14.6757V14.6793C38.7974 14.5742 38.7849 14.4709 38.7084 14.3676C38.6193 14.2179 38.4287 14.1449 38.3076 14.0273L38.3058 14.0345Z" fill="#9153F4"/>
</svg>
