<svg width="51" height="50" viewBox="0 0 51 50" fill="none" xmlns="http://www.w3.org/2000/svg">
<path fill-rule="evenodd" clip-rule="evenodd" d="M25.4952 8.28333C16.3383 8.28333 8.88977 15.7143 8.88977 24.8496C8.88977 28.4726 10.0612 31.8326 12.0527 34.5598L9.983 40.7148L16.3675 38.6797C18.9934 40.4133 22.1271 41.4162 25.5049 41.4162C34.6618 41.4162 42.1104 33.985 42.1104 24.8499C42.1104 15.7146 34.6618 8.2836 25.5049 8.2836L25.4952 8.28333ZM20.8581 16.6983C20.536 15.9289 20.2919 15.8998 19.804 15.88C19.6378 15.8704 19.4527 15.8608 19.2474 15.8608C18.6126 15.8608 17.9489 16.0458 17.5486 16.4548C17.0607 16.9514 15.8501 18.1103 15.8501 20.4867C15.8501 22.8632 17.5877 25.1616 17.8219 25.4832C18.066 25.8042 21.2096 30.7518 26.0906 32.7682C29.9076 34.3459 31.0402 34.1997 31.9089 34.0147C33.1779 33.742 34.7693 32.8067 35.1696 31.6773C35.57 30.5473 35.5699 29.5831 35.4526 29.3786C35.3355 29.1741 35.0131 29.0575 34.5252 28.8137C34.0373 28.5702 31.6648 27.4015 31.2157 27.2456C30.7763 27.0802 30.3567 27.1387 30.025 27.6062C29.5563 28.2588 29.0976 28.9212 28.7265 29.3203C28.4336 29.632 27.955 29.671 27.555 29.5053C27.018 29.2815 25.5148 28.7552 23.6598 27.1093C22.2246 25.8336 21.2485 24.2463 20.9655 23.7691C20.6823 23.2824 20.9363 22.9995 21.1606 22.7368C21.4047 22.4347 21.6389 22.2206 21.883 21.938C22.1271 21.6557 22.2638 21.5095 22.42 21.1783C22.5861 20.857 22.4687 20.5258 22.3516 20.2822C22.2345 20.0387 21.2584 17.6622 20.8581 16.6983Z" fill="#9153F4"/>
<path d="M48.9155 24.8497C48.9155 37.7416 38.4358 48.1993 25.5 48.1993C12.5643 48.1993 2.08459 37.7416 2.08459 24.8497C2.08459 11.9577 12.5643 1.5 25.5 1.5C38.4358 1.5 48.9155 11.9577 48.9155 24.8497Z" stroke="#9153F4" stroke-width="3"/>
</svg>
